<svg width="24" height="24" viewBox="0 0 24 24" fill="none" xmlns="http://www.w3.org/2000/svg">
<path d="M15 13.9996C12.33 13.9996 7 15.3296 7 17.9996V19.9996H23V17.9996C23 15.3296 17.67 13.9996 15 13.9996ZM15 11.9996C16.0609 11.9996 17.0783 11.5782 17.8284 10.8281C18.5786 10.0779 19 9.0605 19 7.99963C19 6.93877 18.5786 5.92135 17.8284 5.17121C17.0783 4.42106 16.0609 3.99963 15 3.99963C13.9391 3.99963 12.9217 4.42106 12.1716 5.17121C11.4214 5.92135 11 6.93877 11 7.99963C11 9.0605 11.4214 10.0779 12.1716 10.8281C12.9217 11.5782 13.9391 11.9996 15 11.9996ZM5 13.2796L7.45 14.7696L6.8 11.9596L9 10.0796L6.11 9.82963L5 7.18963L3.87 9.82963L1 10.0796L3.18 11.9596L2.5 14.7696L5 13.2796Z" fill="#282828"/>
</svg>
