<svg width="24" height="24" viewBox="0 0 24 24" fill="none" xmlns="http://www.w3.org/2000/svg">
<path d="M22 11.9985C22 14.6507 20.9464 17.1942 19.0711 19.0696C17.1957 20.945 14.6522 21.9985 12 21.9985C10.6868 21.9985 9.38642 21.7399 8.17317 21.2373C6.95991 20.7348 5.85752 19.9982 4.92893 19.0696C3.05357 17.1942 2 14.6507 2 11.9985C2 9.34637 3.05357 6.80283 4.92893 4.92747C6.8043 3.0521 9.34784 1.99854 12 1.99854C13.3132 1.99854 14.6136 2.25719 15.8268 2.75974C17.0401 3.26229 18.1425 3.99888 19.0711 4.92747C19.9997 5.85605 20.7362 6.95844 21.2388 8.1717C21.7413 9.38496 22 10.6853 22 11.9985ZM6 9.99854L12 15.9985L18 9.99854L16.6 8.59854L12 13.1985L7.4 8.59854L6 9.99854Z" fill="#282828"/>
</svg>
