<svg width="24" height="24" viewBox="0 0 24 24" fill="none" xmlns="http://www.w3.org/2000/svg">
<path d="M12 8.00146C12.2652 8.00146 12.5196 8.10682 12.7071 8.29436C12.8946 8.48189 13 8.73625 13 9.00146C13 9.26668 12.8946 9.52103 12.7071 9.70857C12.5196 9.89611 12.2652 10.0015 12 10.0015C11.7348 10.0015 11.4804 9.89611 11.2929 9.70857C11.1054 9.52103 11 9.26668 11 9.00146C11 8.73625 11.1054 8.48189 11.2929 8.29436C11.4804 8.10682 11.7348 8.00146 12 8.00146ZM21 11.0015C21 16.5515 17.16 21.7415 12 23.0015C6.84 21.7415 3 16.5515 3 11.0015V5.00146L12 1.00146L21 5.00146V11.0015ZM12 6.00146C11.2044 6.00146 10.4413 6.31753 9.87868 6.88014C9.31607 7.44275 9 8.20581 9 9.00146C9 10.3115 9.83 11.4215 11 11.8315V18.0015H13V16.0015H15V14.0015H13V11.8315C14.17 11.4215 15 10.3115 15 9.00146C15 8.20581 14.6839 7.44275 14.1213 6.88014C13.5587 6.31753 12.7956 6.00146 12 6.00146Z" fill="#282828"/>
</svg>
