<svg width="8" height="102" viewBox="0 0 8 102" fill="none" xmlns="http://www.w3.org/2000/svg">
<path d="M3.64645 101.354C3.84171 101.549 4.1583 101.549 4.35356 101.354L7.53554 98.1716C7.7308 97.9763 7.7308 97.6597 7.53554 97.4645C7.34028 97.2692 7.02369 97.2692 6.82843 97.4645L4 100.293L1.17158 97.4645C0.976315 97.2692 0.659733 97.2692 0.46447 97.4645C0.269208 97.6597 0.269208 97.9763 0.46447 98.1716L3.64645 101.354ZM3.5 1.515C3.5 1.79114 3.72386 2.015 4 2.015C4.27614 2.015 4.5 1.79114 4.5 1.515L3.5 1.515ZM4.5 3.535C4.5 3.25886 4.27614 3.035 4 3.035C3.72386 3.035 3.5 3.25886 3.5 3.535L4.5 3.535ZM3.5 6.565C3.5 6.84114 3.72386 7.065 4 7.065C4.27614 7.065 4.5 6.84114 4.5 6.565L3.5 6.565ZM4.5 8.585C4.5 8.30886 4.27614 8.085 4 8.085C3.72386 8.085 3.5 8.30886 3.5 8.585L4.5 8.585ZM3.5 11.615C3.5 11.8911 3.72386 12.115 4 12.115C4.27614 12.115 4.5 11.8911 4.5 11.615L3.5 11.615ZM4.5 13.635C4.5 13.3589 4.27614 13.135 4 13.135C3.72386 13.135 3.5 13.3589 3.5 13.635L4.5 13.635ZM3.5 16.665C3.5 16.9411 3.72386 17.165 4 17.165C4.27614 17.165 4.5 16.9411 4.5 16.665L3.5 16.665ZM4.5 18.685C4.5 18.4089 4.27614 18.185 4 18.185C3.72386 18.185 3.5 18.4089 3.5 18.685L4.5 18.685ZM3.5 21.715C3.5 21.9911 3.72386 22.215 4 22.215C4.27614 22.215 4.5 21.9911 4.5 21.715L3.5 21.715ZM4.5 23.735C4.5 23.4589 4.27614 23.235 4 23.235C3.72386 23.235 3.5 23.4589 3.5 23.735L4.5 23.735ZM3.5 26.765C3.5 27.0411 3.72386 27.265 4 27.265C4.27614 27.265 4.5 27.0411 4.5 26.765L3.5 26.765ZM4.5 28.785C4.5 28.5089 4.27614 28.285 4 28.285C3.72386 28.285 3.5 28.5089 3.5 28.785L4.5 28.785ZM3.5 31.815C3.5 32.0911 3.72386 32.315 4 32.315C4.27614 32.315 4.5 32.0911 4.5 31.815L3.5 31.815ZM4.5 33.835C4.5 33.5589 4.27614 33.335 4 33.335C3.72386 33.335 3.5 33.5589 3.5 33.835L4.5 33.835ZM3.5 36.865C3.5 37.1411 3.72386 37.365 4 37.365C4.27614 37.365 4.5 37.1411 4.5 36.865L3.5 36.865ZM4.5 38.885C4.5 38.6089 4.27614 38.385 4 38.385C3.72386 38.385 3.5 38.6089 3.5 38.885L4.5 38.885ZM3.5 41.915C3.5 42.1911 3.72386 42.415 4 42.415C4.27614 42.415 4.5 42.1911 4.5 41.915L3.5 41.915ZM4.5 43.935C4.5 43.6589 4.27614 43.435 4 43.435C3.72386 43.435 3.5 43.6589 3.5 43.935L4.5 43.935ZM3.5 46.965C3.5 47.2411 3.72386 47.465 4 47.465C4.27614 47.465 4.5 47.2411 4.5 46.965L3.5 46.965ZM4.5 48.985C4.5 48.7089 4.27614 48.485 4 48.485C3.72386 48.485 3.5 48.7089 3.5 48.985L4.5 48.985ZM3.5 52.015C3.5 52.2911 3.72386 52.515 4 52.515C4.27614 52.515 4.5 52.2911 4.5 52.015L3.5 52.015ZM4.5 54.035C4.5 53.7589 4.27614 53.535 4 53.535C3.72386 53.535 3.5 53.7589 3.5 54.035L4.5 54.035ZM3.5 57.065C3.5 57.3411 3.72386 57.565 4 57.565C4.27614 57.565 4.5 57.3411 4.5 57.065L3.5 57.065ZM4.5 59.085C4.5 58.8089 4.27614 58.585 4 58.585C3.72386 58.585 3.5 58.8089 3.5 59.085L4.5 59.085ZM3.5 62.115C3.5 62.3911 3.72386 62.615 4 62.615C4.27615 62.615 4.5 62.3911 4.5 62.115L3.5 62.115ZM4.5 64.135C4.5 63.8589 4.27615 63.635 4 63.635C3.72386 63.635 3.5 63.8589 3.5 64.135L4.5 64.135ZM3.5 67.165C3.5 67.4411 3.72386 67.665 4 67.665C4.27615 67.665 4.5 67.4411 4.5 67.165L3.5 67.165ZM4.5 69.185C4.5 68.9088 4.27615 68.685 4 68.685C3.72386 68.685 3.5 68.9088 3.5 69.185L4.5 69.185ZM3.5 72.215C3.5 72.4911 3.72386 72.715 4 72.715C4.27615 72.715 4.5 72.4911 4.5 72.215L3.5 72.215ZM4.5 74.235C4.5 73.9588 4.27615 73.735 4 73.735C3.72386 73.735 3.5 73.9588 3.5 74.235L4.5 74.235ZM3.5 77.265C3.5 77.5411 3.72386 77.765 4 77.765C4.27615 77.765 4.5 77.5411 4.5 77.265L3.5 77.265ZM4.5 79.285C4.5 79.0088 4.27615 78.785 4 78.785C3.72386 78.785 3.5 79.0088 3.5 79.285L4.5 79.285ZM3.5 82.315C3.5 82.5911 3.72386 82.815 4 82.815C4.27615 82.815 4.5 82.5911 4.5 82.315L3.5 82.315ZM4.5 84.335C4.5 84.0588 4.27615 83.835 4 83.835C3.72386 83.835 3.5 84.0588 3.5 84.335L4.5 84.335ZM3.5 87.365C3.5 87.6411 3.72386 87.865 4 87.865C4.27615 87.865 4.5 87.6411 4.5 87.365L3.5 87.365ZM4.5 89.385C4.5 89.1088 4.27615 88.885 4 88.885C3.72386 88.885 3.5 89.1088 3.5 89.385L4.5 89.385ZM3.5 92.415C3.5 92.6911 3.72386 92.915 4 92.915C4.27615 92.915 4.5 92.6911 4.5 92.415L3.5 92.415ZM4.5 94.435C4.5 94.1588 4.27615 93.935 4 93.935C3.72386 93.935 3.5 94.1588 3.5 94.435L4.5 94.435ZM3.5 97.465C3.5 97.7411 3.72386 97.965 4 97.965C4.27615 97.965 4.5 97.7411 4.5 97.465L3.5 97.465ZM4.5 99.485C4.5 99.2088 4.27615 98.985 4 98.985C3.72386 98.985 3.5 99.2088 3.5 99.485L4.5 99.485ZM3.5 2.18557e-08L3.5 1.515L4.5 1.515L4.5 -2.18557e-08L3.5 2.18557e-08ZM3.5 3.535L3.5 6.565L4.5 6.565L4.5 3.535L3.5 3.535ZM3.5 8.585L3.5 11.615L4.5 11.615L4.5 8.585L3.5 8.585ZM3.5 13.635L3.5 16.665L4.5 16.665L4.5 13.635L3.5 13.635ZM3.5 18.685L3.5 21.715L4.5 21.715L4.5 18.685L3.5 18.685ZM3.5 23.735L3.5 26.765L4.5 26.765L4.5 23.735L3.5 23.735ZM3.5 28.785L3.5 31.815L4.5 31.815L4.5 28.785L3.5 28.785ZM3.5 33.835L3.5 36.865L4.5 36.865L4.5 33.835L3.5 33.835ZM3.5 38.885L3.5 41.915L4.5 41.915L4.5 38.885L3.5 38.885ZM3.5 43.935L3.5 46.965L4.5 46.965L4.5 43.935L3.5 43.935ZM3.5 48.985L3.5 52.015L4.5 52.015L4.5 48.985L3.5 48.985ZM3.5 54.035L3.5 57.065L4.5 57.065L4.5 54.035L3.5 54.035ZM3.5 59.085L3.5 62.115L4.5 62.115L4.5 59.085L3.5 59.085ZM3.5 64.135L3.5 67.165L4.5 67.165L4.5 64.135L3.5 64.135ZM3.5 69.185L3.5 72.215L4.5 72.215L4.5 69.185L3.5 69.185ZM3.5 74.235L3.5 77.265L4.5 77.265L4.5 74.235L3.5 74.235ZM3.5 79.285L3.5 82.315L4.5 82.315L4.5 79.285L3.5 79.285ZM3.5 84.335L3.5 87.365L4.5 87.365L4.5 84.335L3.5 84.335ZM3.5 89.385L3.5 92.415L4.5 92.415L4.5 89.385L3.5 89.385ZM3.5 94.435L3.5 97.465L4.5 97.465L4.5 94.435L3.5 94.435ZM3.5 99.485L3.5 101L4.5 101L4.5 99.485L3.5 99.485ZM3.64645 101.354C3.84171 101.549 4.1583 101.549 4.35356 101.354L7.53554 98.1716C7.7308 97.9763 7.7308 97.6597 7.53554 97.4645C7.34028 97.2692 7.02369 97.2692 6.82843 97.4645L4 100.293L1.17158 97.4645C0.976315 97.2692 0.659733 97.2692 0.46447 97.4645C0.269208 97.6597 0.269208 97.9763 0.46447 98.1716L3.64645 101.354ZM3.5 1.515C3.5 1.79114 3.72386 2.015 4 2.015C4.27614 2.015 4.5 1.79114 4.5 1.515L3.5 1.515ZM4.5 3.535C4.5 3.25886 4.27614 3.035 4 3.035C3.72386 3.035 3.5 3.25886 3.5 3.535L4.5 3.535ZM3.5 6.565C3.5 6.84114 3.72386 7.065 4 7.065C4.27614 7.065 4.5 6.84114 4.5 6.565L3.5 6.565ZM4.5 8.585C4.5 8.30886 4.27614 8.085 4 8.085C3.72386 8.085 3.5 8.30886 3.5 8.585L4.5 8.585ZM3.5 11.615C3.5 11.8911 3.72386 12.115 4 12.115C4.27614 12.115 4.5 11.8911 4.5 11.615L3.5 11.615ZM4.5 13.635C4.5 13.3589 4.27614 13.135 4 13.135C3.72386 13.135 3.5 13.3589 3.5 13.635L4.5 13.635ZM3.5 16.665C3.5 16.9411 3.72386 17.165 4 17.165C4.27614 17.165 4.5 16.9411 4.5 16.665L3.5 16.665ZM4.5 18.685C4.5 18.4089 4.27614 18.185 4 18.185C3.72386 18.185 3.5 18.4089 3.5 18.685L4.5 18.685ZM3.5 21.715C3.5 21.9911 3.72386 22.215 4 22.215C4.27614 22.215 4.5 21.9911 4.5 21.715L3.5 21.715ZM4.5 23.735C4.5 23.4589 4.27614 23.235 4 23.235C3.72386 23.235 3.5 23.4589 3.5 23.735L4.5 23.735ZM3.5 26.765C3.5 27.0411 3.72386 27.265 4 27.265C4.27614 27.265 4.5 27.0411 4.5 26.765L3.5 26.765ZM4.5 28.785C4.5 28.5089 4.27614 28.285 4 28.285C3.72386 28.285 3.5 28.5089 3.5 28.785L4.5 28.785ZM3.5 31.815C3.5 32.0911 3.72386 32.315 4 32.315C4.27614 32.315 4.5 32.0911 4.5 31.815L3.5 31.815ZM4.5 33.835C4.5 33.5589 4.27614 33.335 4 33.335C3.72386 33.335 3.5 33.5589 3.5 33.835L4.5 33.835ZM3.5 36.865C3.5 37.1411 3.72386 37.365 4 37.365C4.27614 37.365 4.5 37.1411 4.5 36.865L3.5 36.865ZM4.5 38.885C4.5 38.6089 4.27614 38.385 4 38.385C3.72386 38.385 3.5 38.6089 3.5 38.885L4.5 38.885ZM3.5 41.915C3.5 42.1911 3.72386 42.415 4 42.415C4.27614 42.415 4.5 42.1911 4.5 41.915L3.5 41.915ZM4.5 43.935C4.5 43.6589 4.27614 43.435 4 43.435C3.72386 43.435 3.5 43.6589 3.5 43.935L4.5 43.935ZM3.5 46.965C3.5 47.2411 3.72386 47.465 4 47.465C4.27614 47.465 4.5 47.2411 4.5 46.965L3.5 46.965ZM4.5 48.985C4.5 48.7089 4.27614 48.485 4 48.485C3.72386 48.485 3.5 48.7089 3.5 48.985L4.5 48.985ZM3.5 52.015C3.5 52.2911 3.72386 52.515 4 52.515C4.27614 52.515 4.5 52.2911 4.5 52.015L3.5 52.015ZM4.5 54.035C4.5 53.7589 4.27614 53.535 4 53.535C3.72386 53.535 3.5 53.7589 3.5 54.035L4.5 54.035ZM3.5 57.065C3.5 57.3411 3.72386 57.565 4 57.565C4.27614 57.565 4.5 57.3411 4.5 57.065L3.5 57.065ZM4.5 59.085C4.5 58.8089 4.27614 58.585 4 58.585C3.72386 58.585 3.5 58.8089 3.5 59.085L4.5 59.085ZM3.5 62.115C3.5 62.3911 3.72386 62.615 4 62.615C4.27615 62.615 4.5 62.3911 4.5 62.115L3.5 62.115ZM4.5 64.135C4.5 63.8589 4.27615 63.635 4 63.635C3.72386 63.635 3.5 63.8589 3.5 64.135L4.5 64.135ZM3.5 67.165C3.5 67.4411 3.72386 67.665 4 67.665C4.27615 67.665 4.5 67.4411 4.5 67.165L3.5 67.165ZM4.5 69.185C4.5 68.9088 4.27615 68.685 4 68.685C3.72386 68.685 3.5 68.9088 3.5 69.185L4.5 69.185ZM3.5 72.215C3.5 72.4911 3.72386 72.715 4 72.715C4.27615 72.715 4.5 72.4911 4.5 72.215L3.5 72.215ZM4.5 74.235C4.5 73.9588 4.27615 73.735 4 73.735C3.72386 73.735 3.5 73.9588 3.5 74.235L4.5 74.235ZM3.5 77.265C3.5 77.5411 3.72386 77.765 4 77.765C4.27615 77.765 4.5 77.5411 4.5 77.265L3.5 77.265ZM4.5 79.285C4.5 79.0088 4.27615 78.785 4 78.785C3.72386 78.785 3.5 79.0088 3.5 79.285L4.5 79.285ZM3.5 82.315C3.5 82.5911 3.72386 82.815 4 82.815C4.27615 82.815 4.5 82.5911 4.5 82.315L3.5 82.315ZM4.5 84.335C4.5 84.0588 4.27615 83.835 4 83.835C3.72386 83.835 3.5 84.0588 3.5 84.335L4.5 84.335ZM3.5 87.365C3.5 87.6411 3.72386 87.865 4 87.865C4.27615 87.865 4.5 87.6411 4.5 87.365L3.5 87.365ZM4.5 89.385C4.5 89.1088 4.27615 88.885 4 88.885C3.72386 88.885 3.5 89.1088 3.5 89.385L4.5 89.385ZM3.5 92.415C3.5 92.6911 3.72386 92.915 4 92.915C4.27615 92.915 4.5 92.6911 4.5 92.415L3.5 92.415ZM4.5 94.435C4.5 94.1588 4.27615 93.935 4 93.935C3.72386 93.935 3.5 94.1588 3.5 94.435L4.5 94.435ZM3.5 97.465C3.5 97.7411 3.72386 97.965 4 97.965C4.27615 97.965 4.5 97.7411 4.5 97.465L3.5 97.465ZM4.5 99.485C4.5 99.2088 4.27615 98.985 4 98.985C3.72386 98.985 3.5 99.2088 3.5 99.485L4.5 99.485ZM3.5 2.18557e-08L3.5 1.515L4.5 1.515L4.5 -2.18557e-08L3.5 2.18557e-08ZM3.5 3.535L3.5 6.565L4.5 6.565L4.5 3.535L3.5 3.535ZM3.5 8.585L3.5 11.615L4.5 11.615L4.5 8.585L3.5 8.585ZM3.5 13.635L3.5 16.665L4.5 16.665L4.5 13.635L3.5 13.635ZM3.5 18.685L3.5 21.715L4.5 21.715L4.5 18.685L3.5 18.685ZM3.5 23.735L3.5 26.765L4.5 26.765L4.5 23.735L3.5 23.735ZM3.5 28.785L3.5 31.815L4.5 31.815L4.5 28.785L3.5 28.785ZM3.5 33.835L3.5 36.865L4.5 36.865L4.5 33.835L3.5 33.835ZM3.5 38.885L3.5 41.915L4.5 41.915L4.5 38.885L3.5 38.885ZM3.5 43.935L3.5 46.965L4.5 46.965L4.5 43.935L3.5 43.935ZM3.5 48.985L3.5 52.015L4.5 52.015L4.5 48.985L3.5 48.985ZM3.5 54.035L3.5 57.065L4.5 57.065L4.5 54.035L3.5 54.035ZM3.5 59.085L3.5 62.115L4.5 62.115L4.5 59.085L3.5 59.085ZM3.5 64.135L3.5 67.165L4.5 67.165L4.5 64.135L3.5 64.135ZM3.5 69.185L3.5 72.215L4.5 72.215L4.5 69.185L3.5 69.185ZM3.5 74.235L3.5 77.265L4.5 77.265L4.5 74.235L3.5 74.235ZM3.5 79.285L3.5 82.315L4.5 82.315L4.5 79.285L3.5 79.285ZM3.5 84.335L3.5 87.365L4.5 87.365L4.5 84.335L3.5 84.335ZM3.5 89.385L3.5 92.415L4.5 92.415L4.5 89.385L3.5 89.385ZM3.5 94.435L3.5 97.465L4.5 97.465L4.5 94.435L3.5 94.435ZM3.5 99.485L3.5 101L4.5 101L4.5 99.485L3.5 99.485Z" fill="#014BA5"/>
</svg>
