<svg width="1920" height="943" viewBox="0 0 1920 943" fill="none" xmlns="http://www.w3.org/2000/svg">
<path d="M-276.818 487.864C-259.083 483.747 -46.2591 277.886 237.506 487.864C521.27 697.842 689.756 660.787 884.844 487.864C1079.93 314.941 1319.36 327.293 1567.65 487.864C1815.95 648.435 2028.77 669.021 2241.59 487.864" stroke="url(#paint0_linear_219_366)"/>
<path d="M-151.688 97.4939C-132.313 99.4497 311.415 0.994162 248.977 247.262C186.539 493.53 367.82 513.714 753.262 435.763C1138.7 357.811 1308.55 437.157 1285.18 634.593C1261.81 832.029 1399.81 910.045 1810.19 830.84" stroke="url(#paint1_linear_219_366)"/>
<path d="M-265.634 454.533C-247.447 450.865 -11.0718 250.62 247.945 467.383C506.962 684.147 679.498 651.355 894.346 483.557C1109.19 315.759 1346.84 334.075 1576.17 500.617C1805.49 667.159 2015.62 693.033 2249.13 517.455" stroke="url(#paint2_linear_219_366)"/>
<path d="M-254.943 422.929C-236.373 419.702 21.9662 225.394 256.52 448.08C491.074 670.767 667.028 642.157 900.258 479.736C1133.49 317.315 1368.78 341.306 1579.27 513.126C1789.76 684.946 1996.73 715.825 2249.46 546.083" stroke="url(#paint3_linear_219_366)"/>
<path d="M-244.779 393.003C-225.887 390.207 52.8524 202.075 263.375 429.879C473.898 657.684 652.687 633.153 902.949 476.292C1153.21 319.431 1385.66 348.801 1577.57 525.248C1769.48 701.696 1972.9 737.294 2243.43 573.569" stroke="url(#paint4_linear_219_366)"/>
<path d="M-235.167 364.707C-216.011 362.33 81.6023 180.536 268.657 412.713C455.712 644.89 636.802 624.318 902.78 473.135C1168.76 321.951 1397.95 356.398 1571.65 536.867C1745.35 717.335 1944.92 757.365 2231.83 599.771" stroke="url(#paint5_linear_219_366)"/>
<path d="M-226.123 337.994C-206.755 336.021 108.249 160.659 272.513 396.523C436.777 632.388 619.684 615.637 900.106 470.189C1180.53 324.741 1406.13 363.963 1562.09 547.891C1718.05 731.82 1913.51 775.997 2215.47 624.584" stroke="url(#paint6_linear_219_366)"/>
<path d="M-217.655 312.822C-198.122 311.237 132.847 142.332 275.094 381.261C417.341 620.189 601.632 607.109 895.277 467.399C1188.92 327.69 1410.68 371.383 1549.44 558.258C1688.21 745.133 1879.39 793.175 2195.11 647.937" stroke="url(#paint7_linear_219_366)"/>
<path d="M-209.763 289.147C-190.107 287.934 155.458 125.453 276.547 366.882C397.636 608.311 582.924 598.74 888.627 464.721C1194.33 330.703 1412.05 378.569 1534.25 567.922C1656.44 757.274 1843.23 808.906 2171.48 669.782" stroke="url(#paint8_linear_219_366)"/>
<path d="M-202.443 266.93C-182.701 266.072 176.158 109.927 277.018 353.352C377.877 596.778 563.825 590.545 880.477 462.124C1197.13 333.703 1410.7 385.449 1517 576.857C1623.31 768.264 1805.66 823.216 2145.26 690.099" stroke="url(#paint9_linear_219_366)"/>
<path d="M-195.683 246.136C-175.886 245.614 195.033 95.6664 276.649 340.642C358.266 585.617 544.58 582.546 871.137 459.588C1197.69 336.631 1407.04 391.968 1498.2 585.053C1589.35 778.138 1767.25 836.149 2117.12 708.888" stroke="url(#paint10_linear_219_366)"/>
<path d="M-189.474 226.729C-169.65 226.524 212.165 82.5925 275.573 328.727C338.982 574.861 525.413 574.769 860.891 457.103C1196.37 339.436 1401.49 398.086 1478.28 592.513C1555.07 786.941 1728.56 847.76 2087.65 726.165" stroke="url(#paint11_linear_219_366)"/>
<path d="M-183.794 208.678C-163.966 208.77 227.651 70.6329 273.924 317.589C320.196 564.545 506.537 567.246 850.016 454.666C1193.5 342.086 1394.44 403.777 1457.68 599.254C1520.91 794.73 1690.09 858.117 2057.44 741.964" stroke="url(#paint12_linear_219_366)"/>
<path d="M-178.626 191.955C-158.814 192.324 241.583 59.7232 271.822 307.214C302.06 554.705 488.142 560.009 838.765 452.282C1189.39 344.554 1386.24 409.026 1436.77 605.298C1487.31 801.569 1652.3 867.292 2027.02 756.327" stroke="url(#paint13_linear_219_366)"/>
<path d="M-173.95 176.532C-154.168 177.157 254.055 49.8047 269.383 297.591C284.711 545.378 470.401 553.095 827.372 449.959C1184.34 346.823 1377.24 413.825 1415.94 610.676C1454.64 807.527 1615.61 875.365 1996.86 769.305" stroke="url(#paint14_linear_219_366)"/>
<path d="M-169.746 162.385C-150.004 163.247 265.158 40.8256 266.715 288.713C268.273 536.601 453.472 546.539 816.054 447.713C1178.64 348.886 1367.74 418.176 1395.49 615.425C1423.24 812.673 1580.39 882.417 1967.41 780.958" stroke="url(#paint15_linear_219_366)"/>
<path d="M-165.988 149.492C-146.296 150.571 274.983 32.7398 263.92 280.575C252.857 528.411 437.498 540.379 805.01 445.559C1172.52 350.739 1358.05 422.085 1375.75 619.583C1393.45 817.081 1547.01 888.53 1939.08 791.347" stroke="url(#paint16_linear_219_366)"/>
<path d="M-162.655 137.834C-143.017 139.109 283.616 25.5068 261.089 273.175C238.563 520.843 422.608 534.65 794.422 443.517C1166.24 352.385 1348.42 425.564 1356.98 623.193C1365.54 820.822 1515.75 893.786 1912.23 800.536" stroke="url(#paint17_linear_219_366)"/>
<path d="M-159.725 127.394C-140.144 128.845 291.137 19.0913 258.307 266.511C225.477 513.931 408.913 529.386 784.451 441.606C1159.99 353.827 1339.09 428.627 1339.42 626.296C1339.76 823.965 1486.91 898.263 1887.19 808.588" stroke="url(#paint18_linear_219_366)"/>
<path d="M-157.178 118.155C-137.654 119.762 297.622 13.4622 255.648 260.584C213.675 507.705 396.512 524.621 775.24 439.847C1153.97 355.074 1330.28 431.291 1323.3 628.933C1316.33 826.576 1460.71 902.035 1864.25 815.564" stroke="url(#paint19_linear_219_366)"/>
<path d="M-154.998 110.106C-135.527 111.848 303.136 8.59403 253.178 255.395C203.22 502.196 385.49 520.384 766.916 438.26C1148.34 356.135 1322.17 433.572 1308.8 631.144C1295.44 828.715 1437.36 905.173 1843.65 821.523" stroke="url(#paint20_linear_219_366)"/>
<path d="M-153.164 103.233C-133.743 105.092 307.742 4.46385 250.956 250.947C194.17 497.429 375.921 516.703 759.589 436.862C1143.26 357.02 1314.93 435.488 1296.09 632.964C1277.26 830.439 1417.05 907.737 1825.63 826.519" stroke="url(#paint21_linear_219_366)"/>
<defs>
<linearGradient id="paint0_linear_219_366" x1="982.388" y1="631.786" x2="982.388" y2="362.761" gradientUnits="userSpaceOnUse">
<stop stop-color="#FFF9F9"/>
<stop offset="1" stop-color="#82BAFF"/>
</linearGradient>
<linearGradient id="paint1_linear_219_366" x1="634.939" y1="576.327" x2="748.228" y2="273.251" gradientUnits="userSpaceOnUse">
<stop stop-color="#FFF9F9"/>
<stop offset="1" stop-color="#82BAFF"/>
</linearGradient>
<linearGradient id="paint2_linear_219_366" x1="975.068" y1="629.708" x2="981.805" y2="360.461" gradientUnits="userSpaceOnUse">
<stop stop-color="#FFF9F9"/>
<stop offset="1" stop-color="#82BAFF"/>
</linearGradient>
<linearGradient id="paint3_linear_219_366" x1="964.611" y1="627.628" x2="977.882" y2="357.75" gradientUnits="userSpaceOnUse">
<stop stop-color="#FFF9F9"/>
<stop offset="1" stop-color="#82BAFF"/>
</linearGradient>
<linearGradient id="paint4_linear_219_366" x1="951.455" y1="625.482" x2="971.111" y2="354.617" gradientUnits="userSpaceOnUse">
<stop stop-color="#FFF9F9"/>
<stop offset="1" stop-color="#82BAFF"/>
</linearGradient>
<linearGradient id="paint5_linear_219_366" x1="936.017" y1="623.223" x2="961.95" y2="351.062" gradientUnits="userSpaceOnUse">
<stop stop-color="#FFF9F9"/>
<stop offset="1" stop-color="#82BAFF"/>
</linearGradient>
<linearGradient id="paint6_linear_219_366" x1="918.7" y1="620.822" x2="950.828" y2="347.104" gradientUnits="userSpaceOnUse">
<stop stop-color="#FFF9F9"/>
<stop offset="1" stop-color="#82BAFF"/>
</linearGradient>
<linearGradient id="paint7_linear_219_366" x1="899.89" y1="618.264" x2="938.154" y2="342.774" gradientUnits="userSpaceOnUse">
<stop stop-color="#FFF9F9"/>
<stop offset="1" stop-color="#82BAFF"/>
</linearGradient>
<linearGradient id="paint8_linear_219_366" x1="879.951" y1="615.547" x2="924.298" y2="338.114" gradientUnits="userSpaceOnUse">
<stop stop-color="#FFF9F9"/>
<stop offset="1" stop-color="#82BAFF"/>
</linearGradient>
<linearGradient id="paint9_linear_219_366" x1="859.226" y1="612.681" x2="909.607" y2="333.175" gradientUnits="userSpaceOnUse">
<stop stop-color="#FFF9F9"/>
<stop offset="1" stop-color="#82BAFF"/>
</linearGradient>
<linearGradient id="paint10_linear_219_366" x1="838.041" y1="609.684" x2="894.397" y2="328.017" gradientUnits="userSpaceOnUse">
<stop stop-color="#FFF9F9"/>
<stop offset="1" stop-color="#82BAFF"/>
</linearGradient>
<linearGradient id="paint11_linear_219_366" x1="816.688" y1="606.581" x2="878.95" y2="322.705" gradientUnits="userSpaceOnUse">
<stop stop-color="#FFF9F9"/>
<stop offset="1" stop-color="#82BAFF"/>
</linearGradient>
<linearGradient id="paint12_linear_219_366" x1="795.45" y1="603.403" x2="863.525" y2="317.305" gradientUnits="userSpaceOnUse">
<stop stop-color="#FFF9F9"/>
<stop offset="1" stop-color="#82BAFF"/>
</linearGradient>
<linearGradient id="paint13_linear_219_366" x1="774.579" y1="600.189" x2="848.348" y2="311.89" gradientUnits="userSpaceOnUse">
<stop stop-color="#FFF9F9"/>
<stop offset="1" stop-color="#82BAFF"/>
</linearGradient>
<linearGradient id="paint14_linear_219_366" x1="754.307" y1="596.976" x2="833.618" y2="306.529" gradientUnits="userSpaceOnUse">
<stop stop-color="#FFF9F9"/>
<stop offset="1" stop-color="#82BAFF"/>
</linearGradient>
<linearGradient id="paint15_linear_219_366" x1="734.846" y1="593.806" x2="819.511" y2="301.292" gradientUnits="userSpaceOnUse">
<stop stop-color="#FFF9F9"/>
<stop offset="1" stop-color="#82BAFF"/>
</linearGradient>
<linearGradient id="paint16_linear_219_366" x1="716.388" y1="590.72" x2="806.176" y2="296.246" gradientUnits="userSpaceOnUse">
<stop stop-color="#FFF9F9"/>
<stop offset="1" stop-color="#82BAFF"/>
</linearGradient>
<linearGradient id="paint17_linear_219_366" x1="699.104" y1="587.761" x2="793.742" y2="291.455" gradientUnits="userSpaceOnUse">
<stop stop-color="#FFF9F9"/>
<stop offset="1" stop-color="#82BAFF"/>
</linearGradient>
<linearGradient id="paint18_linear_219_366" x1="683.147" y1="584.968" x2="782.316" y2="286.976" gradientUnits="userSpaceOnUse">
<stop stop-color="#FFF9F9"/>
<stop offset="1" stop-color="#82BAFF"/>
</linearGradient>
<linearGradient id="paint19_linear_219_366" x1="668.651" y1="582.38" x2="771.986" y2="282.864" gradientUnits="userSpaceOnUse">
<stop stop-color="#FFF9F9"/>
<stop offset="1" stop-color="#82BAFF"/>
</linearGradient>
<linearGradient id="paint20_linear_219_366" x1="655.73" y1="580.033" x2="762.824" y2="279.166" gradientUnits="userSpaceOnUse">
<stop stop-color="#FFF9F9"/>
<stop offset="1" stop-color="#82BAFF"/>
</linearGradient>
<linearGradient id="paint21_linear_219_366" x1="644.488" y1="577.96" x2="754.888" y2="275.924" gradientUnits="userSpaceOnUse">
<stop stop-color="#FFF9F9"/>
<stop offset="1" stop-color="#82BAFF"/>
</linearGradient>
</defs>
</svg>
