<svg width="2632" height="943" viewBox="0 0 2632 943" fill="none" xmlns="http://www.w3.org/2000/svg">
<path d="M69.1816 487.864C86.9169 483.747 299.741 277.886 583.506 487.864C867.27 697.842 1035.76 660.787 1230.84 487.864C1425.93 314.941 1665.36 327.293 1913.65 487.864C2161.95 648.435 2374.77 669.021 2587.59 487.864" stroke="url(#paint0_linear_223_1257)"/>
<path d="M194.312 97.4939C213.687 99.4497 657.415 0.994162 594.977 247.262C532.539 493.53 713.82 513.714 1099.26 435.763C1484.7 357.811 1654.55 437.157 1631.18 634.593C1607.81 832.029 1745.81 910.045 2156.19 830.84" stroke="url(#paint1_linear_223_1257)"/>
<path d="M80.3663 454.533C98.5531 450.865 334.928 250.62 593.945 467.383C852.962 684.147 1025.5 651.355 1240.35 483.557C1455.19 315.759 1692.84 334.075 1922.17 500.617C2151.49 667.159 2361.62 693.033 2595.13 517.455" stroke="url(#paint2_linear_223_1257)"/>
<path d="M91.0565 422.929C109.627 419.702 367.966 225.394 602.52 448.08C837.074 670.767 1013.03 642.157 1246.26 479.736C1479.49 317.315 1714.78 341.306 1925.27 513.126C2135.76 684.946 2342.73 715.825 2595.46 546.083" stroke="url(#paint3_linear_223_1257)"/>
<path d="M101.221 393.003C120.113 390.207 398.852 202.075 609.375 429.879C819.898 657.684 998.687 633.153 1248.95 476.292C1499.21 319.431 1731.66 348.801 1923.57 525.248C2115.48 701.696 2318.9 737.294 2589.43 573.569" stroke="url(#paint4_linear_223_1257)"/>
<path d="M110.833 364.707C129.989 362.33 427.602 180.536 614.657 412.713C801.712 644.89 982.802 624.318 1248.78 473.135C1514.76 321.951 1743.95 356.398 1917.65 536.867C2091.35 717.335 2290.92 757.365 2577.83 599.771" stroke="url(#paint5_linear_223_1257)"/>
<path d="M119.877 337.994C139.245 336.021 454.249 160.659 618.513 396.523C782.777 632.388 965.684 615.637 1246.11 470.189C1526.53 324.741 1752.13 363.963 1908.09 547.891C2064.05 731.82 2259.51 775.997 2561.47 624.584" stroke="url(#paint6_linear_223_1257)"/>
<path d="M128.345 312.822C147.878 311.237 478.847 142.332 621.094 381.261C763.341 620.189 947.632 607.109 1241.28 467.399C1534.92 327.69 1756.68 371.383 1895.44 558.258C2034.21 745.133 2225.39 793.175 2541.11 647.937" stroke="url(#paint7_linear_223_1257)"/>
<path d="M136.237 289.147C155.893 287.934 501.458 125.453 622.547 366.882C743.636 608.311 928.924 598.74 1234.63 464.721C1540.33 330.703 1758.05 378.569 1880.25 567.922C2002.44 757.274 2189.23 808.906 2517.48 669.782" stroke="url(#paint8_linear_223_1257)"/>
<path d="M143.557 266.93C163.299 266.072 522.158 109.927 623.018 353.352C723.877 596.778 909.825 590.545 1226.48 462.124C1543.13 333.703 1756.7 385.449 1863 576.857C1969.31 768.264 2151.66 823.216 2491.26 690.099" stroke="url(#paint9_linear_223_1257)"/>
<path d="M150.317 246.136C170.114 245.614 541.033 95.6664 622.649 340.642C704.266 585.617 890.58 582.546 1217.14 459.588C1543.69 336.631 1753.04 391.968 1844.2 585.053C1935.35 778.138 2113.25 836.149 2463.12 708.888" stroke="url(#paint10_linear_223_1257)"/>
<path d="M156.526 226.729C176.35 226.524 558.165 82.5925 621.573 328.727C684.982 574.861 871.413 574.769 1206.89 457.103C1542.37 339.436 1747.49 398.086 1824.28 592.513C1901.07 786.941 2074.56 847.76 2433.65 726.165" stroke="url(#paint11_linear_223_1257)"/>
<path d="M162.206 208.678C182.034 208.77 573.651 70.6329 619.924 317.589C666.196 564.545 852.537 567.246 1196.02 454.666C1539.5 342.086 1740.44 403.777 1803.68 599.254C1866.91 794.73 2036.09 858.117 2403.44 741.964" stroke="url(#paint12_linear_223_1257)"/>
<path d="M167.374 191.955C187.186 192.324 587.583 59.7232 617.822 307.214C648.06 554.705 834.142 560.009 1184.77 452.282C1535.39 344.554 1732.24 409.026 1782.77 605.298C1833.31 801.569 1998.3 867.292 2373.02 756.327" stroke="url(#paint13_linear_223_1257)"/>
<path d="M172.05 176.532C191.832 177.157 600.055 49.8047 615.383 297.591C630.711 545.378 816.401 553.095 1173.37 449.959C1530.34 346.823 1723.24 413.825 1761.94 610.676C1800.64 807.527 1961.61 875.365 2342.86 769.305" stroke="url(#paint14_linear_223_1257)"/>
<path d="M176.254 162.385C195.996 163.247 611.158 40.8256 612.715 288.713C614.273 536.601 799.472 546.539 1162.05 447.713C1524.64 348.886 1713.74 418.176 1741.49 615.425C1769.24 812.673 1926.39 882.417 2313.41 780.958" stroke="url(#paint15_linear_223_1257)"/>
<path d="M180.012 149.492C199.704 150.571 620.983 32.7398 609.92 280.575C598.857 528.411 783.498 540.379 1151.01 445.559C1518.52 350.739 1704.05 422.085 1721.75 619.583C1739.45 817.081 1893.01 888.53 2285.08 791.347" stroke="url(#paint16_linear_223_1257)"/>
<path d="M183.345 137.834C202.983 139.109 629.616 25.5068 607.089 273.175C584.563 520.843 768.608 534.65 1140.42 443.517C1512.24 352.385 1694.42 425.564 1702.98 623.193C1711.54 820.822 1861.75 893.786 2258.23 800.536" stroke="url(#paint17_linear_223_1257)"/>
<path d="M186.275 127.394C205.856 128.845 637.137 19.0913 604.307 266.511C571.477 513.931 754.913 529.386 1130.45 441.606C1505.99 353.827 1685.09 428.627 1685.42 626.296C1685.76 823.965 1832.91 898.263 2233.19 808.588" stroke="url(#paint18_linear_223_1257)"/>
<path d="M188.822 118.155C208.346 119.762 643.622 13.4622 601.648 260.584C559.675 507.705 742.512 524.621 1121.24 439.847C1499.97 355.074 1676.28 431.291 1669.3 628.933C1662.33 826.576 1806.71 902.035 2210.25 815.564" stroke="url(#paint19_linear_223_1257)"/>
<path d="M191.002 110.106C210.473 111.848 649.136 8.59403 599.178 255.395C549.22 502.196 731.49 520.384 1112.92 438.26C1494.34 356.135 1668.17 433.572 1654.8 631.144C1641.44 828.715 1783.36 905.173 2189.65 821.523" stroke="url(#paint20_linear_223_1257)"/>
<path d="M192.836 103.233C212.257 105.092 653.742 4.46385 596.956 250.947C540.17 497.429 721.921 516.703 1105.59 436.862C1489.26 357.02 1660.93 435.488 1642.09 632.964C1623.26 830.439 1763.05 907.737 2171.63 826.519" stroke="url(#paint21_linear_223_1257)"/>
<defs>
<linearGradient id="paint0_linear_223_1257" x1="1328.39" y1="631.786" x2="1328.39" y2="362.761" gradientUnits="userSpaceOnUse">
<stop stop-color="#FFF9F9"/>
<stop offset="1" stop-color="#82BAFF"/>
</linearGradient>
<linearGradient id="paint1_linear_223_1257" x1="980.939" y1="576.327" x2="1094.23" y2="273.251" gradientUnits="userSpaceOnUse">
<stop stop-color="#FFF9F9"/>
<stop offset="1" stop-color="#82BAFF"/>
</linearGradient>
<linearGradient id="paint2_linear_223_1257" x1="1321.07" y1="629.708" x2="1327.8" y2="360.461" gradientUnits="userSpaceOnUse">
<stop stop-color="#FFF9F9"/>
<stop offset="1" stop-color="#82BAFF"/>
</linearGradient>
<linearGradient id="paint3_linear_223_1257" x1="1310.61" y1="627.628" x2="1323.88" y2="357.75" gradientUnits="userSpaceOnUse">
<stop stop-color="#FFF9F9"/>
<stop offset="1" stop-color="#82BAFF"/>
</linearGradient>
<linearGradient id="paint4_linear_223_1257" x1="1297.45" y1="625.482" x2="1317.11" y2="354.617" gradientUnits="userSpaceOnUse">
<stop stop-color="#FFF9F9"/>
<stop offset="1" stop-color="#82BAFF"/>
</linearGradient>
<linearGradient id="paint5_linear_223_1257" x1="1282.02" y1="623.223" x2="1307.95" y2="351.062" gradientUnits="userSpaceOnUse">
<stop stop-color="#FFF9F9"/>
<stop offset="1" stop-color="#82BAFF"/>
</linearGradient>
<linearGradient id="paint6_linear_223_1257" x1="1264.7" y1="620.822" x2="1296.83" y2="347.104" gradientUnits="userSpaceOnUse">
<stop stop-color="#FFF9F9"/>
<stop offset="1" stop-color="#82BAFF"/>
</linearGradient>
<linearGradient id="paint7_linear_223_1257" x1="1245.89" y1="618.264" x2="1284.15" y2="342.774" gradientUnits="userSpaceOnUse">
<stop stop-color="#FFF9F9"/>
<stop offset="1" stop-color="#82BAFF"/>
</linearGradient>
<linearGradient id="paint8_linear_223_1257" x1="1225.95" y1="615.547" x2="1270.3" y2="338.114" gradientUnits="userSpaceOnUse">
<stop stop-color="#FFF9F9"/>
<stop offset="1" stop-color="#82BAFF"/>
</linearGradient>
<linearGradient id="paint9_linear_223_1257" x1="1205.23" y1="612.681" x2="1255.61" y2="333.175" gradientUnits="userSpaceOnUse">
<stop stop-color="#FFF9F9"/>
<stop offset="1" stop-color="#82BAFF"/>
</linearGradient>
<linearGradient id="paint10_linear_223_1257" x1="1184.04" y1="609.684" x2="1240.4" y2="328.017" gradientUnits="userSpaceOnUse">
<stop stop-color="#FFF9F9"/>
<stop offset="1" stop-color="#82BAFF"/>
</linearGradient>
<linearGradient id="paint11_linear_223_1257" x1="1162.69" y1="606.581" x2="1224.95" y2="322.705" gradientUnits="userSpaceOnUse">
<stop stop-color="#FFF9F9"/>
<stop offset="1" stop-color="#82BAFF"/>
</linearGradient>
<linearGradient id="paint12_linear_223_1257" x1="1141.45" y1="603.403" x2="1209.52" y2="317.305" gradientUnits="userSpaceOnUse">
<stop stop-color="#FFF9F9"/>
<stop offset="1" stop-color="#82BAFF"/>
</linearGradient>
<linearGradient id="paint13_linear_223_1257" x1="1120.58" y1="600.189" x2="1194.35" y2="311.89" gradientUnits="userSpaceOnUse">
<stop stop-color="#FFF9F9"/>
<stop offset="1" stop-color="#82BAFF"/>
</linearGradient>
<linearGradient id="paint14_linear_223_1257" x1="1100.31" y1="596.976" x2="1179.62" y2="306.529" gradientUnits="userSpaceOnUse">
<stop stop-color="#FFF9F9"/>
<stop offset="1" stop-color="#82BAFF"/>
</linearGradient>
<linearGradient id="paint15_linear_223_1257" x1="1080.85" y1="593.806" x2="1165.51" y2="301.292" gradientUnits="userSpaceOnUse">
<stop stop-color="#FFF9F9"/>
<stop offset="1" stop-color="#82BAFF"/>
</linearGradient>
<linearGradient id="paint16_linear_223_1257" x1="1062.39" y1="590.72" x2="1152.18" y2="296.246" gradientUnits="userSpaceOnUse">
<stop stop-color="#FFF9F9"/>
<stop offset="1" stop-color="#82BAFF"/>
</linearGradient>
<linearGradient id="paint17_linear_223_1257" x1="1045.1" y1="587.761" x2="1139.74" y2="291.455" gradientUnits="userSpaceOnUse">
<stop stop-color="#FFF9F9"/>
<stop offset="1" stop-color="#82BAFF"/>
</linearGradient>
<linearGradient id="paint18_linear_223_1257" x1="1029.15" y1="584.968" x2="1128.32" y2="286.976" gradientUnits="userSpaceOnUse">
<stop stop-color="#FFF9F9"/>
<stop offset="1" stop-color="#82BAFF"/>
</linearGradient>
<linearGradient id="paint19_linear_223_1257" x1="1014.65" y1="582.38" x2="1117.99" y2="282.864" gradientUnits="userSpaceOnUse">
<stop stop-color="#FFF9F9"/>
<stop offset="1" stop-color="#82BAFF"/>
</linearGradient>
<linearGradient id="paint20_linear_223_1257" x1="1001.73" y1="580.033" x2="1108.82" y2="279.166" gradientUnits="userSpaceOnUse">
<stop stop-color="#FFF9F9"/>
<stop offset="1" stop-color="#82BAFF"/>
</linearGradient>
<linearGradient id="paint21_linear_223_1257" x1="990.488" y1="577.96" x2="1100.89" y2="275.924" gradientUnits="userSpaceOnUse">
<stop stop-color="#FFF9F9"/>
<stop offset="1" stop-color="#82BAFF"/>
</linearGradient>
</defs>
</svg>
