<svg width="876" height="258" viewBox="0 0 876 258" fill="none" xmlns="http://www.w3.org/2000/svg">
<mask id="mask0_219_648" style="mask-type:alpha" maskUnits="userSpaceOnUse" x="0" y="0" width="876" height="258">
<path fill-rule="evenodd" clip-rule="evenodd" d="M20 0C8.95431 0 0 8.9543 0 20V238C0 249.046 8.95428 258 20 258H510.917C529.766 258 541.973 229.63 537.079 211.426C535.071 203.957 534 196.104 534 188C534 138.294 574.294 98 624 98C673.706 98 714 138.294 714 188C714 196.104 712.929 203.957 710.921 211.426C706.027 229.63 718.234 258 737.083 258H856C867.046 258 876 249.046 876 238V20C876 8.95431 867.046 0 856 0H20Z" fill="#D9D9D9"/>
</mask>
<g mask="url(#mask0_219_648)">
<path d="M447.415 552.682C555.063 445.92 721.657 247.507 526.848 307.944C332.04 368.382 207.449 260.099 372.21 189.051C485.537 201.5 681.747 198.484 559.972 86.8219C407.753 -52.7562 313.804 -173.422 452.189 -149.976C590.574 -126.531 777.994 -108.64 670.927 -255.033" stroke="url(#paint0_linear_219_648)"/>
<path d="M91.9546 255.444C236.704 300.541 490.04 354.784 345.389 210.981C200.738 67.1781 238.043 -93.6201 377.994 18.664C420.081 124.62 514.657 296.559 556.267 136.664C608.279 -63.2041 670.879 -202.731 714.989 -69.4858C759.099 63.7594 831.086 237.726 910.27 74.5566" stroke="url(#paint1_linear_219_648)"/>
<path d="M426.774 535.534C543.614 438.917 727.425 256.339 527.959 298.959C328.493 341.578 214.177 222.5 384.675 166.601C496.417 189.222 692.099 203.916 580.892 81.7252C441.883 -71.0139 359.201 -199.661 494.907 -163.83C630.613 -127.998 815.656 -93.2749 722.229 -248.729" stroke="url(#paint2_linear_219_648)"/>
<path d="M405.115 518.309C529.859 432.141 728.748 266.115 526.347 291.354C323.946 316.592 220.339 188.088 395.025 147.12C504.397 179.304 698.08 210.838 597.838 79.5016C472.536 -84.669 401.27 -219.975 533.376 -172.56C665.481 -125.145 846.835 -74.5756 767.179 -237.515" stroke="url(#paint3_linear_219_648)"/>
<path d="M382.756 500.967C514.183 425.382 726.088 276.326 522.295 284.784C318.502 293.243 225.846 156.632 403.317 130.211C509.662 171.306 700.084 218.708 611.016 79.5509C499.681 -94.3953 439.818 -235.118 567.563 -176.969C695.307 -118.82 871.873 -53.4642 805.927 -222.419" stroke="url(#paint4_linear_219_648)"/>
<path d="M360 483.508C496.962 418.489 719.93 286.554 516.102 278.965C312.275 271.375 230.647 127.902 409.645 115.515C512.43 164.844 698.536 227.07 620.684 81.3415C523.369 -100.819 474.755 -245.813 597.533 -177.801C720.31 -109.788 891.191 -30.7536 838.732 -204.37" stroke="url(#paint5_linear_219_648)"/>
<path d="M337.124 465.965C478.563 411.367 710.77 296.469 508.08 273.664C305.391 250.858 234.716 101.684 414.14 102.713C512.949 159.588 693.883 235.553 627.143 84.4118C543.718 -104.514 506.079 -252.736 623.429 -175.736C740.779 -98.7355 905.273 -7.14761 865.94 -184.2" stroke="url(#paint6_linear_219_648)"/>
<path d="M314.384 448.4C459.338 403.967 699.106 305.82 498.544 268.703C297.981 231.585 238.059 77.7761 416.959 91.5226C511.487 155.259 686.581 243.859 630.723 88.3674C560.902 -105.998 533.866 -256.515 645.461 -171.389C757.057 -86.2631 914.644 16.7559 887.962 -162.639" stroke="url(#paint7_linear_219_648)"/>
<path d="M292.008 430.897C439.614 396.28 685.422 314.425 487.798 263.947C290.174 213.47 240.697 55.9905 418.273 81.6975C508.317 151.627 677.077 251.764 631.768 92.8778C575.132 -105.73 558.245 -257.721 663.884 -165.307C769.523 -72.892 919.85 40.4581 905.253 -140.322" stroke="url(#paint8_linear_219_648)"/>
<path d="M270.198 413.556C419.696 388.331 670.183 322.166 476.142 259.307C282.101 196.447 242.67 36.1573 418.267 73.0293C503.714 148.506 665.813 259.103 630.63 97.6723C586.652 -104.116 579.399 -256.871 678.99 -157.968C778.58 -59.0654 921.448 63.5537 918.298 -117.787" stroke="url(#paint9_linear_219_648)"/>
<path d="M249.134 396.49C399.865 380.174 653.834 328.979 463.862 254.724C273.89 180.469 244.033 18.123 417.135 65.3425C497.956 145.754 653.211 265.768 627.663 102.535C595.727 -101.507 597.545 -254.422 691.096 -149.788C784.647 -45.1542 919.992 85.7207 927.601 -95.4879" stroke="url(#paint10_linear_219_648)"/>
<path d="M228.967 379.819C380.371 371.883 636.787 334.844 451.223 250.173C265.659 165.502 244.847 1.75053 415.065 58.4924C491.305 143.26 639.669 271.695 623.208 107.297C602.631 -98.2008 612.923 -250.78 700.53 -141.122C788.137 -31.4632 916.02 106.713 933.662 -73.7956" stroke="url(#paint11_linear_219_648)"/>
<path d="M209.832 363.666C361.444 363.547 619.429 339.778 438.478 245.652C257.526 151.526 245.185 -13.081 412.251 52.3622C484.019 140.948 625.563 276.862 617.6 111.834C607.647 -94.4513 625.792 -246.297 707.629 -132.267C789.465 -18.2375 910.053 126.348 936.979 -53.0101" stroke="url(#paint12_linear_219_648)"/>
<path d="M191.838 348.155C343.283 355.267 602.108 343.83 425.852 241.181C249.595 138.531 245.119 -26.4769 408.874 46.8597C476.335 138.768 611.236 281.278 611.153 116.058C611.05 -90.4676 636.416 -241.275 712.721 -123.472C789.025 -5.66906 902.581 144.504 938.03 -33.3667" stroke="url(#paint13_linear_219_648)"/>
<path d="M175.077 333.409C326.065 347.151 585.143 347.068 413.555 236.793C241.966 126.518 244.725 -38.5279 405.109 41.9146C468.477 136.69 597.003 284.976 604.161 119.911C613.108 -86.4208 645.059 -235.972 716.128 -114.938C787.197 6.09585 894.062 161.101 937.272 -15.0453" stroke="url(#paint14_linear_219_648)"/>
<path d="M159.628 319.545C309.946 339.309 568.821 349.577 401.775 232.534C234.729 115.492 244.08 -49.3119 401.122 37.4742C460.653 134.706 583.152 288.008 596.899 123.361C614.083 -82.4484 651.984 -230.604 718.16 -106.827C784.336 16.9498 884.923 176.1 935.136 1.82153" stroke="url(#paint15_linear_219_648)"/>
<path d="M145.549 306.676C295.057 331.85 553.392 351.452 390.678 228.458C227.965 105.465 243.256 -58.8943 397.064 33.5018C453.048 132.818 569.936 290.441 589.615 126.397C614.213 -78.6586 657.435 -225.35 719.102 -99.2659C780.769 26.8181 875.548 189.495 932.017 17.141" stroke="url(#paint16_linear_219_648)"/>
<path d="M132.89 294.903C281.509 324.88 539.079 352.793 380.411 224.622C221.744 96.4511 242.321 -67.3301 393.073 29.9723C445.829 131.041 557.579 292.347 582.532 129.021C613.723 -75.1351 661.648 -220.358 719.221 -92.3531C776.795 35.6518 866.285 201.297 928.276 30.8515" stroke="url(#paint17_linear_219_648)"/>
<path d="M121.69 284.322C269.399 318.499 526.075 353.7 371.103 221.084C216.131 88.4678 241.342 -74.6644 389.276 26.8712C439.147 129.394 546.28 293.802 575.852 131.25C612.816 -71.941 664.837 -215.747 718.76 -86.1623C772.683 43.4228 857.442 211.537 924.239 42.9174" stroke="url(#paint18_linear_219_648)"/>
<path d="M111.977 275.017C258.806 312.798 514.543 354.269 362.863 217.9C211.182 81.5324 240.377 -80.9342 385.782 24.1906C433.129 127.903 536.209 294.883 569.748 133.103C611.673 -69.1226 667.197 -211.613 717.933 -80.7475C768.669 50.1182 849.29 220.256 920.192 53.3211" stroke="url(#paint19_linear_219_648)"/>
<path d="M103.774 267.062C249.793 307.859 504.623 354.588 355.783 215.125C206.943 75.662 239.477 -86.1689 382.687 21.9282C427.888 126.594 527.506 295.661 564.371 134.606C610.451 -66.7131 668.898 -208.03 716.928 -76.1471C764.959 55.7357 842.058 227.498 916.383 62.0584" stroke="url(#paint20_linear_219_648)"/>
<path d="M97.0949 260.521C242.412 303.754 496.424 354.737 349.937 212.805C203.45 70.8726 238.686 -90.3916 380.068 20.0851C423.513 125.492 520.29 296.201 559.842 135.785C609.283 -64.7352 670.084 -205.055 715.903 -72.3874C761.721 60.2801 835.938 233.308 913.019 69.1341" stroke="url(#paint21_linear_219_648)"/>
</g>
<defs>
<linearGradient id="paint0_linear_219_648" x1="318.692" y1="70.7729" x2="664.166" y2="182.902" gradientUnits="userSpaceOnUse">
<stop stop-color="white"/>
<stop offset="1" stop-color="#005FD2"/>
</linearGradient>
<linearGradient id="paint1_linear_219_648" x1="457.423" y1="-84.0239" x2="520.188" y2="273.727" gradientUnits="userSpaceOnUse">
<stop stop-color="white"/>
<stop offset="1" stop-color="#005FD2"/>
</linearGradient>
<linearGradient id="paint2_linear_219_648" x1="342.044" y1="43.9786" x2="675.996" y2="186.812" gradientUnits="userSpaceOnUse">
<stop stop-color="white"/>
<stop offset="1" stop-color="#005FD2"/>
</linearGradient>
<linearGradient id="paint3_linear_219_648" x1="363.141" y1="21.274" x2="683.513" y2="192.407" gradientUnits="userSpaceOnUse">
<stop stop-color="white"/>
<stop offset="1" stop-color="#005FD2"/>
</linearGradient>
<linearGradient id="paint4_linear_219_648" x1="381.921" y1="2.16386" x2="687.087" y2="199.138" gradientUnits="userSpaceOnUse">
<stop stop-color="white"/>
<stop offset="1" stop-color="#005FD2"/>
</linearGradient>
<linearGradient id="paint5_linear_219_648" x1="398.382" y1="-13.8171" x2="687.118" y2="206.539" gradientUnits="userSpaceOnUse">
<stop stop-color="white"/>
<stop offset="1" stop-color="#005FD2"/>
</linearGradient>
<linearGradient id="paint6_linear_219_648" x1="412.577" y1="-27.0991" x2="684.031" y2="214.225" gradientUnits="userSpaceOnUse">
<stop stop-color="white"/>
<stop offset="1" stop-color="#005FD2"/>
</linearGradient>
<linearGradient id="paint7_linear_219_648" x1="424.602" y1="-38.0742" x2="678.266" y2="221.887" gradientUnits="userSpaceOnUse">
<stop stop-color="white"/>
<stop offset="1" stop-color="#005FD2"/>
</linearGradient>
<linearGradient id="paint8_linear_219_648" x1="434.586" y1="-47.0956" x2="670.254" y2="229.284" gradientUnits="userSpaceOnUse">
<stop stop-color="white"/>
<stop offset="1" stop-color="#005FD2"/>
</linearGradient>
<linearGradient id="paint9_linear_219_648" x1="442.683" y1="-54.4762" x2="660.423" y2="236.237" gradientUnits="userSpaceOnUse">
<stop stop-color="white"/>
<stop offset="1" stop-color="#005FD2"/>
</linearGradient>
<linearGradient id="paint10_linear_219_648" x1="449.068" y1="-60.4909" x2="649.187" y2="242.622" gradientUnits="userSpaceOnUse">
<stop stop-color="white"/>
<stop offset="1" stop-color="#005FD2"/>
</linearGradient>
<linearGradient id="paint11_linear_219_648" x1="453.924" y1="-65.3774" x2="636.934" y2="248.362" gradientUnits="userSpaceOnUse">
<stop stop-color="white"/>
<stop offset="1" stop-color="#005FD2"/>
</linearGradient>
<linearGradient id="paint12_linear_219_648" x1="457.445" y1="-69.3393" x2="624.034" y2="253.42" gradientUnits="userSpaceOnUse">
<stop stop-color="white"/>
<stop offset="1" stop-color="#005FD2"/>
</linearGradient>
<linearGradient id="paint13_linear_219_648" x1="459.821" y1="-72.5477" x2="610.827" y2="257.789" gradientUnits="userSpaceOnUse">
<stop stop-color="white"/>
<stop offset="1" stop-color="#005FD2"/>
</linearGradient>
<linearGradient id="paint14_linear_219_648" x1="461.24" y1="-75.1455" x2="597.624" y2="261.492" gradientUnits="userSpaceOnUse">
<stop stop-color="white"/>
<stop offset="1" stop-color="#005FD2"/>
</linearGradient>
<linearGradient id="paint15_linear_219_648" x1="461.885" y1="-77.2498" x2="584.711" y2="264.567" gradientUnits="userSpaceOnUse">
<stop stop-color="white"/>
<stop offset="1" stop-color="#005FD2"/>
</linearGradient>
<linearGradient id="paint16_linear_219_648" x1="461.927" y1="-78.955" x2="572.339" y2="267.072" gradientUnits="userSpaceOnUse">
<stop stop-color="white"/>
<stop offset="1" stop-color="#005FD2"/>
</linearGradient>
<linearGradient id="paint17_linear_219_648" x1="461.525" y1="-80.3367" x2="560.734" y2="269.067" gradientUnits="userSpaceOnUse">
<stop stop-color="white"/>
<stop offset="1" stop-color="#005FD2"/>
</linearGradient>
<linearGradient id="paint18_linear_219_648" x1="460.827" y1="-81.4537" x2="550.094" y2="270.621" gradientUnits="userSpaceOnUse">
<stop stop-color="white"/>
<stop offset="1" stop-color="#005FD2"/>
</linearGradient>
<linearGradient id="paint19_linear_219_648" x1="459.962" y1="-82.3512" x2="540.588" y2="271.802" gradientUnits="userSpaceOnUse">
<stop stop-color="white"/>
<stop offset="1" stop-color="#005FD2"/>
</linearGradient>
<linearGradient id="paint20_linear_219_648" x1="459.045" y1="-83.0633" x2="532.36" y2="272.675" gradientUnits="userSpaceOnUse">
<stop stop-color="white"/>
<stop offset="1" stop-color="#005FD2"/>
</linearGradient>
<linearGradient id="paint21_linear_219_648" x1="458.171" y1="-83.6149" x2="525.528" y2="273.3" gradientUnits="userSpaceOnUse">
<stop stop-color="white"/>
<stop offset="1" stop-color="#005FD2"/>
</linearGradient>
</defs>
</svg>
