<svg width="27" height="20" viewBox="0 0 27 20" fill="none" xmlns="http://www.w3.org/2000/svg">
<path d="M0.608398 1.66667C0.608398 0.746192 1.33594 0 2.2334 0H24.9834C25.8809 0 26.6084 0.746192 26.6084 1.66667C26.6084 2.58714 25.8809 3.33333 24.9834 3.33333H2.2334C1.33594 3.33333 0.608398 2.58714 0.608398 1.66667ZM0.608398 10C0.608398 9.07952 1.33594 8.33333 2.2334 8.33333H24.9834C25.8809 8.33333 26.6084 9.07952 26.6084 10C26.6084 10.9205 25.8809 11.6667 24.9834 11.6667H2.2334C1.33594 11.6667 0.608398 10.9205 0.608398 10ZM0.608398 18.3333C0.608398 17.4129 1.33594 16.6667 2.2334 16.6667H24.9834C25.8809 16.6667 26.6084 17.4129 26.6084 18.3333C26.6084 19.2538 25.8809 20 24.9834 20H2.2334C1.33594 20 0.608398 19.2538 0.608398 18.3333Z" fill="#282828"/>
</svg>
