<svg width="30" height="30" viewBox="0 0 30 30" fill="none" xmlns="http://www.w3.org/2000/svg">
<path d="M27.5 14.998C27.5 18.3133 26.183 21.4927 23.8388 23.8369C21.4946 26.1811 18.3152 27.498 15 27.498C13.3585 27.498 11.733 27.1747 10.2165 26.5465C8.69989 25.9184 7.3219 24.9976 6.16117 23.8369C3.81696 21.4927 2.5 18.3133 2.5 14.998C2.5 11.6828 3.81696 8.50342 6.16117 6.15921C8.50537 3.81501 11.6848 2.49805 15 2.49805C16.6415 2.49805 18.267 2.82137 19.7835 3.44955C21.3001 4.07774 22.6781 4.99848 23.8388 6.15921C24.9996 7.31994 25.9203 8.69793 26.5485 10.2145C27.1767 11.7311 27.5 13.3565 27.5 14.998ZM7.5 12.498L15 19.998L22.5 12.498L20.75 10.748L15 16.498L9.25 10.748L7.5 12.498Z" fill="white"/>
</svg>
