<svg width="30" height="30" viewBox="0 0 30 30" fill="none" xmlns="http://www.w3.org/2000/svg">
<path d="M4.79124 5H10.4037L12.2127 9.52254L9.30659 11.4599C8.95884 11.6918 8.74996 12.0821 8.74996 12.5C8.75314 12.617 8.74996 12.5013 8.74996 12.5013L8.74996 12.5026L8.74997 12.5054L8.75001 12.5117L8.7502 12.5271C8.75038 12.5386 8.75069 12.5526 8.75122 12.569C8.75228 12.6018 8.75419 12.6441 8.75761 12.6955C8.76445 12.7981 8.77735 12.9368 8.80159 13.1065C8.85003 13.4456 8.94406 13.9101 9.12661 14.4578C9.49315 15.5574 10.2134 16.9812 11.6161 18.3839C13.0188 19.7866 14.4425 20.5068 15.5422 20.8734C16.0898 21.0559 16.5544 21.1499 16.8935 21.1984C17.0632 21.2226 17.2019 21.2355 17.3045 21.2423C17.3558 21.2458 17.3982 21.2477 17.431 21.2487C17.4474 21.2493 17.4614 21.2496 17.4729 21.2498L17.4883 21.25L17.4946 21.25L17.4974 21.25H17.4987C17.4987 21.25 17.6383 21.2423 17.5 21.25C17.9734 21.25 18.4063 20.9825 18.618 20.559L19.4551 18.8848L25 19.8089V25.2087C22.3611 25.5904 15.2342 25.9665 9.63385 20.3661C4.03347 14.7657 4.40961 7.63887 4.79124 5ZM11.342 13.1076L13.5994 11.6027C14.5831 10.9469 14.9729 9.69172 14.5339 8.59406L12.7249 4.07152C12.3452 3.12238 11.4259 2.5 10.4037 2.5H4.72593C3.59029 2.5 2.52132 3.28895 2.33489 4.52113C1.91075 7.32438 1.33344 15.6012 7.86608 22.1339C14.3987 28.6665 22.6756 28.0892 25.4788 27.6651C26.711 27.4786 27.5 26.4097 27.5 25.274V19.8089C27.5 18.5868 26.6164 17.5438 25.411 17.3429L19.8661 16.4188C18.7835 16.2384 17.7099 16.7851 17.2191 17.7667L16.7859 18.633C16.6498 18.5996 16.4978 18.5567 16.3327 18.5016C15.5574 18.2432 14.4811 17.7134 13.3838 16.6161C12.2865 15.5188 11.7568 14.4426 11.4983 13.6672C11.4285 13.4577 11.3782 13.2693 11.342 13.1076Z" fill="#005FD2"/>
</svg>
