<svg width="79" height="79" viewBox="0 0 79 79" fill="none" xmlns="http://www.w3.org/2000/svg">
<path d="M56.9063 47.6868C57.2188 45.1086 57.4531 42.5305 57.4531 39.8743C57.4531 37.218 57.2188 34.6399 56.9063 32.0618H70.1094C70.7344 34.5618 71.125 37.179 71.125 39.8743C71.125 42.5696 70.7344 45.1868 70.1094 47.6868H56.9063ZM49.9922 69.4055C52.3359 65.0696 54.1328 60.3821 55.3828 55.4993H66.9062C63.1562 61.9446 57.1797 66.9446 49.9922 69.4055ZM49.0156 47.6868H30.7344C30.3438 45.1086 30.1094 42.5305 30.1094 39.8743C30.1094 37.218 30.3438 34.6008 30.7344 32.0618H49.0156C49.3672 34.6008 49.6406 37.218 49.6406 39.8743C49.6406 42.5305 49.3672 45.1086 49.0156 47.6868ZM39.875 70.968C36.6328 66.2805 34.0156 61.0852 32.4141 55.4993H47.3359C45.7344 61.0852 43.1172 66.2805 39.875 70.968ZM24.25 24.2493H12.8438C16.5547 17.7649 22.5703 12.7649 29.7187 10.343C27.375 14.679 25.6172 19.3665 24.25 24.2493ZM12.8438 55.4993H24.25C25.6172 60.3821 27.375 65.0696 29.7187 69.4055C22.5703 66.9446 16.5547 61.9446 12.8438 55.4993ZM9.64063 47.6868C9.01563 45.1868 8.625 42.5696 8.625 39.8743C8.625 37.179 9.01563 34.5618 9.64063 32.0618H22.8438C22.5312 34.6399 22.2969 37.218 22.2969 39.8743C22.2969 42.5305 22.5312 45.1086 22.8438 47.6868H9.64063ZM39.875 8.74146C43.1172 13.429 45.7344 18.6633 47.3359 24.2493H32.4141C34.0156 18.6633 36.6328 13.429 39.875 8.74146ZM66.9062 24.2493H55.3828C54.1328 19.3665 52.3359 14.679 49.9922 10.343C57.1797 12.804 63.1562 17.7649 66.9062 24.2493ZM39.875 0.811768C18.2734 0.811768 0.8125 18.3899 0.8125 39.8743C0.8125 50.2343 4.928 60.17 12.2536 67.4956C15.8809 71.1229 20.1871 74.0002 24.9264 75.9633C29.6657 77.9264 34.7452 78.9368 39.875 78.9368C50.235 78.9368 60.1707 74.8213 67.4964 67.4956C74.822 60.17 78.9375 50.2343 78.9375 39.8743C78.9375 34.7445 77.9271 29.665 75.9641 24.9257C74.001 20.1864 71.1236 15.8802 67.4964 12.2529C63.8691 8.62562 59.5629 5.7483 54.8236 3.78522C50.0843 1.82215 45.0048 0.811768 39.875 0.811768Z" fill="#005FD2"/>
</svg>
