<svg width="83" height="83" viewBox="0 0 83 83" fill="none" xmlns="http://www.w3.org/2000/svg">
<path d="M73.3516 0.109375H8.89844C4.04688 0.109375 0.109375 4.04688 0.109375 8.89844V73.3516C0.109375 78.2031 4.04688 82.1406 8.89844 82.1406H73.3516C78.2031 82.1406 82.1406 78.2031 82.1406 73.3516V8.89844C82.1406 4.04688 78.2031 0.109375 73.3516 0.109375ZM23.3652 64.6533C22.3574 66.4111 20.1045 66.9971 18.3672 65.9893C16.6094 64.9814 16.0234 62.7285 17.0312 60.9912L19.6504 56.4678C22.5977 55.5713 25.0147 56.2656 26.9014 58.5537L23.3652 64.6533ZM48.7979 54.7861H15.4902C13.4746 54.7861 11.8281 53.1367 11.8281 51.124C11.8281 49.1113 13.4775 47.4619 15.4902 47.4619H24.8301L36.8037 26.7344L33.0508 20.2539C32.043 18.4961 32.6494 16.2607 34.3867 15.2559C36.1445 14.248 38.3799 14.8545 39.3848 16.5918L41.0137 19.4102L42.6426 16.5918C43.6504 14.834 45.9033 14.248 47.6406 15.2559C49.3984 16.2637 49.9844 18.5166 48.9766 20.2539L33.2676 47.4648H44.6377C48.335 47.4648 50.4062 51.8037 48.7949 54.7891L48.7979 54.7861ZM66.7598 54.7861H61.4482L65.0371 60.9941C66.0449 62.752 65.4385 64.9873 63.7012 65.9922C61.9434 67 59.708 66.3936 58.7031 64.6562C52.6797 54.2383 48.1738 46.4014 45.1533 41.2012C42.0947 35.8896 44.2744 30.5811 46.4541 28.7881C48.8535 32.9453 52.4424 39.1709 57.2383 47.4648H66.7598C68.7754 47.4648 70.4219 49.1143 70.4219 51.127C70.4219 53.1602 68.7725 54.7891 66.7598 54.7891V54.7861Z" fill="#005FD2"/>
</svg>
