<svg width="1920" height="829" viewBox="0 0 1920 829" fill="none" xmlns="http://www.w3.org/2000/svg">
<path d="M-286.818 455.136C-269.083 459.253 -56.2591 665.114 227.506 455.136C511.27 245.158 679.756 282.213 874.844 455.136C1069.93 628.059 1309.36 615.707 1557.65 455.136C1805.95 294.565 2018.77 273.979 2231.59 455.136" stroke="url(#paint0_linear_219_343)"/>
<path d="M-161.688 845.506C-142.313 843.55 301.415 942.006 238.977 695.738C176.539 449.47 357.82 429.286 743.262 507.237C1128.7 585.189 1298.55 505.843 1275.18 308.407C1251.81 110.971 1389.81 32.9554 1800.19 112.16" stroke="url(#paint1_linear_219_343)"/>
<path d="M-275.634 488.467C-257.447 492.135 -21.0718 692.38 237.945 475.617C496.962 258.853 669.498 291.645 884.346 459.443C1099.19 627.241 1336.84 608.925 1566.17 442.383C1795.49 275.841 2005.62 249.967 2239.13 425.545" stroke="url(#paint2_linear_219_343)"/>
<path d="M-264.943 520.071C-246.373 523.298 11.9662 717.606 246.52 494.92C481.074 272.233 657.028 300.843 890.258 463.264C1123.49 625.685 1358.78 601.694 1569.27 429.874C1779.76 258.054 1986.73 227.175 2239.46 396.917" stroke="url(#paint3_linear_219_343)"/>
<path d="M-254.779 549.997C-235.887 552.793 42.8524 740.925 253.375 513.121C463.898 285.316 642.687 309.847 892.949 466.708C1143.21 623.569 1375.66 594.199 1567.57 417.752C1759.48 241.304 1962.9 205.706 2233.43 369.431" stroke="url(#paint4_linear_219_343)"/>
<path d="M-245.167 578.293C-226.011 580.67 71.6023 762.464 258.657 530.287C445.712 298.11 626.802 318.682 892.78 469.865C1158.76 621.049 1387.95 586.602 1561.65 406.133C1735.35 225.665 1934.92 185.635 2221.83 343.229" stroke="url(#paint5_linear_219_343)"/>
<path d="M-236.123 605.006C-216.755 606.979 98.2494 782.341 262.513 546.477C426.777 310.612 609.684 327.363 890.106 472.811C1170.53 618.259 1396.13 579.037 1552.09 395.109C1708.05 211.18 1903.51 167.003 2205.47 318.416" stroke="url(#paint6_linear_219_343)"/>
<path d="M-227.655 630.178C-208.122 631.763 122.847 800.668 265.094 561.739C407.341 322.811 591.632 335.891 885.277 475.601C1178.92 615.31 1400.68 571.617 1539.44 384.742C1678.21 197.867 1869.39 149.825 2185.11 295.063" stroke="url(#paint7_linear_219_343)"/>
<path d="M-219.763 653.853C-200.107 655.066 145.458 817.547 266.547 576.118C387.636 334.689 572.924 344.26 878.627 478.279C1184.33 612.297 1402.05 564.431 1524.25 375.078C1646.44 185.726 1833.23 134.094 2161.48 273.218" stroke="url(#paint8_linear_219_343)"/>
<path d="M-212.443 676.07C-192.701 676.928 166.158 833.073 267.018 589.648C367.877 346.222 553.825 352.455 870.477 480.876C1187.13 609.297 1400.7 557.551 1507 366.143C1613.31 174.736 1795.66 119.784 2135.26 252.901" stroke="url(#paint9_linear_219_343)"/>
<path d="M-205.683 696.864C-185.886 697.386 185.033 847.334 266.649 602.358C348.266 357.383 534.58 360.454 861.137 483.412C1187.69 606.369 1397.04 551.032 1488.2 357.947C1579.35 164.862 1757.25 106.851 2107.12 234.112" stroke="url(#paint10_linear_219_343)"/>
<path d="M-199.474 716.271C-179.65 716.476 202.165 860.407 265.573 614.273C328.982 368.139 515.413 368.231 850.891 485.897C1186.37 603.564 1391.49 544.914 1468.28 350.487C1545.07 156.059 1718.56 95.2398 2077.65 216.835" stroke="url(#paint11_linear_219_343)"/>
<path d="M-193.794 734.322C-173.966 734.23 217.651 872.367 263.924 625.411C310.196 378.455 496.537 375.754 840.016 488.334C1183.5 600.914 1384.44 539.223 1447.68 343.746C1510.91 148.27 1680.09 84.8834 2047.44 201.036" stroke="url(#paint12_linear_219_343)"/>
<path d="M-188.626 751.045C-168.814 750.676 231.583 883.277 261.822 635.786C292.06 388.295 478.142 382.991 828.765 490.718C1179.39 598.446 1376.24 533.974 1426.77 337.702C1477.31 141.431 1642.3 75.7078 2017.02 186.673" stroke="url(#paint13_linear_219_343)"/>
<path d="M-183.95 766.468C-164.168 765.843 244.055 893.195 259.383 645.409C274.711 397.622 460.401 389.905 817.372 493.041C1174.34 596.177 1367.24 529.175 1405.94 332.324C1444.64 135.473 1605.61 67.6353 1986.86 173.695" stroke="url(#paint14_linear_219_343)"/>
<path d="M-179.746 780.615C-160.004 779.753 255.158 902.174 256.715 654.287C258.273 406.399 443.472 396.461 806.054 495.287C1168.64 594.114 1357.74 524.824 1385.49 327.575C1413.24 130.327 1570.39 60.5833 1957.41 162.042" stroke="url(#paint15_linear_219_343)"/>
<path d="M-175.988 793.508C-156.296 792.429 264.983 910.26 253.92 662.425C242.857 414.589 427.498 402.621 795.01 497.441C1162.52 592.261 1348.05 520.915 1365.75 323.417C1383.45 125.919 1537.01 54.4703 1929.08 151.653" stroke="url(#paint16_linear_219_343)"/>
<path d="M-172.655 805.166C-153.017 803.891 273.616 917.493 251.089 669.825C228.563 422.157 412.608 408.35 784.422 499.483C1156.24 590.615 1338.42 517.436 1346.98 319.807C1355.54 122.178 1505.75 49.2144 1902.23 142.464" stroke="url(#paint17_linear_219_343)"/>
<path d="M-169.725 815.606C-150.144 814.155 281.137 923.909 248.307 676.489C215.477 429.069 398.913 413.614 774.451 501.394C1149.99 589.173 1329.09 514.373 1329.42 316.704C1329.76 119.035 1476.91 44.7372 1877.19 134.412" stroke="url(#paint18_linear_219_343)"/>
<path d="M-167.178 824.845C-147.654 823.238 287.622 929.538 245.648 682.416C203.675 435.295 386.512 418.379 765.24 503.153C1143.97 587.926 1320.28 511.709 1313.3 314.067C1306.33 116.424 1450.71 40.9649 1854.25 127.436" stroke="url(#paint19_linear_219_343)"/>
<path d="M-164.998 832.894C-145.527 831.152 293.136 934.406 243.178 687.605C193.22 440.804 375.49 422.616 756.916 504.74C1138.34 586.865 1312.17 509.428 1298.8 311.856C1285.44 114.285 1427.36 37.8274 1833.65 121.477" stroke="url(#paint20_linear_219_343)"/>
<path d="M-163.164 839.767C-143.743 837.908 297.742 938.536 240.956 692.053C184.17 445.571 365.921 426.297 749.589 506.138C1133.26 585.98 1304.93 507.512 1286.09 310.036C1267.26 112.561 1407.05 35.2629 1815.63 116.481" stroke="url(#paint21_linear_219_343)"/>
<defs>
<linearGradient id="paint0_linear_219_343" x1="972.388" y1="311.214" x2="972.388" y2="580.239" gradientUnits="userSpaceOnUse">
<stop stop-color="#FFF9F9"/>
<stop offset="1" stop-color="#82BAFF"/>
</linearGradient>
<linearGradient id="paint1_linear_219_343" x1="624.939" y1="366.673" x2="738.228" y2="669.749" gradientUnits="userSpaceOnUse">
<stop stop-color="#FFF9F9"/>
<stop offset="1" stop-color="#82BAFF"/>
</linearGradient>
<linearGradient id="paint2_linear_219_343" x1="965.068" y1="313.292" x2="971.805" y2="582.539" gradientUnits="userSpaceOnUse">
<stop stop-color="#FFF9F9"/>
<stop offset="1" stop-color="#82BAFF"/>
</linearGradient>
<linearGradient id="paint3_linear_219_343" x1="954.611" y1="315.372" x2="967.882" y2="585.25" gradientUnits="userSpaceOnUse">
<stop stop-color="#FFF9F9"/>
<stop offset="1" stop-color="#82BAFF"/>
</linearGradient>
<linearGradient id="paint4_linear_219_343" x1="941.455" y1="317.518" x2="961.111" y2="588.383" gradientUnits="userSpaceOnUse">
<stop stop-color="#FFF9F9"/>
<stop offset="1" stop-color="#82BAFF"/>
</linearGradient>
<linearGradient id="paint5_linear_219_343" x1="926.017" y1="319.777" x2="951.95" y2="591.938" gradientUnits="userSpaceOnUse">
<stop stop-color="#FFF9F9"/>
<stop offset="1" stop-color="#82BAFF"/>
</linearGradient>
<linearGradient id="paint6_linear_219_343" x1="908.7" y1="322.178" x2="940.828" y2="595.896" gradientUnits="userSpaceOnUse">
<stop stop-color="#FFF9F9"/>
<stop offset="1" stop-color="#82BAFF"/>
</linearGradient>
<linearGradient id="paint7_linear_219_343" x1="889.89" y1="324.736" x2="928.154" y2="600.226" gradientUnits="userSpaceOnUse">
<stop stop-color="#FFF9F9"/>
<stop offset="1" stop-color="#82BAFF"/>
</linearGradient>
<linearGradient id="paint8_linear_219_343" x1="869.951" y1="327.453" x2="914.298" y2="604.886" gradientUnits="userSpaceOnUse">
<stop stop-color="#FFF9F9"/>
<stop offset="1" stop-color="#82BAFF"/>
</linearGradient>
<linearGradient id="paint9_linear_219_343" x1="849.226" y1="330.319" x2="899.607" y2="609.825" gradientUnits="userSpaceOnUse">
<stop stop-color="#FFF9F9"/>
<stop offset="1" stop-color="#82BAFF"/>
</linearGradient>
<linearGradient id="paint10_linear_219_343" x1="828.041" y1="333.316" x2="884.397" y2="614.983" gradientUnits="userSpaceOnUse">
<stop stop-color="#FFF9F9"/>
<stop offset="1" stop-color="#82BAFF"/>
</linearGradient>
<linearGradient id="paint11_linear_219_343" x1="806.688" y1="336.419" x2="868.95" y2="620.295" gradientUnits="userSpaceOnUse">
<stop stop-color="#FFF9F9"/>
<stop offset="1" stop-color="#82BAFF"/>
</linearGradient>
<linearGradient id="paint12_linear_219_343" x1="785.45" y1="339.597" x2="853.525" y2="625.695" gradientUnits="userSpaceOnUse">
<stop stop-color="#FFF9F9"/>
<stop offset="1" stop-color="#82BAFF"/>
</linearGradient>
<linearGradient id="paint13_linear_219_343" x1="764.579" y1="342.811" x2="838.348" y2="631.11" gradientUnits="userSpaceOnUse">
<stop stop-color="#FFF9F9"/>
<stop offset="1" stop-color="#82BAFF"/>
</linearGradient>
<linearGradient id="paint14_linear_219_343" x1="744.307" y1="346.024" x2="823.618" y2="636.471" gradientUnits="userSpaceOnUse">
<stop stop-color="#FFF9F9"/>
<stop offset="1" stop-color="#82BAFF"/>
</linearGradient>
<linearGradient id="paint15_linear_219_343" x1="724.846" y1="349.194" x2="809.511" y2="641.708" gradientUnits="userSpaceOnUse">
<stop stop-color="#FFF9F9"/>
<stop offset="1" stop-color="#82BAFF"/>
</linearGradient>
<linearGradient id="paint16_linear_219_343" x1="706.388" y1="352.28" x2="796.176" y2="646.754" gradientUnits="userSpaceOnUse">
<stop stop-color="#FFF9F9"/>
<stop offset="1" stop-color="#82BAFF"/>
</linearGradient>
<linearGradient id="paint17_linear_219_343" x1="689.104" y1="355.239" x2="783.742" y2="651.545" gradientUnits="userSpaceOnUse">
<stop stop-color="#FFF9F9"/>
<stop offset="1" stop-color="#82BAFF"/>
</linearGradient>
<linearGradient id="paint18_linear_219_343" x1="673.147" y1="358.032" x2="772.316" y2="656.024" gradientUnits="userSpaceOnUse">
<stop stop-color="#FFF9F9"/>
<stop offset="1" stop-color="#82BAFF"/>
</linearGradient>
<linearGradient id="paint19_linear_219_343" x1="658.651" y1="360.62" x2="761.986" y2="660.136" gradientUnits="userSpaceOnUse">
<stop stop-color="#FFF9F9"/>
<stop offset="1" stop-color="#82BAFF"/>
</linearGradient>
<linearGradient id="paint20_linear_219_343" x1="645.73" y1="362.967" x2="752.824" y2="663.834" gradientUnits="userSpaceOnUse">
<stop stop-color="#FFF9F9"/>
<stop offset="1" stop-color="#82BAFF"/>
</linearGradient>
<linearGradient id="paint21_linear_219_343" x1="634.488" y1="365.04" x2="744.888" y2="667.076" gradientUnits="userSpaceOnUse">
<stop stop-color="#FFF9F9"/>
<stop offset="1" stop-color="#82BAFF"/>
</linearGradient>
</defs>
</svg>
