<svg width="328" height="47" viewBox="0 0 328 47" fill="none" xmlns="http://www.w3.org/2000/svg">
<path d="M28.9611 23.0624L36.2062 30.7681L28.9611 38.4601L21.7225 46.1453L14.4838 38.4601L7.23867 30.7681L0 23.0624L14.4838 7.68517L21.7225 0L28.9611 7.68517L36.2062 15.3772L28.9611 23.0624L21.7225 15.3772L14.4838 23.0624L21.7225 30.7681L28.9611 23.0624Z" fill="#005FD2"/>
<path d="M43.4351 7.69613L36.1934 15.3845L43.4351 23.0729L50.6768 15.3845L43.4351 7.69613Z" fill="#282828"/>
<path d="M59.2334 11.9836H68.7257C75.5575 11.9836 80.2455 16.3575 80.2455 23.0692C80.2455 29.7809 75.5575 34.1548 68.7257 34.1548H59.2334V11.9836ZM68.4803 29.9454C72.6259 29.9454 75.3444 27.3197 75.3444 23.0692C75.3444 18.8187 72.6324 16.193 68.4803 16.193H64.0635V29.9385H68.4803V29.9454Z" fill="#005FD2"/>
<path d="M83.8672 11.9836H88.7037V34.1616H83.8672V11.9836Z" fill="#005FD2"/>
<path d="M107.766 22.7265H112.183V31.7211C109.884 33.5584 106.72 34.5388 103.737 34.5388C97.1699 34.5388 92.3398 29.7536 92.3398 23.0693C92.3398 16.3851 97.1764 11.5999 103.827 11.5999C107.495 11.5999 110.543 12.9298 112.571 15.4322L109.465 18.4761C107.941 16.7621 106.184 15.9737 104.066 15.9737C100.005 15.9737 97.2345 18.86 97.2345 23.0693C97.2345 27.2787 100.011 30.1649 104.008 30.1649C105.319 30.1649 106.546 29.9113 107.766 29.212V22.7197V22.7265Z" fill="#005FD2"/>
<path d="M116.651 11.9836H121.488V34.1616H116.651V11.9836Z" fill="#005FD2"/>
<path d="M130.761 16.1656H124.078V11.9836H142.281V16.1656H135.598V34.1616H130.761V16.1656Z" fill="#005FD2"/>
<path d="M157.584 29.4107H147.886L146.039 34.1616H141.086L150.397 11.9836H155.169L164.513 34.1616H159.438L157.584 29.4107ZM156.06 25.5098L152.748 17.0225L149.435 25.5098H156.06Z" fill="#005FD2"/>
<path d="M166.98 11.9836H171.81V29.9797H182.284V34.1616H166.974V11.9836H166.98Z" fill="#005FD2"/>
<path d="M185.519 31.4676L186.384 29.6646C187.876 31.214 190.53 32.3589 193.274 32.3589C197.181 32.3589 198.886 30.6175 198.886 28.4306C198.886 22.3497 186.023 26.086 186.023 17.8798C186.023 14.6165 188.412 11.7988 193.72 11.7988C196.077 11.7988 198.524 12.5255 200.197 13.7595L199.448 15.6311C197.659 14.3971 195.567 13.7938 193.72 13.7938C189.897 13.7938 188.199 15.5969 188.199 17.8181C188.199 23.899 201.062 20.2244 201.062 28.3003C201.062 31.5636 198.615 34.3539 193.274 34.3539C190.143 34.3539 187.069 33.1816 185.513 31.4745L185.519 31.4676Z" fill="#282828"/>
<path d="M222.216 19.5865C222.216 24.3032 218.994 27.1552 213.679 27.1552H208.068V34.1548H205.859V11.9836H213.679C218.994 11.9836 222.216 14.8356 222.216 19.5865ZM220.007 19.5865C220.007 16.0422 217.799 14.0129 213.621 14.0129H208.074V25.0985H213.621C217.799 25.0985 220.007 23.0692 220.007 19.5865Z" fill="#282828"/>
<path d="M241.756 32.1324V34.1616H226.981V11.9836H241.304V14.0129H229.19V21.9037H239.993V23.8987H229.19V32.1392H241.756V32.1324Z" fill="#282828"/>
<path d="M244.972 23.0695C244.972 16.5772 249.627 11.792 255.923 11.792C258.965 11.792 261.716 12.8683 263.562 15.021L262.161 16.5087C260.456 14.6714 258.371 13.8761 255.981 13.8761C250.938 13.8761 247.148 17.8044 247.148 23.0627C247.148 28.3209 250.938 32.2492 255.981 32.2492C258.371 32.2492 260.456 31.4539 262.161 29.5892L263.562 31.0769C261.716 33.2296 258.965 34.3402 255.891 34.3402C249.627 34.3402 244.972 29.5549 244.972 23.0627V23.0695Z" fill="#282828"/>
<path d="M273.583 14.0129H266.241V11.9836H283.127V14.0129H275.785V34.1616H273.577V14.0129H273.583Z" fill="#282828"/>
<path d="M300.912 34.1616L296.14 27.0318C295.604 27.0935 295.068 27.1277 294.467 27.1277H288.856V34.1616H286.647V11.9836H294.467C299.782 11.9836 303.004 14.8356 303.004 19.5865C303.004 23.0692 301.273 25.5098 298.225 26.5587L303.327 34.1616H300.905H300.912ZM300.789 19.5865C300.789 16.0422 298.581 14.0129 294.403 14.0129H288.856V25.1327H294.403C298.581 25.1327 300.789 23.0761 300.789 19.5865Z" fill="#282828"/>
<path d="M306.064 23.0695C306.064 16.6046 310.72 11.792 317.048 11.792C323.377 11.792 328 16.5772 328 23.0695C328 29.5618 323.318 34.347 317.048 34.347C310.778 34.347 306.064 29.5344 306.064 23.0695ZM325.792 23.0695C325.792 17.777 322.066 13.883 317.048 13.883C312.031 13.883 308.247 17.777 308.247 23.0695C308.247 28.3621 312.005 32.2561 317.048 32.2561C322.092 32.2561 325.792 28.3552 325.792 23.0695Z" fill="#282828"/>
</svg>
