<svg width="79" height="79" viewBox="0 0 79 79" fill="none" xmlns="http://www.w3.org/2000/svg">
<path d="M56.9063 47.6868C57.2188 45.1087 57.4531 42.5306 57.4531 39.8743C57.4531 37.2181 57.2188 34.64 56.9063 32.0618H70.1094C70.7344 34.5618 71.125 37.179 71.125 39.8743C71.125 42.5697 70.7344 45.1868 70.1094 47.6868H56.9063ZM49.9922 69.4056C52.3359 65.0697 54.1328 60.3822 55.3828 55.4993H66.9062C63.1562 61.9447 57.1797 66.9447 49.9922 69.4056ZM49.0156 47.6868H30.7344C30.3438 45.1087 30.1094 42.5306 30.1094 39.8743C30.1094 37.2181 30.3438 34.6009 30.7344 32.0618H49.0156C49.3672 34.6009 49.6406 37.2181 49.6406 39.8743C49.6406 42.5306 49.3672 45.1087 49.0156 47.6868ZM39.875 70.9681C36.6328 66.2806 34.0156 61.0853 32.4141 55.4993H47.3359C45.7344 61.0853 43.1172 66.2806 39.875 70.9681ZM24.25 24.2493H12.8438C16.5547 17.765 22.5703 12.765 29.7187 10.3431C27.375 14.679 25.6172 19.3665 24.25 24.2493ZM12.8438 55.4993H24.25C25.6172 60.3822 27.375 65.0697 29.7187 69.4056C22.5703 66.9447 16.5547 61.9447 12.8438 55.4993ZM9.64063 47.6868C9.01563 45.1868 8.625 42.5697 8.625 39.8743C8.625 37.179 9.01563 34.5618 9.64063 32.0618H22.8438C22.5312 34.64 22.2969 37.2181 22.2969 39.8743C22.2969 42.5306 22.5312 45.1087 22.8438 47.6868H9.64063ZM39.875 8.74153C43.1172 13.429 45.7344 18.6634 47.3359 24.2493H32.4141C34.0156 18.6634 36.6328 13.429 39.875 8.74153ZM66.9062 24.2493H55.3828C54.1328 19.3665 52.3359 14.679 49.9922 10.3431C57.1797 12.804 63.1562 17.765 66.9062 24.2493ZM39.875 0.811844C18.2734 0.811844 0.8125 18.39 0.8125 39.8743C0.8125 50.2344 4.928 60.1701 12.2536 67.4957C15.8809 71.123 20.1871 74.0003 24.9264 75.9634C29.6657 77.9265 34.7452 78.9368 39.875 78.9368C50.235 78.9368 60.1707 74.8213 67.4964 67.4957C74.822 60.1701 78.9375 50.2344 78.9375 39.8743C78.9375 34.7446 77.9271 29.6651 75.9641 24.9258C74.001 20.1865 71.1236 15.8803 67.4964 12.253C63.8691 8.6257 59.5629 5.74837 54.8236 3.7853C50.0843 1.82223 45.0048 0.811844 39.875 0.811844Z" fill="white"/>
</svg>
