<svg width="302" height="68" viewBox="0 0 302 68" fill="none" xmlns="http://www.w3.org/2000/svg">
<path d="M27.2908 19.6542C27.2843 17.4897 27.4264 15.3272 27.7161 13.1821C25.7077 16.8951 24.7161 21.0728 24.8414 25.2922C24.8432 25.3641 24.8165 25.4337 24.7671 25.4859C24.7177 25.5381 24.6496 25.5686 24.5778 25.5707H24.5629C20.2875 25.5069 16.1059 26.7934 12.753 29.2279C11.0994 30.4482 9.65114 31.9245 8.46273 33.6011C7.28632 35.2442 6.39996 37.0767 5.8421 39.019L5.62337 39.7336L5.47801 40.4672C5.39242 40.9576 5.24977 41.4345 5.22668 41.9331C5.1832 42.4276 5.12478 42.918 5.09082 43.4084L5.09897 44.8865C5.18735 46.834 5.5665 48.7572 6.22385 50.5924C7.61228 54.1844 10.0604 57.3159 13.219 59.3591C14.7813 60.3779 16.4851 61.1611 18.2755 61.6836L19.6341 61.9906C20.0837 62.0966 20.5497 62.1265 21.0048 62.1958C21.2344 62.2216 21.4613 62.2732 21.6936 62.28L22.3878 62.3004C22.862 62.3113 23.2709 62.3493 23.8428 62.3289C28.134 62.2773 32.4257 62.2646 36.7178 62.2909C41.5832 62.3199 46.4486 62.4041 51.314 62.5436C50.0397 61.776 48.7993 60.9582 47.6065 60.0819C43.3492 56.9439 39.6236 53.1423 36.5724 48.8223C30.5251 40.3027 27.2811 30.1114 27.2908 19.6638V19.6515V19.6542Z" fill="#005FD2"/>
<path d="M86.4067 33.1488C90.1963 34.7411 93.3888 37.4854 95.5321 40.993C94.8449 37.9412 93.4384 35.0978 91.4298 32.6997C89.4211 30.3015 86.8684 28.4182 83.9844 27.2065C73.9638 22.9814 62.4066 27.6602 58.172 37.6564C56.952 40.5321 56.4378 43.6581 56.6725 46.7731C56.9072 49.888 57.8839 52.9016 59.5211 55.5621C58.6102 51.5611 58.9843 47.3748 60.5902 43.5987C64.8303 33.6025 76.3861 28.9237 86.4067 33.1488Z" fill="#282828"/>
<path d="M96.3055 45.2181C96.066 48.2644 95.1459 51.218 93.6128 53.8612C92.1079 56.4151 90.0517 58.6007 87.5945 60.2586C85.1851 61.8547 82.4441 62.8814 79.579 63.261C78.8745 63.3547 78.165 63.4064 77.4543 63.4159C77.101 63.4267 76.7451 63.4077 76.3932 63.4077L75.2412 63.367L70.6085 63.1958C68.0119 63.1052 65.4157 63.0246 62.82 62.954C58.0309 61.9214 53.4367 60.1329 49.2101 57.6556C44.8509 55.0938 40.951 51.8207 37.6719 47.9719C30.963 40.0662 27.2836 30.0326 27.2913 19.6639C27.2813 30.1102 30.5244 40.3005 36.5701 48.8196C39.6213 53.1396 43.3469 56.9413 47.6043 60.0793C48.7971 60.9555 50.0374 61.7734 51.3117 62.541C46.4463 62.406 41.5809 62.3218 36.7155 62.2883C33.0651 62.2611 29.4147 62.276 25.7643 62.3114L24.2916 62.2991H23.7129C23.5213 62.2991 23.3175 62.2991 23.1626 62.2923C22.8312 62.2774 22.4983 62.2842 22.1682 62.2489C21.8381 62.2136 21.5066 62.2 21.1792 62.1497C20.8518 62.0994 20.5243 62.0573 20.1997 61.9948C18.8984 61.7554 17.6308 61.3599 16.4243 60.817C13.9928 59.7422 11.8408 58.1233 10.1342 56.0851C8.43253 54.0413 7.22146 51.635 6.59381 49.0506C5.97563 46.4483 5.95658 43.7396 6.53811 41.1289C6.82994 39.8224 7.27786 38.5557 7.8722 37.3562C8.45762 36.1433 9.18353 35.0033 10.035 33.9598C12.6335 30.7539 16.2683 28.5541 20.3138 27.7391C20.9892 27.5996 21.6717 27.4976 22.3584 27.4334L23.4031 27.3682L24.5606 27.3315L26.6623 27.2663L26.5998 25.2923C26.5282 23.0656 26.7645 20.8396 27.3021 18.6775C27.3021 19.0036 27.2872 19.3283 27.2885 19.6543C27.2885 19.312 27.3035 18.9751 27.313 18.6273C27.5117 17.8303 27.7539 17.0448 28.0385 16.2743C29.1177 13.3405 30.7472 10.6398 32.8396 8.31727C34.9888 5.95673 37.565 4.02397 40.4325 2.62088C43.3811 1.19636 46.5691 0.33302 49.8336 0.0749642C46.4726 -0.189317 43.0932 0.24692 39.9095 1.35607C36.6512 2.48123 33.6566 4.25913 31.1088 6.58105C28.5029 8.93473 26.4018 11.7928 24.9328 14.9823C23.7427 17.5848 22.979 20.3619 22.6709 23.2069C22.4915 23.2069 22.3108 23.2069 22.1274 23.2069C21.2727 23.2315 20.4201 23.3036 19.5734 23.423C17.8702 23.6695 16.2018 24.115 14.6024 24.7503C11.3686 26.0332 8.48579 28.0662 6.19168 30.6817C3.86204 33.3075 2.1936 36.452 1.32536 39.8532C0.891031 41.5549 0.652642 43.3006 0.614841 45.0565C0.534824 50.3959 2.35054 55.5908 5.73928 59.7179C7.99401 62.4539 10.857 64.6251 14.0998 66.0582C15.717 66.7735 17.4142 67.2921 19.1549 67.6029C19.5897 67.6844 20.0244 67.7551 20.4632 67.8026C20.902 67.8502 21.3395 67.8963 21.7796 67.9262C22.2198 67.9561 22.6586 67.9616 23.0988 67.9751H23.7061H24.2848L25.7588 67.9629C29.4092 67.9982 33.0597 68.0132 36.7087 67.986C45.2938 67.9371 53.878 67.7243 62.4613 67.3475L62.6556 67.3393C62.6964 67.3393 62.7371 67.3285 62.7779 67.3244C65.3881 67.2501 67.9974 67.1691 70.6058 67.0812L75.2385 66.9114L76.4027 66.8666C76.8212 66.838 77.2396 66.8285 77.6553 66.7796C81.8045 66.3664 85.7396 64.7384 88.9679 62.0994C94.0829 57.9885 96.838 51.4022 96.3055 45.2181Z" fill="#282828"/>
<path d="M40.4447 40.7106C38.7261 33.9015 35.6286 27.0517 37.3988 18.9072C38.3593 14.492 40.1961 10.8212 41.5655 8.52251L44.61 10.6962L46.7837 2.27319L37.9531 5.94127L40.5968 7.82965C39.1228 9.01023 37.354 10.6717 36.1327 12.624C32.4646 18.4793 32.3681 24.5004 32.6385 26.2882C33.2063 30.0528 33.7769 32.5294 37.5292 40.3601C41.0615 47.7112 46.5242 57.7019 47.2619 59.0455C46.6709 57.9546 43.0545 51.0586 40.4447 40.7106Z" fill="#282828"/>
<path d="M40.398 40.5854C40.398 40.5854 38.2379 25.7161 43.7944 19.2562C46.8076 15.7525 50.6496 12.8561 53.0189 11.4622L54.7741 14.9211L60.836 8.40685L50.9376 7.35669L52.4565 10.3604C50.2248 10.7519 48.0617 11.4649 46.0346 12.4771C39.8274 15.6683 38.2556 22.279 37.6768 24.9621C36.8617 28.766 38.8995 41.6722 38.8995 41.6722L40.398 40.5854Z" fill="#282828"/>
<path d="M33.3652 60.4475C33.3652 60.5643 33.3652 60.6268 33.3652 60.6268C33.3652 60.6268 33.368 60.563 33.3652 60.4475Z" fill="#282828"/>
<path d="M128.836 40.3772C128.836 39.327 128.465 38.5208 127.723 37.9586C126.982 37.3965 125.645 36.8036 123.714 36.18C121.787 35.5526 120.262 34.9384 119.139 34.3373C116.075 32.6835 114.543 30.4538 114.543 27.6481C114.524 26.2494 114.956 24.8819 115.775 23.7482C116.596 22.6051 117.775 21.7129 119.314 21.0717C120.959 20.4081 122.72 20.0805 124.494 20.1081C126.418 20.1081 128.135 20.4569 129.643 21.1545C131.071 21.7853 132.29 22.8104 133.155 24.1096C133.993 25.3965 134.428 26.9035 134.405 28.4386H128.855C128.855 27.2039 128.466 26.2439 127.688 25.5588C126.91 24.8737 125.816 24.5305 124.407 24.5293C123.048 24.5293 121.992 24.8166 121.239 25.3913C120.881 25.6494 120.591 25.991 120.394 26.3865C120.197 26.7821 120.1 27.2196 120.11 27.6612C120.11 28.5396 120.549 29.2743 121.428 29.8653C122.306 30.4563 123.606 31.0121 125.329 31.5329C128.49 32.4853 130.793 33.6654 132.239 35.0732C133.684 36.4811 134.407 38.2347 134.407 40.3339C134.407 42.6691 133.524 44.5005 131.757 45.828C129.99 47.1556 127.612 47.8194 124.623 47.8194C122.675 47.8475 120.743 47.4626 118.954 46.6901C117.255 45.9272 115.956 44.8838 115.056 43.56C114.149 42.2018 113.68 40.5984 113.712 38.9656H119.289C119.289 41.9407 121.068 43.4289 124.625 43.4301C125.948 43.4301 126.979 43.1616 127.72 42.6246C128.079 42.3733 128.369 42.0358 128.564 41.6432C128.759 41.2506 128.853 40.8153 128.836 40.3772Z" fill="#282828"/>
<path d="M146.622 36.6354L143.733 39.7466V47.4636H138.173V20.4788H143.733V32.7129L146.18 29.3589L153.053 20.4844H159.889L150.309 32.472L160.166 47.4598H153.552L146.622 36.6354Z" fill="#282828"/>
<path d="M171.561 32.632L177.168 20.4788H183.246L174.388 37.6725V47.4598H168.742V37.6725L159.89 20.4788H165.984L171.561 32.632Z" fill="#282828"/>
<path d="M206.342 24.9809H198.08V47.4541H192.518V24.9809H184.364V20.4788H206.342V24.9809Z" fill="#282828"/>
<path d="M219.495 37.5802H215.066V47.4542H209.508V20.4788H219.53C222.716 20.4788 225.174 21.189 226.905 22.6094C228.635 24.0298 229.5 26.0375 229.498 28.6324C229.498 30.4731 229.1 32.0077 228.303 33.2362C227.506 34.4646 226.299 35.4433 224.682 36.1724L230.517 47.1982V47.456H224.55L219.495 37.5802ZM215.066 33.0762H219.549C220.946 33.0762 222.027 32.7211 222.792 32.0109C223.558 31.3007 223.94 30.3219 223.94 29.0747C223.94 27.8023 223.579 26.8016 222.856 26.0726C222.133 25.3436 221.025 24.9797 219.53 24.9809H215.066V33.0762Z" fill="#282828"/>
<path d="M248.952 41.8961H239.208L237.354 47.4541H231.444L241.486 20.4788H246.637L256.735 47.4541H250.825L248.952 41.8961ZM240.708 37.3939H247.452L244.064 27.296L240.708 37.3939Z" fill="#282828"/>
<path d="M259.256 47.4541V20.4788H267.556C269.928 20.4788 272.049 21.0127 273.92 22.0805C275.789 23.1469 277.31 24.7297 278.302 26.6391C279.352 28.6104 279.877 30.8489 279.877 33.3548V34.597C279.877 37.1066 279.361 39.3357 278.33 41.2844C277.344 43.1854 275.829 44.7603 273.967 45.8185C272.028 46.9096 269.836 47.4717 267.611 47.4485L259.256 47.4541ZM264.814 24.9809V42.9953H267.5C269.674 42.9953 271.336 42.2851 272.484 40.8646C273.632 39.4442 274.219 37.4121 274.244 34.7683V33.3416C274.244 30.5999 273.679 28.5219 272.55 27.1078C271.42 25.6937 269.759 24.9866 267.566 24.9866L264.814 24.9809Z" fill="#282828"/>
<path d="M300.146 35.7639H289.474V42.9953H302V47.4598H283.916V20.4788H301.957V24.9809H289.468V31.4105H300.14L300.146 35.7639Z" fill="#282828"/>
</svg>
