<svg width="77" height="94" viewBox="0 0 77 94" fill="none" xmlns="http://www.w3.org/2000/svg">
<path d="M18.9004 92.2451C17.0547 91.0088 15.4053 89.4971 14.0488 87.7451C12.5371 85.9434 11.166 84.0361 9.88281 82.0674C6.8916 77.6875 4.55664 72.9121 2.9248 67.8613C0.970703 62.0019 0.0244141 56.3857 0.0244141 50.8926C0.0244141 44.7578 1.35156 39.4023 3.94727 34.9023C5.85449 31.3926 8.70801 28.4482 12.1416 26.3887C15.4668 24.3145 19.3281 23.1836 23.2334 23.1074C24.6074 23.1074 26.0869 23.3066 27.6572 23.6875C28.7852 24.0068 30.1592 24.5107 31.8379 25.1377C33.9736 25.9609 35.1484 26.4648 35.5469 26.5879C36.7978 27.0449 37.8496 27.2441 38.6758 27.2441C39.3027 27.2441 40.1875 27.0449 41.1924 26.7402C41.7578 26.541 42.8242 26.1895 44.3506 25.5361C45.8623 24.9854 47.0518 24.5137 47.998 24.1621C49.4482 23.7344 50.8516 23.3389 52.1025 23.1396C53.6289 22.9111 55.1377 22.835 56.5879 22.9551C59.3652 23.1396 61.8994 23.7344 64.1728 24.5869C68.1543 26.1895 71.374 28.6914 73.7705 32.248C72.748 32.875 71.8164 33.5898 70.9316 34.3984C69.0244 36.0771 67.4219 38.0606 66.124 40.2725C64.4453 43.2783 63.5898 46.6826 63.6074 50.1133C63.6689 54.3408 64.7529 58.0645 66.8887 61.2842C68.415 63.6338 70.4277 65.6318 72.8857 67.2812C74.1074 68.1045 75.1592 68.6699 76.167 69.0508C75.6953 70.5156 75.1914 71.9336 74.5967 73.3398C73.2373 76.498 71.6201 79.5186 69.7129 82.3721C68.0195 84.8301 66.6924 86.6611 65.6846 87.8799C64.1143 89.7402 62.6025 91.1611 61.0762 92.1514C59.3975 93.2646 57.4141 93.8594 55.3984 93.8594C54.0244 93.9209 52.668 93.7363 51.3555 93.3701C50.2275 92.9893 49.1113 92.5762 48.0127 92.1045C46.8672 91.5859 45.6924 91.1289 44.4883 90.7773C42.9941 90.3818 41.4678 90.1973 39.9414 90.1973C38.3711 90.1973 36.8447 90.3965 35.4092 90.7627C34.1875 91.1143 33.0127 91.5244 31.8525 92.0283C30.2207 92.7139 29.1367 93.1738 28.5098 93.3701C27.2588 93.7363 25.9609 93.9648 24.6484 94.041C22.6182 94.041 20.7256 93.4609 18.8506 92.2861L18.9004 92.2451ZM45.6777 20.1309C43.0234 21.458 40.4893 22.0234 37.9727 21.8389C37.5771 19.3047 37.9727 16.7119 39.0244 13.873C39.9561 11.4473 41.207 9.26465 42.9297 7.31055C44.7139 5.28027 46.8672 3.60156 49.293 2.39746C51.8711 1.07031 54.3291 0.352539 56.6787 0.24707C56.9834 2.90137 56.6787 5.51172 55.7031 8.33301C54.8037 10.835 53.4766 13.1406 51.7979 15.2002C50.0898 17.2305 47.9834 18.9092 45.6016 20.1279L45.6777 20.1309Z" fill="#005FD2"/>
</svg>
