<svg width="508" height="68" viewBox="0 0 508 68" fill="none" xmlns="http://www.w3.org/2000/svg">
<g clip-path="url(#clip0_364_265)">
<path d="M44.85 33.64L56.07 44.88L44.85 56.1L33.64 67.31L22.43 56.1L11.21 44.88L0 33.64L22.43 11.21L33.64 0L44.85 11.21L56.07 22.43L44.85 33.64L33.64 22.43L22.43 33.64L33.64 44.88L44.85 33.64Z" fill="#005FD2"/>
<path d="M67.2645 11.2257L56.0498 22.4404L67.2645 33.6551L78.4792 22.4404L67.2645 11.2257Z" fill="#282828"/>
<path d="M91.7305 17.48H106.43C117.01 17.48 124.27 23.86 124.27 33.65C124.27 43.44 117.01 49.82 106.43 49.82H91.7305V17.48ZM106.05 43.68C112.47 43.68 116.68 39.85 116.68 33.65C116.68 27.45 112.48 23.62 106.05 23.62H99.2105V43.67H106.05V43.68Z" fill="#005FD2"/>
<path d="M129.881 17.48H137.371V49.83H129.881V17.48Z" fill="#005FD2"/>
<path d="M166.89 33.1499H173.73V46.2699C170.17 48.9499 165.27 50.3799 160.65 50.3799C150.48 50.3799 143 43.3999 143 33.6499C143 23.8999 150.49 16.9199 160.79 16.9199C166.47 16.9199 171.19 18.8599 174.33 22.5099L169.52 26.9499C167.16 24.4499 164.44 23.2999 161.16 23.2999C154.87 23.2999 150.58 27.5099 150.58 33.6499C150.58 39.7899 154.88 43.9999 161.07 43.9999C163.1 43.9999 165 43.6299 166.89 42.6099V33.1399V33.1499Z" fill="#005FD2"/>
<path d="M180.65 17.48H188.14V49.83H180.65V17.48Z" fill="#005FD2"/>
<path d="M202.5 23.58H192.15V17.48H220.34V23.58H209.99V49.83H202.5V23.58Z" fill="#005FD2"/>
<path d="M244.04 42.9H229.02L226.16 49.83H218.49L232.91 17.48H240.3L254.77 49.83H246.91L244.04 42.9ZM241.68 37.21L236.55 24.83L231.42 37.21H241.68Z" fill="#005FD2"/>
<path d="M258.59 17.48H266.07V43.73H282.29V49.83H258.58V17.48H258.59Z" fill="#005FD2"/>
<path d="M287.3 45.9L288.64 43.27C290.95 45.53 295.06 47.2 299.31 47.2C305.36 47.2 308 44.66 308 41.47C308 32.6 288.08 38.05 288.08 26.08C288.08 21.32 291.78 17.21 300 17.21C303.65 17.21 307.44 18.27 310.03 20.07L308.87 22.8C306.1 21 302.86 20.12 300 20.12C294.08 20.12 291.45 22.75 291.45 25.99C291.45 34.86 311.37 29.5 311.37 41.28C311.37 46.04 307.58 50.11 299.31 50.11C294.46 50.11 289.7 48.4 287.29 45.91L287.3 45.9Z" fill="#282828"/>
<path d="M344.131 28.57C344.131 35.45 339.141 39.61 330.911 39.61H322.221V49.82H318.801V17.48H330.911C339.141 17.48 344.131 21.64 344.131 28.57ZM340.711 28.57C340.711 23.4 337.291 20.44 330.821 20.44H322.231V36.61H330.821C337.291 36.61 340.711 33.65 340.711 28.57Z" fill="#282828"/>
<path d="M374.391 46.87V49.83H351.511V17.48H373.691V20.44H354.931V31.95H371.661V34.86H354.931V46.88H374.391V46.87Z" fill="#282828"/>
<path d="M379.37 33.65C379.37 24.18 386.58 17.2 396.33 17.2C401.04 17.2 405.3 18.77 408.16 21.91L405.99 24.08C403.35 21.4 400.12 20.24 396.42 20.24C388.61 20.24 382.74 25.9699 382.74 33.6399C382.74 41.3099 388.61 47.04 396.42 47.04C400.12 47.04 403.35 45.8799 405.99 43.16L408.16 45.33C405.3 48.47 401.04 50.09 396.28 50.09C386.58 50.09 379.37 43.11 379.37 33.6399V33.65Z" fill="#282828"/>
<path d="M423.681 20.44H412.311V17.48H438.461V20.44H427.091V49.83H423.671V20.44H423.681Z" fill="#282828"/>
<path d="M466 49.83L458.61 39.43C457.78 39.52 456.95 39.57 456.02 39.57H447.33V49.83H443.91V17.48H456.02C464.25 17.48 469.24 21.64 469.24 28.57C469.24 33.65 466.56 37.21 461.84 38.74L469.74 49.83H465.99H466ZM465.81 28.57C465.81 23.4 462.39 20.44 455.92 20.44H447.33V36.66H455.92C462.39 36.66 465.81 33.66 465.81 28.57Z" fill="#282828"/>
<path d="M473.98 33.65C473.98 24.22 481.19 17.2 490.99 17.2C500.79 17.2 507.95 24.18 507.95 33.65C507.95 43.12 500.7 50.0999 490.99 50.0999C481.28 50.0999 473.98 43.08 473.98 33.65ZM504.53 33.65C504.53 25.93 498.76 20.25 490.99 20.25C483.22 20.25 477.36 25.93 477.36 33.65C477.36 41.37 483.18 47.0499 490.99 47.0499C498.8 47.0499 504.53 41.36 504.53 33.65Z" fill="#282828"/>
</g>
<defs>
<clipPath id="clip0_364_265">
<rect width="507.95" height="67.31" fill="white"/>
</clipPath>
</defs>
</svg>
