<svg width="302" height="68" viewBox="0 0 302 68" fill="none" xmlns="http://www.w3.org/2000/svg">
<path d="M26.6785 19.6542C26.672 17.4897 26.8141 15.3272 27.1038 13.1821C25.0954 16.8951 24.1038 21.0728 24.2291 25.2922C24.2309 25.3641 24.2042 25.4337 24.1548 25.4859C24.1054 25.5381 24.0373 25.5686 23.9655 25.5707H23.9506C19.6752 25.5069 15.4936 26.7934 12.1407 29.2279C10.4871 30.4482 9.03884 31.9245 7.85043 33.6011C6.67401 35.2442 5.78766 37.0767 5.22979 39.019L5.01106 39.7336L4.8657 40.4672C4.78011 40.9576 4.63747 41.4345 4.61437 41.9331C4.5709 42.4276 4.51248 42.918 4.47852 43.4084L4.48667 44.8865C4.57504 46.834 4.95419 48.7572 5.61154 50.5924C6.99998 54.1844 9.44808 57.3159 12.6067 59.3591C14.169 60.3779 15.8728 61.1611 17.6632 61.6836L19.0218 61.9906C19.4714 62.0966 19.9374 62.1265 20.3925 62.1958C20.6221 62.2216 20.849 62.2732 21.0813 62.28L21.7755 62.3004C22.2497 62.3113 22.6586 62.3493 23.2305 62.3289C27.5217 62.2773 31.8134 62.2646 36.1055 62.2909C40.9709 62.3199 45.8363 62.4041 50.7017 62.5436C49.4274 61.776 48.187 60.9582 46.9942 60.0819C42.7368 56.9439 39.0113 53.1423 35.9601 48.8223C29.9128 40.3027 26.6688 30.1114 26.6785 19.6638V19.6515V19.6542Z" fill="url(#paint0_linear_219_875)"/>
<path d="M85.7944 33.1488C89.584 34.7411 92.7765 37.4854 94.9198 40.993C94.2326 37.9412 92.8261 35.0978 90.8175 32.6997C88.8088 30.3015 86.2561 28.4182 83.3721 27.2065C73.3515 22.9814 61.7943 27.6602 57.5597 37.6564C56.3397 40.5321 55.8255 43.6581 56.0602 46.7731C56.2949 49.888 57.2716 52.9016 58.9087 55.5621C57.9979 51.5611 58.372 47.3748 59.9779 43.5987C64.218 33.6025 75.7738 28.9237 85.7944 33.1488Z" fill="#282828"/>
<path d="M95.6931 45.2181C95.4537 48.2644 94.5336 51.218 93.0005 53.8612C91.4956 56.4151 89.4394 58.6007 86.9821 60.2586C84.5728 61.8547 81.8317 62.8814 78.9667 63.261C78.2622 63.3547 77.5527 63.4064 76.8419 63.4159C76.4887 63.4267 76.1328 63.4077 75.7809 63.4077L74.6289 63.367L69.9962 63.1958C67.3996 63.1052 64.8034 63.0246 62.2077 62.954C57.4186 61.9214 52.8244 60.1329 48.5978 57.6556C44.2386 55.0938 40.3387 51.8207 37.0596 47.9719C30.3507 40.0662 26.6713 30.0326 26.679 19.6639C26.669 30.1102 29.9121 40.3005 35.9578 48.8196C39.009 53.1396 42.7346 56.9413 46.992 60.0793C48.1848 60.9555 49.4251 61.7734 50.6994 62.541C45.834 62.406 40.9686 62.3218 36.1032 62.2883C32.4528 62.2611 28.8024 62.276 25.152 62.3114L23.6793 62.2991H23.1006C22.909 62.2991 22.7052 62.2991 22.5503 62.2923C22.2189 62.2774 21.886 62.2842 21.5559 62.2489C21.2258 62.2136 20.8943 62.2 20.5669 62.1497C20.2394 62.0994 19.912 62.0573 19.5873 61.9948C18.2861 61.7554 17.0185 61.3599 15.8119 60.817C13.3805 59.7422 11.2285 58.1233 9.52188 56.0851C7.82022 54.0413 6.60915 51.635 5.9815 49.0506C5.36332 46.4483 5.34428 43.7396 5.9258 41.1289C6.21764 39.8224 6.66555 38.5557 7.2599 37.3562C7.84531 36.1433 8.57122 35.0033 9.4227 33.9598C12.0212 30.7539 15.656 28.5541 19.7015 27.7391C20.3769 27.5996 21.0594 27.4976 21.7461 27.4334L22.7908 27.3682L23.9483 27.3315L26.05 27.2663L25.9875 25.2923C25.9158 23.0656 26.1522 20.8396 26.6898 18.6775C26.6898 19.0036 26.6749 19.3283 26.6762 19.6543C26.6762 19.312 26.6912 18.9751 26.7007 18.6273C26.8994 17.8303 27.1416 17.0448 27.4262 16.2743C28.5054 13.3405 30.1349 10.6398 32.2273 8.31727C34.3764 5.95673 36.9527 4.02397 39.8202 2.62088C42.7688 1.19636 45.9568 0.33302 49.2213 0.0749642C45.8603 -0.189317 42.4809 0.24692 39.2971 1.35607C36.0388 2.48123 33.0443 4.25913 30.4965 6.58105C27.8906 8.93473 25.7895 11.7928 24.3205 14.9823C23.1304 17.5848 22.3667 20.3619 22.0585 23.2069C21.8792 23.2069 21.6985 23.2069 21.5151 23.2069C20.6604 23.2315 19.8077 23.3036 18.9611 23.423C17.2579 23.6695 15.5895 24.115 13.9901 24.7503C10.7562 26.0332 7.87349 28.0662 5.57937 30.6817C3.24974 33.3075 1.5813 36.452 0.713058 39.8532C0.278726 41.5549 0.0403372 43.3006 0.00253612 45.0565C-0.0774808 50.3959 1.73823 55.5908 5.12698 59.7179C7.3817 62.4539 10.2447 64.6251 13.4875 66.0582C15.1047 66.7735 16.8018 67.2921 18.5426 67.6029C18.9774 67.6844 19.4121 67.7551 19.8509 67.8026C20.2897 67.8502 20.7272 67.8963 21.1673 67.9262C21.6075 67.9561 22.0463 67.9616 22.4865 67.9751H23.0938H23.6725L25.1465 67.9629C28.7969 67.9982 32.4474 68.0132 36.0964 67.986C44.6815 67.9371 53.2657 67.7243 61.849 67.3475L62.0433 67.3393C62.0841 67.3393 62.1248 67.3285 62.1656 67.3244C64.7758 67.2501 67.3851 67.1691 69.9935 67.0812L74.6262 66.9114L75.7904 66.8666C76.2089 66.838 76.6273 66.8285 77.043 66.7796C81.1922 66.3664 85.1273 64.7384 88.3556 62.0994C93.4706 57.9885 96.2257 51.4022 95.6931 45.2181Z" fill="#282828"/>
<path d="M39.8324 40.7106C38.1138 33.9015 35.0163 27.0517 36.7865 18.9072C37.747 14.492 39.5838 10.8212 40.9532 8.52251L43.9977 10.6962L46.1714 2.27319L37.3408 5.94127L39.9845 7.82965C38.5105 9.01023 36.7417 10.6717 35.5204 12.624C31.8523 18.4793 31.7558 24.5004 32.0262 26.2882C32.594 30.0528 33.1646 32.5294 36.9169 40.3601C40.4492 47.7112 45.9119 57.7019 46.6496 59.0455C46.0586 57.9546 42.4421 51.0586 39.8324 40.7106Z" fill="#282828"/>
<path d="M39.7857 40.5854C39.7857 40.5854 37.6256 25.7161 43.1821 19.2562C46.1953 15.7525 50.0373 12.8561 52.4066 11.4622L54.1618 14.9211L60.2237 8.40685L50.3253 7.35669L51.8442 10.3604C49.6125 10.7519 47.4494 11.4649 45.4223 12.4771C39.2151 15.6683 37.6433 22.279 37.0645 24.9621C36.2494 28.766 38.2872 41.6722 38.2872 41.6722L39.7857 40.5854Z" fill="#282828"/>
<path d="M32.7529 60.4475C32.7529 60.5643 32.7529 60.6268 32.7529 60.6268C32.7529 60.6268 32.7556 60.563 32.7529 60.4475Z" fill="#282828"/>
<path d="M128.223 40.3772C128.223 39.327 127.853 38.5208 127.111 37.9586C126.37 37.3965 125.033 36.8036 123.102 36.18C121.175 35.5526 119.65 34.9384 118.526 34.3373C115.462 32.6835 113.93 30.4538 113.93 27.6481C113.911 26.2494 114.344 24.8819 115.163 23.7482C115.984 22.6051 117.163 21.7129 118.702 21.0717C120.347 20.4081 122.108 20.0805 123.881 20.1081C125.806 20.1081 127.523 20.4569 129.031 21.1545C130.459 21.7853 131.677 22.8104 132.543 24.1096C133.38 25.3965 133.815 26.9035 133.793 28.4386H128.242C128.242 27.2039 127.853 26.2439 127.075 25.5588C126.297 24.8737 125.204 24.5305 123.795 24.5293C122.436 24.5293 121.38 24.8166 120.627 25.3913C120.268 25.6494 119.978 25.991 119.781 26.3865C119.585 26.7821 119.487 27.2196 119.498 27.6612C119.498 28.5396 119.937 29.2743 120.815 29.8653C121.694 30.4563 122.994 31.0121 124.717 31.5329C127.878 32.4853 130.181 33.6654 131.626 35.0732C133.072 36.4811 133.795 38.2347 133.795 40.3339C133.795 42.6691 132.911 44.5005 131.145 45.828C129.378 47.1556 127 47.8194 124.011 47.8194C122.063 47.8475 120.131 47.4626 118.342 46.6901C116.643 45.9272 115.344 44.8838 114.444 43.56C113.537 42.2018 113.068 40.5984 113.1 38.9656H118.677C118.677 41.9407 120.456 43.4289 124.013 43.4301C125.336 43.4301 126.367 43.1616 127.107 42.6246C127.467 42.3733 127.757 42.0358 127.952 41.6432C128.147 41.2506 128.24 40.8153 128.223 40.3772Z" fill="#282828"/>
<path d="M146.01 36.6354L143.12 39.7466V47.4636H137.561V20.4788H143.12V32.7129L145.567 29.3589L152.441 20.4844H159.277L149.697 32.472L159.554 47.4598H152.94L146.01 36.6354Z" fill="#282828"/>
<path d="M170.949 32.632L176.556 20.4788H182.633L173.776 37.6725V47.4598H168.129V37.6725L159.277 20.4788H165.372L170.949 32.632Z" fill="#282828"/>
<path d="M205.73 24.9809H197.467V47.4541H191.906V24.9809H183.752V20.4788H205.73V24.9809Z" fill="#282828"/>
<path d="M218.882 37.5802H214.454V47.4542H208.896V20.4788H218.918C222.104 20.4788 224.562 21.189 226.292 22.6094C228.023 24.0298 228.887 26.0375 228.886 28.6324C228.886 30.4731 228.488 32.0077 227.691 33.2362C226.894 34.4646 225.687 35.4433 224.07 36.1724L229.904 47.1982V47.456H223.938L218.882 37.5802ZM214.454 33.0762H218.937C220.334 33.0762 221.415 32.7211 222.18 32.0109C222.945 31.3007 223.328 30.3219 223.328 29.0747C223.328 27.8023 222.967 26.8016 222.244 26.0726C221.521 25.3436 220.413 24.9797 218.918 24.9809H214.454V33.0762Z" fill="#282828"/>
<path d="M248.34 41.8961H238.596L236.742 47.4541H230.832L240.873 20.4788H246.025L256.123 47.4541H250.213L248.34 41.8961ZM240.096 37.3939H246.84L243.452 27.296L240.096 37.3939Z" fill="#282828"/>
<path d="M258.644 47.4541V20.4788H266.944C269.316 20.4788 271.437 21.0127 273.308 22.0805C275.176 23.1469 276.698 24.7297 277.689 26.6391C278.74 28.6104 279.265 30.8489 279.265 33.3548V34.597C279.265 37.1066 278.749 39.3357 277.718 41.2844C276.732 43.1854 275.216 44.7603 273.355 45.8185C271.415 46.9096 269.224 47.4717 266.999 47.4485L258.644 47.4541ZM264.202 24.9809V42.9953H266.887C269.062 42.9953 270.723 42.2851 271.872 40.8646C273.02 39.4442 273.606 37.4121 273.631 34.7683V33.3416C273.631 30.5999 273.067 28.5219 271.937 27.1078C270.808 25.6937 269.147 24.9866 266.953 24.9866L264.202 24.9809Z" fill="#282828"/>
<path d="M299.534 35.7639H288.862V42.9953H301.388V47.4598H283.304V20.4788H301.344V24.9809H288.856V31.4105H299.528L299.534 35.7639Z" fill="#282828"/>
<defs>
<linearGradient id="paint0_linear_219_875" x1="27.5901" y1="13.1821" x2="27.5901" y2="62.5436" gradientUnits="userSpaceOnUse">
<stop stop-color="#005FD2"/>
<stop offset="1" stop-color="#282828"/>
</linearGradient>
</defs>
</svg>
