<svg width="214" height="163" viewBox="0 0 214 163" fill="none" xmlns="http://www.w3.org/2000/svg">
<g clip-path="url(#clip0_219_444)">
<path d="M0 32.7734H213.394" stroke="#AFA9F7" stroke-width="0.5"/>
<path d="M53.0674 162.653V0.520264" stroke="#AFA9F7" stroke-width="0.5"/>
<path d="M106.308 162.653V0.520264" stroke="#AFA9F7" stroke-width="0.5"/>
<path d="M159.548 162.653V0.520264" stroke="#AFA9F7" stroke-width="0.5"/>
<path d="M0 65.2H213.394" stroke="#AFA9F7" stroke-width="0.5"/>
<path d="M0 97.6267H213.394" stroke="#AFA9F7" stroke-width="0.5"/>
<path d="M0 130.053H213.394" stroke="#AFA9F7" stroke-width="0.5"/>
<path d="M23.8062 160.486H17.3135V162.22H23.8062V160.486Z" fill="#2DBFA6"/>
<path d="M32.4634 146.613H25.9707V160.486H32.4634V146.613Z" fill="#2DBFA6"/>
<path d="M40.2547 136.209H35.0605V146.613H40.2547V136.209Z" fill="#2DBFA6"/>
<path d="M49.3443 118.869H42.8516V136.209H49.3443V118.869Z" fill="#2DBFA6"/>
<path d="M58.0015 118.869H51.5088V117.568H58.0015V118.869Z" fill="#2DBFA6"/>
<path d="M67.0914 117.568H60.5986V99.3607H67.0914V117.568Z" fill="#2DBFA6"/>
<path d="M75.3157 99.3606H69.2559V79.4191H75.3157V99.3606Z" fill="#2DBFA6"/>
<path d="M83.5401 79.4192H77.9131V57.3101H83.5401V79.4192Z" fill="#2DBFA6"/>
<path d="M92.6294 57.3101H86.1367V49.5069H92.6294V57.3101Z" fill="#2DBFA6"/>
<path d="M89.5998 65.5469H89.167V0.520279H89.5998V65.5469Z" fill="#2DBFA6"/>
<path d="M115.138 48.6399H114.705V33.9005H115.138V48.6399Z" fill="#2DBFA6"/>
<path d="M167.079 95.8926H166.646V81.1532H167.079V95.8926Z" fill="#2DBFA6"/>
<path d="M100.854 56.4431H94.7939V52.5415H100.854V56.4431Z" fill="#FD6A76"/>
<path d="M109.078 52.5415H103.884V48.6399H109.078V52.5415Z" fill="#2DBFA6"/>
<path d="M118.168 48.6399H111.675V44.7383H118.168V48.6399Z" fill="#2DBFA6"/>
<path d="M126.825 36.5017H120.332V44.7384H126.825V36.5017Z" fill="#2DBFA6"/>
<path d="M135.049 37.8022H129.422V46.0389H135.049V37.8022Z" fill="#FD6A76"/>
<path d="M143.705 46.0388H137.646V58.6106H143.705V46.0388Z" fill="#FD6A76"/>
<path d="M152.363 58.6106H145.87V71.1824H152.363V58.6106Z" fill="#FD6A76"/>
<path d="M161.453 71.1824H154.96V85.9217H161.453V71.1824Z" fill="#FD6A76"/>
<path d="M170.109 0.520264H163.616V85.9219H170.109V0.520264Z" fill="#2DBFA6"/>
<path d="M177.9 1.38721H172.706V6.15582H177.9V1.38721Z" fill="#FD6A76"/>
<path d="M186.991 4.85522H180.498V6.15576H186.991V4.85522Z" fill="#2DBFA6"/>
<path d="M195.647 4.85522H189.154V6.15576H195.647V4.85522Z" fill="#2DBFA6"/>
</g>
<defs>
<clipPath id="clip0_219_444">
<rect width="214" height="163" fill="white"/>
</clipPath>
</defs>
</svg>
