<svg width="190" height="28" viewBox="0 0 190 28" fill="none" xmlns="http://www.w3.org/2000/svg">
<path d="M15.2623 20.4797C15.2623 19.4186 14.8881 18.6041 14.1398 18.0362C13.3915 17.4682 12.043 16.8692 10.0943 16.2392C8.14947 15.6053 6.61042 14.9848 5.47718 14.3775C2.38515 12.7067 0.839133 10.454 0.839133 7.61934C0.820158 6.20627 1.25638 4.82466 2.08316 3.67927C2.91125 2.52437 4.10146 1.62303 5.65381 0.975228C7.31376 0.304812 9.09093 -0.0262228 10.8806 0.00162138C12.823 0.00162138 14.5551 0.354047 16.0771 1.0589C17.5181 1.69611 18.7476 2.73182 19.6211 4.04437C20.4659 5.34456 20.9049 6.8671 20.8822 8.418H15.2813C15.2813 7.17056 14.8888 6.20076 14.1037 5.50858C13.3187 4.81641 12.2152 4.46969 10.7933 4.46843C9.42198 4.46843 8.35649 4.75873 7.59678 5.33934C7.23498 5.60009 6.94211 5.94521 6.74355 6.34481C6.54498 6.74441 6.4467 7.18645 6.45721 7.63265C6.45721 8.52006 6.90037 9.2623 7.78671 9.85939C8.67304 10.4565 9.98544 11.0181 11.7239 11.5442C14.9134 12.5064 17.2375 13.6987 18.6962 15.1211C20.1548 16.5434 20.8841 18.3151 20.8841 20.436C20.8841 22.7952 19.9928 24.6454 18.21 25.9867C16.4272 27.3279 14.0277 27.9985 11.0117 27.9985C9.04573 28.027 7.09606 27.6381 5.29105 26.8576C3.57663 26.0868 2.26549 25.0327 1.35764 23.6953C0.442524 22.3231 -0.0307404 20.7032 0.00154879 19.0535H5.62912C5.62912 22.0593 7.42394 23.5628 11.0136 23.5641C12.3481 23.5641 13.389 23.2928 14.136 22.7502C14.4985 22.4963 14.7915 22.1554 14.9883 21.7587C15.185 21.3621 15.2793 20.9223 15.2623 20.4797Z" fill="#005FD2"/>
<path d="M33.2104 16.6991L30.295 19.8424V27.6389H24.6846V0.375977H30.295V12.7362L32.7641 9.34762L39.7003 0.381687H46.5985L36.9311 12.4928L46.8777 27.6351H40.2036L33.2104 16.6991Z" fill="#005FD2"/>
<path d="M58.3761 12.6545L64.034 0.375977H70.1668L61.2288 17.7469V27.6351H55.531V17.7469L46.5986 0.375977H52.7485L58.3761 12.6545Z" fill="#005FD2"/>
<path d="M93.4728 4.92455H85.135V27.6294H79.5226V4.92455H71.2949V0.375977H93.4728V4.92455Z" fill="#005FD2"/>
<path d="M106.745 17.6537H102.276V27.6294H96.667V0.375977H106.781C109.996 0.375977 112.476 1.09351 114.222 2.52856C115.968 3.96362 116.841 5.99197 116.839 8.61361C116.839 10.4734 116.437 12.0238 115.633 13.2649C114.829 14.506 113.611 15.4948 111.979 16.2313L117.867 27.3708V27.6313H111.846L106.745 17.6537ZM102.276 13.1032H106.8C108.209 13.1032 109.3 12.7445 110.072 12.0269C110.845 11.3094 111.231 10.3206 111.231 9.06048C111.231 7.77501 110.866 6.76402 110.137 6.02747C109.407 5.29093 108.289 4.92328 106.781 4.92455H102.276V13.1032Z" fill="#005FD2"/>
<path d="M136.471 22.014H126.638L124.767 27.6294H118.804L128.936 0.375977H134.135L144.324 27.6294H138.361L136.471 22.014ZM128.152 17.4655H134.957L131.538 7.2635L128.152 17.4655Z" fill="#005FD2"/>
<path d="M146.867 27.6294V0.375977H155.243C157.636 0.375977 159.777 0.915393 161.664 1.99422C163.55 3.07165 165.085 4.67077 166.086 6.59984C167.146 8.59142 167.676 10.853 167.676 13.3847V14.6397C167.676 17.1751 167.155 19.4272 166.115 21.396C165.12 23.3167 163.591 24.9077 161.712 25.9769C159.755 27.0793 157.543 27.6472 155.298 27.6237L146.867 27.6294ZM152.476 4.92455V23.1246H155.186C157.38 23.1246 159.057 22.407 160.215 20.972C161.374 19.5369 161.966 17.4838 161.991 14.8128V13.3714C161.991 10.6014 161.421 8.50206 160.282 7.07334C159.142 5.64462 157.466 4.93026 155.253 4.93026L152.476 4.92455Z" fill="#005FD2"/>
<path d="M188.129 15.8187H177.361V23.1246H190V27.6351H171.752V0.375977H189.957V4.92455H177.355V11.4203H188.124L188.129 15.8187Z" fill="#005FD2"/>
</svg>
