<svg width="65" height="65" viewBox="0 0 65 65" fill="none" xmlns="http://www.w3.org/2000/svg">
<rect x="0.5" y="0.5" width="64" height="64" rx="32" stroke="#005FD2"/>
<path d="M24.1667 22.0833C24.1667 20.9327 25.0994 20 26.25 20L42.9167 20C44.0673 20 45 20.9327 45 22.0833V38.75C45 39.9006 44.0673 40.8333 42.9167 40.8333C41.7661 40.8333 40.8333 39.9006 40.8333 38.75V27.1129L23.5565 44.3898C22.7429 45.2034 21.4238 45.2034 20.6102 44.3898C19.7966 43.5762 19.7966 42.2571 20.6102 41.4435L37.8871 24.1667L26.25 24.1667C25.0994 24.1667 24.1667 23.2339 24.1667 22.0833Z" fill="#005FD2"/>
</svg>
