<svg width="377" height="50" viewBox="0 0 377 50" fill="none" xmlns="http://www.w3.org/2000/svg">
<path d="M33.2832 24.9643L41.6096 33.3055L33.2832 41.6318L24.9643 49.9508L16.6453 41.6318L8.31895 33.3055L0 24.9643L16.6453 8.31895L24.9643 0L33.2832 8.31895L41.6096 16.6453L33.2832 24.9643L24.9643 16.6453L16.6453 24.9643L24.9643 33.3055L33.2832 24.9643Z" fill="#005FD2"/>
<path d="M49.9172 8.33063L41.5947 16.6531L49.9172 24.9755L58.2396 16.6531L49.9172 8.33063Z" fill="#282828"/>
<path d="M68.0732 12.9719H78.9821C86.8335 12.9719 92.2212 17.7065 92.2212 24.9717C92.2212 32.2369 86.8335 36.9715 78.9821 36.9715H68.0732V12.9719ZM78.7001 32.415C83.4644 32.415 86.5886 29.5727 86.5886 24.9717C86.5886 20.3707 83.4718 17.5284 78.7001 17.5284H73.6242V32.4075H78.7001V32.415Z" fill="#005FD2"/>
<path d="M96.3848 12.9719H101.943V36.9789H96.3848V12.9719Z" fill="#005FD2"/>
<path d="M123.849 24.6007H128.925V34.3371C126.283 36.3259 122.647 37.3871 119.218 37.3871C111.671 37.3871 106.12 32.2072 106.12 24.9717C106.12 17.7363 111.678 12.5564 119.322 12.5564C123.537 12.5564 127.04 13.9961 129.37 16.7047L125.801 19.9997C124.049 18.1444 122.031 17.291 119.597 17.291C114.929 17.291 111.745 20.4152 111.745 24.9717C111.745 29.5282 114.936 32.6525 119.53 32.6525C121.036 32.6525 122.446 32.3779 123.849 31.621V24.5933V24.6007Z" fill="#005FD2"/>
<path d="M134.061 12.9719H139.619V36.9789H134.061V12.9719Z" fill="#005FD2"/>
<path d="M150.275 17.4987H142.595V12.9719H163.515V17.4987H155.834V36.9789H150.275V17.4987Z" fill="#005FD2"/>
<path d="M181.102 31.8361H169.956L167.834 36.9789H162.142L172.843 12.9719H178.327L189.065 36.9789H183.232L181.102 31.8361ZM179.351 27.6136L175.544 18.4264L171.737 27.6136H179.351Z" fill="#005FD2"/>
<path d="M191.9 12.9719H197.451V32.4521H209.488V36.9789H191.893V12.9719H191.9Z" fill="#005FD2"/>
<path d="M213.206 34.0624L214.2 32.1106C215.914 33.7878 218.964 35.0271 222.118 35.0271C226.608 35.0271 228.567 33.1421 228.567 30.7748C228.567 24.1924 213.784 28.2369 213.784 19.3539C213.784 15.8215 216.53 12.7715 222.63 12.7715C225.339 12.7715 228.152 13.5581 230.074 14.8939L229.213 16.9198C227.157 15.584 224.753 14.931 222.63 14.931C218.237 14.931 216.285 16.8827 216.285 19.2871C216.285 25.8696 231.068 21.8919 231.068 30.6338C231.068 34.1662 228.255 37.1866 222.118 37.1866C218.519 37.1866 214.987 35.9176 213.198 34.0698L213.206 34.0624Z" fill="#282828"/>
<path d="M255.379 21.2018C255.379 26.3075 251.676 29.3946 245.569 29.3946H239.12V36.9715H236.582V12.9719H245.569C251.676 12.9719 255.379 16.0591 255.379 21.2018ZM252.841 21.2018C252.841 17.3652 250.303 15.1685 245.502 15.1685H239.127V27.1683H245.502C250.303 27.1683 252.841 24.9717 252.841 21.2018Z" fill="#282828"/>
<path d="M277.836 34.7823V36.9789H260.856V12.9719H277.316V15.1685H263.394V23.7101H275.81V25.8696H263.394V34.7897H277.836V34.7823Z" fill="#282828"/>
<path d="M281.531 24.9717C281.531 17.944 286.882 12.7642 294.117 12.7642C297.613 12.7642 300.774 13.9293 302.896 16.2595L301.286 17.8698C299.327 15.881 296.93 15.0201 294.184 15.0201C288.388 15.0201 284.032 19.2724 284.032 24.9643C284.032 30.6562 288.388 34.9084 294.184 34.9084C296.93 34.9084 299.327 34.0476 301.286 32.0291L302.896 33.6395C300.774 35.9696 297.613 37.1718 294.08 37.1718C286.882 37.1718 281.531 31.992 281.531 24.9643V24.9717Z" fill="#282828"/>
<path d="M314.413 15.1685H305.976V12.9719H325.382V15.1685H316.944V36.9789H314.406V15.1685H314.413Z" fill="#282828"/>
<path d="M345.819 36.9789L340.335 29.261C339.719 29.3278 339.103 29.3649 338.413 29.3649H331.964V36.9789H329.426V12.9719H338.413C344.52 12.9719 348.223 16.0591 348.223 21.2018C348.223 24.9717 346.234 27.6136 342.732 28.749L348.594 36.9789H345.811H345.819ZM345.678 21.2018C345.678 17.3652 343.14 15.1685 338.338 15.1685H331.964V27.2054H338.338C343.14 27.2054 345.678 24.9791 345.678 21.2018Z" fill="#282828"/>
<path d="M351.741 24.9717C351.741 17.9737 357.092 12.7642 364.364 12.7642C371.637 12.7642 376.95 17.944 376.95 24.9717C376.95 31.9994 371.57 37.1793 364.364 37.1793C357.159 37.1793 351.741 31.9697 351.741 24.9717ZM374.412 24.9717C374.412 19.2427 370.13 15.0276 364.364 15.0276C358.598 15.0276 354.249 19.2427 354.249 24.9717C354.249 30.7007 358.569 34.9159 364.364 34.9159C370.16 34.9159 374.412 30.6933 374.412 24.9717Z" fill="#282828"/>
</svg>
