<svg width="704" height="380" viewBox="0 0 704 380" fill="none" xmlns="http://www.w3.org/2000/svg">
<mask id="mask0_223_1464" style="mask-type:alpha" maskUnits="userSpaceOnUse" x="0" y="0" width="704" height="380">
<path fill-rule="evenodd" clip-rule="evenodd" d="M20 0C8.95431 0 0 8.9543 0 20V360C0 371.046 8.95429 380 20 380H489.005C489.556 380 490 379.551 490 379C490 329.294 530.294 289 580 289C629.706 289 670 329.294 670 379C670 379.551 670.444 380 670.995 380H684C695.046 380 704 371.046 704 360V20C704 8.95431 695.046 0 684 0H20Z" fill="#DAE6F3"/>
</mask>
<g mask="url(#mask0_223_1464)">
<path d="M311.415 665.682C419.063 558.92 585.657 360.507 390.848 420.944C198.038 480.762 74.0129 375.303 231.23 304.249C234.386 302.822 237.965 302.249 241.409 302.605C355.402 314.384 543.905 309.795 423.972 199.822C271.753 60.2438 177.804 -60.4217 316.189 -36.9764C454.574 -13.531 641.994 4.35996 534.927 -142.033" stroke="url(#paint0_linear_223_1464)"/>
<path d="M-44.0454 368.445C100.704 413.541 354.04 467.784 209.389 323.981C66.2219 181.653 101.297 22.6773 237.719 128.295C240.458 130.414 242.641 133.307 243.94 136.518C286.93 242.747 379.286 407.14 420.267 249.665C472.279 49.796 534.879 -89.731 578.989 43.5143C623.099 176.76 695.086 350.726 774.27 187.557" stroke="url(#paint1_linear_223_1464)"/>
<path d="M290.774 648.534C407.614 551.917 591.425 369.339 391.959 411.959C194.539 454.141 80.5317 337.926 243.517 281.341C246.789 280.206 250.405 279.957 253.803 280.622C366.268 302.636 554.417 315.068 444.892 194.725C305.883 41.9861 223.201 -86.6614 358.907 -50.8297C494.613 -14.9979 679.656 19.7251 586.229 -135.729" stroke="url(#paint2_linear_223_1464)"/>
<path d="M269.115 631.309C393.859 545.141 592.748 379.115 390.347 404.354C190.022 429.333 86.4746 303.709 253.737 261.408C257.094 260.559 260.718 260.624 264.046 261.58C374.191 293.221 560.564 321.851 461.838 192.502C336.536 28.3311 265.27 -106.975 397.376 -59.56C529.481 -12.1453 710.835 38.4245 631.179 -124.515" stroke="url(#paint3_linear_223_1464)"/>
<path d="M246.756 613.967C378.183 538.382 590.088 389.326 386.295 397.784C184.592 406.156 91.7589 272.419 261.94 244.058C265.356 243.489 268.962 243.852 272.2 245.08C379.36 285.698 562.736 329.602 475.016 192.551C363.681 18.6047 303.818 -122.118 431.563 -63.969C559.307 -5.8198 735.873 59.5358 669.927 -109.419" stroke="url(#paint4_linear_223_1464)"/>
<path d="M224 596.508C360.962 531.489 583.93 399.554 380.102 391.965C178.366 384.453 96.3341 243.831 268.219 228.938C271.669 228.639 275.235 229.284 278.367 230.763C382.001 279.68 561.358 337.865 484.684 194.342C387.369 12.1807 338.755 -132.813 461.533 -64.8005C584.31 3.21176 755.191 82.2464 702.732 -91.3698" stroke="url(#paint5_linear_223_1464)"/>
<path d="M201.124 578.965C342.563 524.367 574.77 409.47 372.08 386.664C171.47 364.092 100.18 217.732 272.697 215.729C276.16 215.689 279.668 216.599 282.68 218.307C382.368 274.835 556.873 346.266 491.143 197.412C407.718 8.4859 370.079 -139.736 487.429 -62.7358C604.779 14.2646 769.273 105.853 729.94 -71.1995" stroke="url(#paint6_linear_223_1464)"/>
<path d="M178.384 561.4C323.338 516.967 563.106 418.82 362.544 381.703C164.038 344.966 103.304 193.919 275.528 204.152C278.985 204.358 282.42 205.514 285.304 207.432C380.733 270.884 549.735 354.507 494.723 201.367C424.902 7.0025 397.866 -143.515 509.461 -58.389C621.057 26.7369 778.644 129.756 751.962 -49.6391" stroke="url(#paint7_linear_223_1464)"/>
<path d="M156.008 543.897C303.614 509.28 549.422 427.425 351.798 376.948C156.201 326.988 105.728 172.21 276.879 193.964C280.315 194.401 283.664 195.785 286.413 197.891C377.374 267.598 540.392 362.36 495.768 205.878C439.132 7.27006 422.245 -144.721 527.884 -52.3065C633.523 40.1081 783.85 153.458 769.253 -27.3217" stroke="url(#paint8_linear_223_1464)"/>
<path d="M134.198 526.557C283.696 501.332 534.183 435.166 340.142 372.307C148.092 310.092 107.495 152.436 276.931 184.957C280.332 185.609 283.587 187.203 286.197 189.479C372.574 264.791 529.281 369.661 494.63 210.673C450.652 8.88398 443.399 -143.87 542.99 -44.9677C642.58 53.9349 785.448 176.554 782.298 -4.78709" stroke="url(#paint9_linear_223_1464)"/>
<path d="M113.134 509.49C263.865 493.175 517.834 441.979 327.862 367.724C139.839 294.231 108.662 134.445 275.872 176.955C279.228 177.809 282.383 179.592 284.854 182.019C366.613 262.321 516.825 376.298 491.663 215.535C459.727 11.4935 461.545 -141.422 555.096 -36.788C648.647 67.8459 783.992 198.721 791.601 17.5122" stroke="url(#paint10_linear_223_1464)"/>
<path d="M92.9667 492.819C244.371 484.883 500.787 447.844 315.223 363.173C131.563 279.371 109.291 118.102 273.887 169.816C277.191 170.854 280.242 172.809 282.575 175.369C359.757 260.079 503.42 382.208 487.208 220.297C466.631 14.7993 476.923 -137.78 564.53 -28.1217C652.137 81.5369 780.02 219.713 797.662 39.2045" stroke="url(#paint11_linear_223_1464)"/>
<path d="M73.8318 476.666C225.444 476.547 483.429 452.778 302.478 358.652C123.382 265.491 109.456 103.289 271.166 163.42C274.412 164.627 277.359 166.738 279.556 169.414C352.268 257.992 489.443 387.366 481.6 224.834C471.647 18.5487 489.792 -133.297 571.629 -19.2674C653.465 94.7625 774.053 239.348 800.979 59.9899" stroke="url(#paint12_linear_223_1464)"/>
<path d="M55.8379 461.155C207.283 468.268 466.108 456.83 289.852 354.181C115.404 252.584 109.229 89.9022 267.887 157.678C271.072 159.038 273.914 161.287 275.981 164.065C344.386 256.01 475.235 391.778 475.153 229.058C475.05 22.5326 500.416 -128.275 576.721 -10.472C653.025 107.331 766.581 257.504 802.03 79.6336" stroke="url(#paint13_linear_223_1464)"/>
<path d="M39.0774 446.409C190.065 460.151 449.143 460.068 277.555 349.793C107.726 240.649 108.687 77.8525 264.223 152.516C267.344 154.015 270.086 156.386 272.029 159.252C336.339 254.106 461.112 395.478 468.161 232.911C477.108 26.5792 509.059 -122.972 580.128 -1.93811C651.197 119.096 758.062 274.101 801.272 97.9547" stroke="url(#paint14_linear_223_1464)"/>
<path d="M23.6281 432.546C173.946 452.31 432.821 462.577 265.775 345.534C100.443 229.693 107.907 67.0645 260.336 147.883C263.395 149.505 266.039 151.983 267.867 154.925C328.335 252.273 447.36 398.517 460.899 236.361C478.083 30.5518 515.984 -117.604 582.16 6.17325C648.336 129.95 748.923 289.101 799.136 114.822" stroke="url(#paint15_linear_223_1464)"/>
<path d="M9.54949 419.676C159.057 444.851 417.392 464.452 254.678 341.458C93.6337 219.727 106.961 57.4735 256.374 143.739C259.373 145.471 261.926 148.043 263.646 151.049C320.563 250.515 434.234 400.959 453.615 239.397C478.213 34.3416 521.435 -112.35 583.102 13.7342C644.769 139.818 739.548 302.495 796.017 130.141" stroke="url(#paint16_linear_223_1464)"/>
<path d="M-3.10974 407.903C145.509 437.881 403.079 465.793 244.411 337.622C87.3715 210.766 105.918 49.0266 252.475 140.06C255.417 141.887 257.886 144.541 259.508 147.6C313.191 248.848 421.957 402.876 446.532 242.022C477.723 37.8651 525.648 -107.358 583.221 20.6471C640.795 148.652 730.285 314.297 792.276 143.852" stroke="url(#paint17_linear_223_1464)"/>
<path d="M-14.3104 397.322C133.399 431.499 390.075 466.7 235.103 334.084C81.7212 202.828 104.844 41.6794 248.762 136.83C251.651 138.74 254.044 141.462 255.579 144.566C306.371 247.295 410.728 404.343 439.852 244.25C476.816 41.0592 528.837 -102.747 582.76 26.8378C636.683 156.423 721.442 324.537 788.239 155.918" stroke="url(#paint18_linear_223_1464)"/>
<path d="M-24.0233 388.017C122.806 425.798 378.543 467.269 226.863 330.901C76.7383 195.931 103.797 35.3964 245.344 134.04C248.185 136.02 250.511 138.8 251.969 141.94C300.233 245.881 400.716 405.435 433.748 246.103C475.673 43.8775 531.197 -98.613 581.933 32.2526C632.669 163.118 713.29 333.256 784.192 166.321" stroke="url(#paint19_linear_223_1464)"/>
<path d="M-32.2263 380.063C113.793 420.86 368.623 467.588 219.783 328.125C72.4699 190.093 102.829 30.1492 242.315 131.687C245.114 133.725 247.382 136.552 248.776 139.722C294.888 244.634 392.064 406.225 428.371 247.606C474.451 46.2872 532.898 -95.0297 580.928 36.8531C628.959 168.736 706.058 340.498 780.383 175.059" stroke="url(#paint20_linear_223_1464)"/>
<path d="M-38.9051 373.521C106.412 416.754 360.424 467.737 213.937 325.805C68.953 185.329 101.983 25.9151 239.751 129.771C242.516 131.855 244.736 134.72 246.076 137.913C290.428 243.582 384.889 406.774 423.842 248.785C473.283 48.265 534.084 -92.0548 579.903 40.6127C625.721 173.28 699.938 346.308 777.019 182.134" stroke="url(#paint21_linear_223_1464)"/>
</g>
<defs>
<linearGradient id="paint0_linear_223_1464" x1="182.692" y1="183.773" x2="528.166" y2="295.902" gradientUnits="userSpaceOnUse">
<stop stop-color="white"/>
<stop offset="1" stop-color="#005FD2"/>
</linearGradient>
<linearGradient id="paint1_linear_223_1464" x1="321.423" y1="28.9762" x2="384.188" y2="386.727" gradientUnits="userSpaceOnUse">
<stop stop-color="white"/>
<stop offset="1" stop-color="#005FD2"/>
</linearGradient>
<linearGradient id="paint2_linear_223_1464" x1="206.044" y1="156.979" x2="539.996" y2="299.812" gradientUnits="userSpaceOnUse">
<stop stop-color="white"/>
<stop offset="1" stop-color="#005FD2"/>
</linearGradient>
<linearGradient id="paint3_linear_223_1464" x1="227.141" y1="134.274" x2="547.513" y2="305.407" gradientUnits="userSpaceOnUse">
<stop stop-color="white"/>
<stop offset="1" stop-color="#005FD2"/>
</linearGradient>
<linearGradient id="paint4_linear_223_1464" x1="245.921" y1="115.164" x2="551.087" y2="312.138" gradientUnits="userSpaceOnUse">
<stop stop-color="white"/>
<stop offset="1" stop-color="#005FD2"/>
</linearGradient>
<linearGradient id="paint5_linear_223_1464" x1="262.382" y1="99.1829" x2="551.118" y2="319.539" gradientUnits="userSpaceOnUse">
<stop stop-color="white"/>
<stop offset="1" stop-color="#005FD2"/>
</linearGradient>
<linearGradient id="paint6_linear_223_1464" x1="276.577" y1="85.901" x2="548.031" y2="327.226" gradientUnits="userSpaceOnUse">
<stop stop-color="white"/>
<stop offset="1" stop-color="#005FD2"/>
</linearGradient>
<linearGradient id="paint7_linear_223_1464" x1="288.602" y1="74.9258" x2="542.266" y2="334.887" gradientUnits="userSpaceOnUse">
<stop stop-color="white"/>
<stop offset="1" stop-color="#005FD2"/>
</linearGradient>
<linearGradient id="paint8_linear_223_1464" x1="298.586" y1="65.9046" x2="534.254" y2="342.284" gradientUnits="userSpaceOnUse">
<stop stop-color="white"/>
<stop offset="1" stop-color="#005FD2"/>
</linearGradient>
<linearGradient id="paint9_linear_223_1464" x1="306.683" y1="58.524" x2="524.423" y2="349.238" gradientUnits="userSpaceOnUse">
<stop stop-color="white"/>
<stop offset="1" stop-color="#005FD2"/>
</linearGradient>
<linearGradient id="paint10_linear_223_1464" x1="313.068" y1="52.5093" x2="513.187" y2="355.623" gradientUnits="userSpaceOnUse">
<stop stop-color="white"/>
<stop offset="1" stop-color="#005FD2"/>
</linearGradient>
<linearGradient id="paint11_linear_223_1464" x1="317.924" y1="47.6227" x2="500.934" y2="361.363" gradientUnits="userSpaceOnUse">
<stop stop-color="white"/>
<stop offset="1" stop-color="#005FD2"/>
</linearGradient>
<linearGradient id="paint12_linear_223_1464" x1="321.445" y1="43.6607" x2="488.034" y2="366.42" gradientUnits="userSpaceOnUse">
<stop stop-color="white"/>
<stop offset="1" stop-color="#005FD2"/>
</linearGradient>
<linearGradient id="paint13_linear_223_1464" x1="323.821" y1="40.4525" x2="474.827" y2="370.789" gradientUnits="userSpaceOnUse">
<stop stop-color="white"/>
<stop offset="1" stop-color="#005FD2"/>
</linearGradient>
<linearGradient id="paint14_linear_223_1464" x1="325.24" y1="37.8545" x2="461.624" y2="374.492" gradientUnits="userSpaceOnUse">
<stop stop-color="white"/>
<stop offset="1" stop-color="#005FD2"/>
</linearGradient>
<linearGradient id="paint15_linear_223_1464" x1="325.885" y1="35.7505" x2="448.711" y2="377.568" gradientUnits="userSpaceOnUse">
<stop stop-color="white"/>
<stop offset="1" stop-color="#005FD2"/>
</linearGradient>
<linearGradient id="paint16_linear_223_1464" x1="325.927" y1="34.0451" x2="436.339" y2="380.072" gradientUnits="userSpaceOnUse">
<stop stop-color="white"/>
<stop offset="1" stop-color="#005FD2"/>
</linearGradient>
<linearGradient id="paint17_linear_223_1464" x1="325.525" y1="32.6635" x2="424.734" y2="382.067" gradientUnits="userSpaceOnUse">
<stop stop-color="white"/>
<stop offset="1" stop-color="#005FD2"/>
</linearGradient>
<linearGradient id="paint18_linear_223_1464" x1="324.827" y1="31.5464" x2="414.094" y2="383.621" gradientUnits="userSpaceOnUse">
<stop stop-color="white"/>
<stop offset="1" stop-color="#005FD2"/>
</linearGradient>
<linearGradient id="paint19_linear_223_1464" x1="323.962" y1="30.6489" x2="404.588" y2="384.802" gradientUnits="userSpaceOnUse">
<stop stop-color="white"/>
<stop offset="1" stop-color="#005FD2"/>
</linearGradient>
<linearGradient id="paint20_linear_223_1464" x1="323.045" y1="29.9369" x2="396.36" y2="385.676" gradientUnits="userSpaceOnUse">
<stop stop-color="white"/>
<stop offset="1" stop-color="#005FD2"/>
</linearGradient>
<linearGradient id="paint21_linear_223_1464" x1="322.171" y1="29.3852" x2="389.528" y2="386.3" gradientUnits="userSpaceOnUse">
<stop stop-color="white"/>
<stop offset="1" stop-color="#005FD2"/>
</linearGradient>
</defs>
</svg>
