<svg width="357" height="380" viewBox="0 0 357 380" fill="none" xmlns="http://www.w3.org/2000/svg">
<mask id="mask0_223_1149" style="mask-type:alpha" maskUnits="userSpaceOnUse" x="0" y="0" width="357" height="380">
<path fill-rule="evenodd" clip-rule="evenodd" d="M20 0C8.95431 0 0 8.9543 0 20V360C0 371.046 8.9543 380 20 380H172C183.046 380 191.77 370.932 194.195 360.156C203.232 319.998 239.113 290 282 290C289.669 290 297.115 290.959 304.222 292.764C323.414 297.638 357 283.831 357 264.031V20C357 8.95431 348.046 0 337 0H20Z" fill="#DAE6F3"/>
</mask>
<g mask="url(#mask0_223_1149)">
<path d="M311.415 665.682C419.063 558.92 585.657 360.507 390.848 420.944C198.038 480.762 74.0129 375.303 231.23 304.249C234.386 302.822 237.965 302.249 241.409 302.605C355.402 314.384 543.905 309.795 423.972 199.822C271.753 60.2438 177.804 -60.4217 316.189 -36.9764C454.574 -13.531 641.994 4.35996 534.927 -142.033" stroke="url(#paint0_linear_223_1149)"/>
<path d="M-44.0464 368.445C100.703 413.541 354.039 467.784 209.388 323.981C66.2209 181.653 101.296 22.6773 237.718 128.295C240.457 130.414 242.64 133.307 243.939 136.518C286.929 242.747 379.285 407.14 420.266 249.665C472.278 49.796 534.878 -89.731 578.988 43.5143C623.098 176.76 695.085 350.726 774.269 187.557" stroke="url(#paint1_linear_223_1149)"/>
<path d="M290.774 648.534C407.614 551.917 591.425 369.339 391.959 411.959C194.539 454.141 80.5317 337.926 243.517 281.341C246.789 280.206 250.405 279.957 253.803 280.622C366.268 302.636 554.417 315.068 444.892 194.725C305.883 41.9861 223.201 -86.6614 358.907 -50.8297C494.613 -14.9979 679.656 19.7251 586.229 -135.729" stroke="url(#paint2_linear_223_1149)"/>
<path d="M269.116 631.309C393.86 545.141 592.749 379.115 390.348 404.354C190.023 429.333 86.4756 303.709 253.738 261.408C257.095 260.559 260.719 260.624 264.047 261.58C374.192 293.221 560.565 321.851 461.839 192.502C336.537 28.3311 265.271 -106.975 397.377 -59.56C529.482 -12.1453 710.836 38.4245 631.18 -124.515" stroke="url(#paint3_linear_223_1149)"/>
<path d="M246.755 613.967C378.182 538.382 590.087 389.326 386.294 397.784C184.591 406.156 91.7579 272.419 261.939 244.058C265.355 243.489 268.961 243.852 272.199 245.08C379.359 285.698 562.735 329.602 475.015 192.551C363.68 18.6047 303.817 -122.118 431.562 -63.969C559.306 -5.8198 735.872 59.5358 669.926 -109.419" stroke="url(#paint4_linear_223_1149)"/>
<path d="M223.999 596.508C360.961 531.489 583.929 399.554 380.101 391.965C178.365 384.453 96.3331 243.831 268.218 228.938C271.668 228.639 275.234 229.284 278.366 230.763C382 279.68 561.357 337.865 484.683 194.342C387.368 12.1807 338.754 -132.813 461.532 -64.8005C584.309 3.21176 755.19 82.2464 702.731 -91.3698" stroke="url(#paint5_linear_223_1149)"/>
<path d="M201.124 578.965C342.564 524.367 574.771 409.47 372.081 386.664C171.471 364.092 100.181 217.732 272.698 215.729C276.161 215.689 279.669 216.599 282.681 218.307C382.369 274.835 556.874 346.266 491.144 197.412C407.719 8.4859 370.08 -139.736 487.43 -62.7358C604.78 14.2646 769.274 105.853 729.941 -71.1995" stroke="url(#paint6_linear_223_1149)"/>
<path d="M178.383 561.4C323.337 516.967 563.105 418.82 362.543 381.703C164.037 344.966 103.303 193.919 275.527 204.152C278.984 204.358 282.419 205.514 285.303 207.432C380.732 270.884 549.734 354.507 494.722 201.367C424.901 7.0025 397.865 -143.515 509.46 -58.389C621.056 26.7369 778.643 129.756 751.961 -49.6391" stroke="url(#paint7_linear_223_1149)"/>
<path d="M156.007 543.897C303.613 509.28 549.421 427.425 351.797 376.948C156.2 326.988 105.727 172.21 276.879 193.964C280.314 194.401 283.663 195.785 286.412 197.891C377.373 267.598 540.391 362.36 495.767 205.878C439.131 7.27006 422.244 -144.721 527.883 -52.3065C633.522 40.1081 783.849 153.458 769.252 -27.3217" stroke="url(#paint8_linear_223_1149)"/>
<path d="M134.199 526.557C283.697 501.332 534.184 435.166 340.143 372.307C148.093 310.092 107.496 152.436 276.932 184.957C280.333 185.609 283.588 187.203 286.198 189.479C372.575 264.791 529.282 369.661 494.631 210.673C450.653 8.88398 443.4 -143.87 542.991 -44.9677C642.581 53.9349 785.449 176.554 782.299 -4.78709" stroke="url(#paint9_linear_223_1149)"/>
<path d="M113.133 509.49C263.864 493.175 517.833 441.979 327.861 367.724C139.838 294.231 108.661 134.445 275.871 176.955C279.227 177.809 282.382 179.592 284.853 182.019C366.612 262.321 516.824 376.298 491.662 215.535C459.726 11.4935 461.545 -141.422 555.095 -36.788C648.646 67.8459 783.991 198.721 791.6 17.5122" stroke="url(#paint10_linear_223_1149)"/>
<path d="M92.9667 492.819C244.371 484.883 500.787 447.844 315.223 363.173C131.563 279.371 109.291 118.102 273.887 169.816C277.191 170.854 280.242 172.809 282.575 175.369C359.757 260.079 503.42 382.208 487.208 220.297C466.631 14.7993 476.923 -137.78 564.53 -28.1217C652.137 81.5369 780.02 219.713 797.662 39.2045" stroke="url(#paint11_linear_223_1149)"/>
<path d="M73.8308 476.666C225.443 476.547 483.428 452.778 302.477 358.652C123.381 265.491 109.455 103.289 271.165 163.42C274.411 164.627 277.358 166.738 279.555 169.414C352.267 257.992 489.442 387.366 481.6 224.834C471.646 18.5487 489.791 -133.297 571.628 -19.2674C653.464 94.7625 774.052 239.348 800.978 59.9899" stroke="url(#paint12_linear_223_1149)"/>
<path d="M55.8379 461.155C207.283 468.268 466.108 456.83 289.852 354.181C115.404 252.584 109.229 89.9022 267.887 157.678C271.072 159.038 273.914 161.287 275.981 164.065C344.386 256.01 475.235 391.778 475.153 229.058C475.05 22.5326 500.416 -128.275 576.721 -10.472C653.025 107.331 766.581 257.504 802.03 79.6336" stroke="url(#paint13_linear_223_1149)"/>
<path d="M39.0784 446.409C190.066 460.151 449.144 460.068 277.556 349.793C107.727 240.649 108.688 77.8525 264.224 152.516C267.345 154.015 270.087 156.386 272.03 159.252C336.339 254.106 461.113 395.478 468.162 232.911C477.109 26.5792 509.06 -122.972 580.129 -1.93811C651.198 119.096 758.063 274.101 801.273 97.9547" stroke="url(#paint14_linear_223_1149)"/>
<path d="M23.6281 432.546C173.946 452.31 432.821 462.577 265.775 345.534C100.443 229.693 107.907 67.0645 260.336 147.883C263.395 149.505 266.039 151.983 267.867 154.925C328.335 252.273 447.36 398.517 460.899 236.361C478.083 30.5518 515.984 -117.604 582.16 6.17325C648.336 129.95 748.923 289.101 799.136 114.822" stroke="url(#paint15_linear_223_1149)"/>
<path d="M9.54852 419.676C159.056 444.851 417.391 464.452 254.677 341.458C93.6327 219.727 106.96 57.4735 256.373 143.739C259.372 145.471 261.925 148.043 263.645 151.049C320.562 250.515 434.233 400.959 453.614 239.397C478.212 34.3416 521.434 -112.35 583.101 13.7342C644.768 139.818 739.547 302.495 796.016 130.141" stroke="url(#paint16_linear_223_1149)"/>
<path d="M-3.10974 407.903C145.509 437.881 403.079 465.793 244.411 337.622C87.3715 210.766 105.918 49.0266 252.475 140.06C255.417 141.887 257.886 144.541 259.508 147.6C313.191 248.848 421.957 402.876 446.532 242.022C477.723 37.8651 525.648 -107.358 583.221 20.6471C640.795 148.652 730.285 314.297 792.276 143.852" stroke="url(#paint17_linear_223_1149)"/>
<path d="M-14.3104 397.322C133.399 431.499 390.075 466.7 235.103 334.084C81.7212 202.828 104.844 41.6794 248.762 136.83C251.651 138.74 254.044 141.462 255.579 144.566C306.371 247.295 410.728 404.343 439.852 244.25C476.816 41.0592 528.837 -102.747 582.76 26.8378C636.683 156.423 721.442 324.537 788.239 155.918" stroke="url(#paint18_linear_223_1149)"/>
<path d="M-24.0223 388.017C122.807 425.798 378.544 467.269 226.864 330.901C76.7393 195.931 103.798 35.3964 245.345 134.04C248.186 136.02 250.512 138.8 251.97 141.94C300.234 245.881 400.717 405.435 433.749 246.103C475.674 43.8775 531.198 -98.613 581.934 32.2526C632.67 163.118 713.291 333.256 784.193 166.321" stroke="url(#paint19_linear_223_1149)"/>
<path d="M-32.2273 380.063C113.792 420.86 368.622 467.588 219.782 328.125C72.4689 190.093 102.828 30.1492 242.314 131.687C245.113 133.725 247.381 136.552 248.775 139.722C294.887 244.634 392.063 406.225 428.37 247.606C474.45 46.2872 532.897 -95.0297 580.927 36.8531C628.958 168.736 706.057 340.498 780.382 175.059" stroke="url(#paint20_linear_223_1149)"/>
<path d="M-38.9051 373.521C106.412 416.754 360.424 467.737 213.937 325.805C68.953 185.329 101.983 25.9151 239.751 129.771C242.516 131.855 244.736 134.72 246.076 137.913C290.428 243.582 384.889 406.774 423.842 248.785C473.283 48.265 534.084 -92.0548 579.903 40.6127C625.721 173.28 699.938 346.308 777.019 182.134" stroke="url(#paint21_linear_223_1149)"/>
</g>
<defs>
<linearGradient id="paint0_linear_223_1149" x1="182.692" y1="183.773" x2="528.166" y2="295.902" gradientUnits="userSpaceOnUse">
<stop stop-color="white"/>
<stop offset="1" stop-color="#005FD2"/>
</linearGradient>
<linearGradient id="paint1_linear_223_1149" x1="321.422" y1="28.9762" x2="384.187" y2="386.727" gradientUnits="userSpaceOnUse">
<stop stop-color="white"/>
<stop offset="1" stop-color="#005FD2"/>
</linearGradient>
<linearGradient id="paint2_linear_223_1149" x1="206.044" y1="156.979" x2="539.996" y2="299.812" gradientUnits="userSpaceOnUse">
<stop stop-color="white"/>
<stop offset="1" stop-color="#005FD2"/>
</linearGradient>
<linearGradient id="paint3_linear_223_1149" x1="227.142" y1="134.274" x2="547.514" y2="305.407" gradientUnits="userSpaceOnUse">
<stop stop-color="white"/>
<stop offset="1" stop-color="#005FD2"/>
</linearGradient>
<linearGradient id="paint4_linear_223_1149" x1="245.92" y1="115.164" x2="551.086" y2="312.138" gradientUnits="userSpaceOnUse">
<stop stop-color="white"/>
<stop offset="1" stop-color="#005FD2"/>
</linearGradient>
<linearGradient id="paint5_linear_223_1149" x1="262.381" y1="99.1829" x2="551.117" y2="319.539" gradientUnits="userSpaceOnUse">
<stop stop-color="white"/>
<stop offset="1" stop-color="#005FD2"/>
</linearGradient>
<linearGradient id="paint6_linear_223_1149" x1="276.578" y1="85.901" x2="548.032" y2="327.226" gradientUnits="userSpaceOnUse">
<stop stop-color="white"/>
<stop offset="1" stop-color="#005FD2"/>
</linearGradient>
<linearGradient id="paint7_linear_223_1149" x1="288.601" y1="74.9258" x2="542.265" y2="334.887" gradientUnits="userSpaceOnUse">
<stop stop-color="white"/>
<stop offset="1" stop-color="#005FD2"/>
</linearGradient>
<linearGradient id="paint8_linear_223_1149" x1="298.585" y1="65.9046" x2="534.253" y2="342.284" gradientUnits="userSpaceOnUse">
<stop stop-color="white"/>
<stop offset="1" stop-color="#005FD2"/>
</linearGradient>
<linearGradient id="paint9_linear_223_1149" x1="306.684" y1="58.524" x2="524.424" y2="349.238" gradientUnits="userSpaceOnUse">
<stop stop-color="white"/>
<stop offset="1" stop-color="#005FD2"/>
</linearGradient>
<linearGradient id="paint10_linear_223_1149" x1="313.067" y1="52.5093" x2="513.186" y2="355.623" gradientUnits="userSpaceOnUse">
<stop stop-color="white"/>
<stop offset="1" stop-color="#005FD2"/>
</linearGradient>
<linearGradient id="paint11_linear_223_1149" x1="317.924" y1="47.6227" x2="500.934" y2="361.363" gradientUnits="userSpaceOnUse">
<stop stop-color="white"/>
<stop offset="1" stop-color="#005FD2"/>
</linearGradient>
<linearGradient id="paint12_linear_223_1149" x1="321.444" y1="43.6607" x2="488.033" y2="366.42" gradientUnits="userSpaceOnUse">
<stop stop-color="white"/>
<stop offset="1" stop-color="#005FD2"/>
</linearGradient>
<linearGradient id="paint13_linear_223_1149" x1="323.821" y1="40.4525" x2="474.827" y2="370.789" gradientUnits="userSpaceOnUse">
<stop stop-color="white"/>
<stop offset="1" stop-color="#005FD2"/>
</linearGradient>
<linearGradient id="paint14_linear_223_1149" x1="325.241" y1="37.8545" x2="461.625" y2="374.492" gradientUnits="userSpaceOnUse">
<stop stop-color="white"/>
<stop offset="1" stop-color="#005FD2"/>
</linearGradient>
<linearGradient id="paint15_linear_223_1149" x1="325.885" y1="35.7505" x2="448.711" y2="377.568" gradientUnits="userSpaceOnUse">
<stop stop-color="white"/>
<stop offset="1" stop-color="#005FD2"/>
</linearGradient>
<linearGradient id="paint16_linear_223_1149" x1="325.926" y1="34.0451" x2="436.338" y2="380.072" gradientUnits="userSpaceOnUse">
<stop stop-color="white"/>
<stop offset="1" stop-color="#005FD2"/>
</linearGradient>
<linearGradient id="paint17_linear_223_1149" x1="325.525" y1="32.6635" x2="424.734" y2="382.067" gradientUnits="userSpaceOnUse">
<stop stop-color="white"/>
<stop offset="1" stop-color="#005FD2"/>
</linearGradient>
<linearGradient id="paint18_linear_223_1149" x1="324.827" y1="31.5464" x2="414.094" y2="383.621" gradientUnits="userSpaceOnUse">
<stop stop-color="white"/>
<stop offset="1" stop-color="#005FD2"/>
</linearGradient>
<linearGradient id="paint19_linear_223_1149" x1="323.963" y1="30.6489" x2="404.589" y2="384.802" gradientUnits="userSpaceOnUse">
<stop stop-color="white"/>
<stop offset="1" stop-color="#005FD2"/>
</linearGradient>
<linearGradient id="paint20_linear_223_1149" x1="323.044" y1="29.9369" x2="396.359" y2="385.676" gradientUnits="userSpaceOnUse">
<stop stop-color="white"/>
<stop offset="1" stop-color="#005FD2"/>
</linearGradient>
<linearGradient id="paint21_linear_223_1149" x1="322.171" y1="29.3852" x2="389.528" y2="386.3" gradientUnits="userSpaceOnUse">
<stop stop-color="white"/>
<stop offset="1" stop-color="#005FD2"/>
</linearGradient>
</defs>
</svg>
