<svg width="621" height="652" viewBox="0 0 621 652" fill="none" xmlns="http://www.w3.org/2000/svg">
<path d="M346.583 895.496C447.55 795.361 603.804 609.263 421.086 665.949C238.368 722.635 121.511 621.073 276.045 554.435C382.339 566.112 566.371 563.283 452.154 458.551C309.382 327.636 221.265 214.46 351.06 236.45C480.856 258.44 656.644 275.221 556.222 137.914" stroke="url(#paint0_linear_331_7175)" stroke-opacity="0.2"/>
<path d="M13.1854 616.709C148.951 659.006 386.563 709.882 250.89 575.005C115.217 440.128 150.207 289.31 281.471 394.625C320.945 494.005 409.651 655.272 448.679 505.301C497.463 317.838 556.177 186.971 597.55 311.946C638.922 436.921 706.441 600.09 780.711 447.048" stroke="url(#paint1_linear_331_7175)" stroke-opacity="0.2"/>
<path d="M327.224 879.412C436.811 788.793 609.214 617.547 422.128 657.521C235.042 697.495 127.822 585.808 287.737 533.379C392.544 554.596 576.081 568.378 471.776 453.771C341.395 310.512 263.845 189.849 391.128 223.457C518.411 257.065 691.969 289.632 604.341 143.827" stroke="url(#paint2_linear_331_7175)" stroke-opacity="0.2"/>
<path d="M306.909 863.258C423.911 782.438 610.455 626.717 420.617 650.389C230.778 674.061 133.601 553.533 297.446 515.107C400.029 545.294 581.691 574.871 487.671 451.686C370.145 297.705 303.303 170.797 427.209 215.269C551.115 259.741 721.213 307.172 646.501 154.345" stroke="url(#paint3_linear_331_7175)" stroke-opacity="0.2"/>
<path d="M285.937 846.991C409.207 776.097 607.959 636.293 416.815 644.226C225.671 652.16 138.766 524.028 305.222 499.246C404.966 537.791 583.569 582.251 500.03 451.731C395.605 288.581 339.458 156.593 459.273 211.133C579.089 265.673 744.696 326.972 682.843 168.504" stroke="url(#paint4_linear_331_7175)" stroke-opacity="0.2"/>
<path d="M264.593 830.617C393.055 769.633 602.184 645.887 411.007 638.769C219.831 631.65 143.269 497.082 311.158 485.464C407.563 531.731 582.118 590.095 509.098 453.411C417.823 282.557 372.226 146.562 487.383 210.353C602.541 274.144 762.815 348.273 713.612 185.433" stroke="url(#paint5_linear_331_7175)" stroke-opacity="0.2"/>
<path d="M243.138 814.161C375.799 762.952 593.593 655.186 403.484 633.795C213.375 612.405 147.087 472.49 315.374 473.455C408.051 526.8 577.754 598.05 515.157 456.29C436.91 279.09 401.607 140.067 511.673 212.289C621.739 284.51 776.024 370.413 739.132 204.35" stroke="url(#paint6_linear_331_7175)" stroke-opacity="0.2"/>
<path d="M221.809 797.687C357.767 756.011 582.653 663.956 394.539 629.143C206.424 594.329 150.222 450.066 318.017 462.96C406.679 522.74 570.905 605.841 518.514 460C453.027 277.699 427.668 136.524 532.338 216.366C637.007 296.209 784.813 392.834 759.787 224.573" stroke="url(#paint7_linear_331_7175)" stroke-opacity="0.2"/>
<path d="M200.822 781.27C339.267 748.801 569.818 672.027 384.46 624.683C199.102 577.338 152.696 429.633 319.25 453.744C403.705 519.333 561.991 613.255 519.494 464.231C466.373 277.95 450.535 135.393 549.617 222.071C648.699 308.75 789.696 415.065 776.004 245.505" stroke="url(#paint8_linear_331_7175)" stroke-opacity="0.2"/>
<path d="M180.366 765.008C320.585 741.348 555.525 679.29 373.528 620.332C191.53 561.374 154.547 411.033 319.245 445.616C399.389 516.409 551.426 620.141 518.427 468.729C477.178 279.465 470.376 136.192 563.785 228.956C657.195 321.72 791.195 436.728 788.241 266.643" stroke="url(#paint9_linear_331_7175)" stroke-opacity="0.2"/>
<path d="M160.608 748.999C301.984 733.696 540.19 685.678 362.009 616.032C183.828 546.386 155.824 394.116 318.182 438.405C393.987 513.825 539.606 626.39 515.643 473.289C485.69 281.912 487.395 138.487 575.139 236.627C662.884 334.766 789.829 457.518 796.965 287.557" stroke="url(#paint10_linear_331_7175)" stroke-opacity="0.2"/>
<path d="M141.694 733.363C283.701 725.92 524.203 691.179 350.156 611.764C176.109 532.348 156.589 378.76 316.242 431.98C387.75 511.486 526.906 631.95 511.466 477.756C492.167 285.013 501.819 141.903 583.989 244.756C666.158 347.608 786.104 477.208 802.651 307.903" stroke="url(#paint11_linear_331_7175)" stroke-opacity="0.2"/>
<path d="M123.747 718.212C265.948 718.101 507.921 695.807 338.201 607.523C168.481 519.239 156.905 364.849 313.602 426.23C380.915 509.318 513.675 636.796 506.206 482.011C496.871 288.529 513.89 146.108 590.647 253.06C667.403 360.013 780.507 495.624 805.761 327.398" stroke="url(#paint12_linear_331_7175)" stroke-opacity="0.2"/>
<path d="M106.869 703.663C248.914 710.334 491.675 699.606 326.359 603.328C161.042 507.05 156.843 352.284 310.434 421.068C373.708 507.272 500.237 640.937 500.159 485.971C500.062 292.265 523.854 150.817 595.422 261.308C666.991 371.8 773.498 512.652 806.747 345.821" stroke="url(#paint13_linear_331_7175)" stroke-opacity="0.2"/>
<path d="M91.1498 689.833C232.766 702.723 475.764 702.644 314.825 599.214C153.887 495.783 156.474 340.981 306.903 416.431C366.339 505.324 486.888 644.406 493.601 489.586C501.993 296.061 531.961 155.792 598.619 269.314C665.277 382.835 765.509 528.219 806.037 363.006" stroke="url(#paint14_linear_331_7175)" stroke-opacity="0.2"/>
<path d="M76.6585 676.83C217.647 695.368 460.454 704.998 303.776 595.22C147.098 485.442 155.869 330.867 303.163 412.266C359 503.464 473.896 647.251 486.789 492.822C502.907 299.787 538.455 160.827 600.524 276.922C662.593 393.016 756.936 542.289 804.033 378.827" stroke="url(#paint15_linear_331_7175)" stroke-opacity="0.2"/>
<path d="M63.4535 664.759C203.681 688.371 445.982 706.756 293.368 591.396C140.753 476.036 155.096 321.879 299.357 408.54C351.866 501.692 461.499 649.532 479.957 495.669C503.029 303.341 543.568 165.755 601.407 284.013C659.247 402.271 748.143 554.851 801.107 393.195" stroke="url(#paint16_linear_331_7175)" stroke-opacity="0.2"/>
<path d="M51.5805 653.718C190.975 681.835 432.558 708.015 283.739 587.799C134.919 467.584 154.22 313.968 295.615 405.231C345.096 500.026 449.91 651.32 473.314 498.132C502.569 306.647 547.519 170.438 601.52 290.498C655.52 410.558 739.455 565.922 797.599 406.056" stroke="url(#paint17_linear_331_7175)" stroke-opacity="0.2"/>
<path d="M41.075 643.793C179.616 675.849 420.361 708.865 275.008 584.48C129.655 460.095 153.301 307.088 292.053 402.322C338.828 498.481 439.313 652.685 467.049 500.222C501.718 309.643 550.51 174.762 601.087 296.304C651.663 417.846 731.161 575.526 793.812 417.372" stroke="url(#paint18_linear_331_7175)" stroke-opacity="0.2"/>
<path d="M31.9652 635.067C169.681 670.503 409.545 709.4 267.279 581.496C125.013 453.591 152.396 301.209 288.776 399.809C333.185 497.084 429.866 653.7 461.324 501.961C500.647 312.287 552.724 178.641 600.311 301.384C647.899 424.127 723.515 583.705 790.017 427.131" stroke="url(#paint19_linear_331_7175)" stroke-opacity="0.2"/>
<path d="M24.2705 627.604C161.227 665.869 400.24 709.697 260.638 578.89C121.036 448.084 151.551 296.297 285.872 397.685C328.268 495.854 421.703 654.428 456.28 503.369C499.5 314.545 554.319 182 599.368 305.697C644.417 429.394 716.732 590.495 786.444 435.324" stroke="url(#paint20_linear_331_7175)" stroke-opacity="0.2"/>
<path d="M18.007 621.47C154.305 662.02 392.551 709.839 255.156 576.716C117.761 443.593 150.81 292.338 283.417 395.957C324.165 494.822 414.936 654.936 452.033 504.476C498.405 316.402 555.433 184.791 598.407 309.224C641.382 433.657 710.992 595.946 783.289 441.962" stroke="url(#paint21_linear_331_7175)" stroke-opacity="0.2"/>
<defs>
<linearGradient id="paint0_linear_331_7175" x1="225.85" y1="443.498" x2="549.881" y2="548.668" gradientUnits="userSpaceOnUse">
<stop stop-color="white"/>
<stop offset="1" stop-color="#005FD2"/>
</linearGradient>
<linearGradient id="paint1_linear_331_7175" x1="355.97" y1="298.31" x2="414.839" y2="633.857" gradientUnits="userSpaceOnUse">
<stop stop-color="white"/>
<stop offset="1" stop-color="#005FD2"/>
</linearGradient>
<linearGradient id="paint2_linear_331_7175" x1="247.752" y1="418.367" x2="560.976" y2="552.335" gradientUnits="userSpaceOnUse">
<stop stop-color="white"/>
<stop offset="1" stop-color="#005FD2"/>
</linearGradient>
<linearGradient id="paint3_linear_331_7175" x1="267.54" y1="397.072" x2="568.028" y2="557.584" gradientUnits="userSpaceOnUse">
<stop stop-color="white"/>
<stop offset="1" stop-color="#005FD2"/>
</linearGradient>
<linearGradient id="paint4_linear_331_7175" x1="285.153" y1="379.147" x2="571.379" y2="563.896" gradientUnits="userSpaceOnUse">
<stop stop-color="white"/>
<stop offset="1" stop-color="#005FD2"/>
</linearGradient>
<linearGradient id="paint5_linear_331_7175" x1="300.593" y1="364.159" x2="571.408" y2="570.838" gradientUnits="userSpaceOnUse">
<stop stop-color="white"/>
<stop offset="1" stop-color="#005FD2"/>
</linearGradient>
<linearGradient id="paint6_linear_331_7175" x1="313.908" y1="351.7" x2="568.514" y2="578.046" gradientUnits="userSpaceOnUse">
<stop stop-color="white"/>
<stop offset="1" stop-color="#005FD2"/>
</linearGradient>
<linearGradient id="paint7_linear_331_7175" x1="325.186" y1="341.407" x2="563.106" y2="585.233" gradientUnits="userSpaceOnUse">
<stop stop-color="white"/>
<stop offset="1" stop-color="#005FD2"/>
</linearGradient>
<linearGradient id="paint8_linear_331_7175" x1="334.55" y1="332.945" x2="555.591" y2="592.171" gradientUnits="userSpaceOnUse">
<stop stop-color="white"/>
<stop offset="1" stop-color="#005FD2"/>
</linearGradient>
<linearGradient id="paint9_linear_331_7175" x1="342.145" y1="326.024" x2="546.371" y2="598.694" gradientUnits="userSpaceOnUse">
<stop stop-color="white"/>
<stop offset="1" stop-color="#005FD2"/>
</linearGradient>
<linearGradient id="paint10_linear_331_7175" x1="348.133" y1="320.382" x2="535.831" y2="604.682" gradientUnits="userSpaceOnUse">
<stop stop-color="white"/>
<stop offset="1" stop-color="#005FD2"/>
</linearGradient>
<linearGradient id="paint11_linear_331_7175" x1="352.689" y1="315.799" x2="524.34" y2="610.066" gradientUnits="userSpaceOnUse">
<stop stop-color="white"/>
<stop offset="1" stop-color="#005FD2"/>
</linearGradient>
<linearGradient id="paint12_linear_331_7175" x1="355.991" y1="312.083" x2="512.241" y2="614.809" gradientUnits="userSpaceOnUse">
<stop stop-color="white"/>
<stop offset="1" stop-color="#005FD2"/>
</linearGradient>
<linearGradient id="paint13_linear_331_7175" x1="358.219" y1="309.072" x2="499.853" y2="618.906" gradientUnits="userSpaceOnUse">
<stop stop-color="white"/>
<stop offset="1" stop-color="#005FD2"/>
</linearGradient>
<linearGradient id="paint14_linear_331_7175" x1="359.551" y1="306.637" x2="487.47" y2="622.379" gradientUnits="userSpaceOnUse">
<stop stop-color="white"/>
<stop offset="1" stop-color="#005FD2"/>
</linearGradient>
<linearGradient id="paint15_linear_331_7175" x1="360.155" y1="304.663" x2="475.358" y2="625.265" gradientUnits="userSpaceOnUse">
<stop stop-color="white"/>
<stop offset="1" stop-color="#005FD2"/>
</linearGradient>
<linearGradient id="paint16_linear_331_7175" x1="360.194" y1="303.063" x2="463.754" y2="627.613" gradientUnits="userSpaceOnUse">
<stop stop-color="white"/>
<stop offset="1" stop-color="#005FD2"/>
</linearGradient>
<linearGradient id="paint17_linear_331_7175" x1="359.818" y1="301.768" x2="452.869" y2="629.485" gradientUnits="userSpaceOnUse">
<stop stop-color="white"/>
<stop offset="1" stop-color="#005FD2"/>
</linearGradient>
<linearGradient id="paint18_linear_331_7175" x1="359.163" y1="300.72" x2="442.889" y2="630.943" gradientUnits="userSpaceOnUse">
<stop stop-color="white"/>
<stop offset="1" stop-color="#005FD2"/>
</linearGradient>
<linearGradient id="paint19_linear_331_7175" x1="358.352" y1="299.88" x2="433.974" y2="632.052" gradientUnits="userSpaceOnUse">
<stop stop-color="white"/>
<stop offset="1" stop-color="#005FD2"/>
</linearGradient>
<linearGradient id="paint20_linear_331_7175" x1="357.491" y1="299.21" x2="426.256" y2="632.869" gradientUnits="userSpaceOnUse">
<stop stop-color="white"/>
<stop offset="1" stop-color="#005FD2"/>
</linearGradient>
<linearGradient id="paint21_linear_331_7175" x1="356.672" y1="298.694" x2="419.848" y2="633.456" gradientUnits="userSpaceOnUse">
<stop stop-color="white"/>
<stop offset="1" stop-color="#005FD2"/>
</linearGradient>
</defs>
</svg>
