<svg width="30" height="30" viewBox="0 0 30 30" fill="none" xmlns="http://www.w3.org/2000/svg">
<path d="M15.0005 10.0018C15.332 10.0018 15.65 10.1335 15.8844 10.3679C16.1188 10.6024 16.2505 10.9203 16.2505 11.2518C16.2505 11.5834 16.1188 11.9013 15.8844 12.1357C15.65 12.3701 15.332 12.5018 15.0005 12.5018C14.669 12.5018 14.351 12.3701 14.1166 12.1357C13.8822 11.9013 13.7505 11.5834 13.7505 11.2518C13.7505 10.9203 13.8822 10.6024 14.1166 10.3679C14.351 10.1335 14.669 10.0018 15.0005 10.0018ZM26.2505 13.7518C26.2505 20.6893 21.4505 27.1768 15.0005 28.7518C8.55049 27.1768 3.75049 20.6893 3.75049 13.7518V6.25183L15.0005 1.25183L26.2505 6.25183V13.7518ZM15.0005 7.50183C14.0059 7.50183 13.0521 7.89692 12.3488 8.60018C11.6456 9.30344 11.2505 10.2573 11.2505 11.2518C11.2505 12.8893 12.288 14.2768 13.7505 14.7893V22.5018H16.2505V20.0018H18.7505V17.5018H16.2505V14.7893C17.713 14.2768 18.7505 12.8893 18.7505 11.2518C18.7505 10.2573 18.3554 9.30344 17.6521 8.60018C16.9489 7.89692 15.995 7.50183 15.0005 7.50183Z" fill="#005FD2"/>
</svg>
