<svg width="30" height="30" viewBox="0 0 30 30" fill="none" xmlns="http://www.w3.org/2000/svg">
<path d="M18.75 17.4995C15.4125 17.4995 8.75 19.162 8.75 22.4995V24.9995H28.75V22.4995C28.75 19.162 22.0875 17.4995 18.75 17.4995ZM18.75 14.9995C20.0761 14.9995 21.3478 14.4727 22.2855 13.535C23.2232 12.5974 23.75 11.3256 23.75 9.99951C23.75 8.67343 23.2232 7.40166 22.2855 6.46398C21.3478 5.5263 20.0761 4.99951 18.75 4.99951C17.4239 4.99951 16.1521 5.5263 15.2145 6.46398C14.2768 7.40166 13.75 8.67343 13.75 9.99951C13.75 11.3256 14.2768 12.5974 15.2145 13.535C16.1521 14.4727 17.4239 14.9995 18.75 14.9995ZM6.25 16.5995L9.3125 18.462L8.5 14.9495L11.25 12.5995L7.6375 12.287L6.25 8.98701L4.8375 12.287L1.25 12.5995L3.975 14.9495L3.125 18.462L6.25 16.5995Z" fill="#005FD2"/>
</svg>
