<svg width="30" height="30" viewBox="0 0 30 30" fill="none" xmlns="http://www.w3.org/2000/svg">
<path d="M27.5 14.9982C27.5 18.3134 26.183 21.4928 23.8388 23.837C21.4946 26.1812 18.3152 27.4982 15 27.4982C13.3585 27.4982 11.733 27.1748 10.2165 26.5467C8.69989 25.9185 7.3219 24.9977 6.16117 23.837C3.81696 21.4928 2.5 18.3134 2.5 14.9982C2.5 11.683 3.81696 8.50354 6.16117 6.15933C8.50537 3.81513 11.6848 2.49817 15 2.49817C16.6415 2.49817 18.267 2.82149 19.7835 3.44967C21.3001 4.07786 22.6781 4.9986 23.8388 6.15933C24.9996 7.32007 25.9203 8.69806 26.5485 10.2146C27.1767 11.7312 27.5 13.3566 27.5 14.9982ZM7.5 12.4982L15 19.9982L22.5 12.4982L20.75 10.7482L15 16.4982L9.25 10.7482L7.5 12.4982Z" fill="#005FD2"/>
</svg>
