<svg width="187" height="151" viewBox="0 0 187 151" fill="none" xmlns="http://www.w3.org/2000/svg">
<rect x="80.543" y="105.306" width="106.207" height="44.5241" rx="9.75" fill="white" fill-opacity="0.2" stroke="#AFA9F7" stroke-width="0.5"/>
<path fill-rule="evenodd" clip-rule="evenodd" d="M106.563 134.122C110.169 135.019 113.816 132.814 114.71 129.196C115.603 125.585 113.415 121.931 109.819 121.026C109.814 121.024 109.809 121.023 109.804 121.022L109.801 121.021C106.195 120.124 102.548 122.329 101.653 125.947C100.759 129.565 102.957 133.225 106.563 134.122ZM107.93 126.931C108.435 127.067 109.516 127.358 109.708 126.589H109.702C109.897 125.802 108.827 125.567 108.314 125.454C108.257 125.442 108.208 125.431 108.167 125.421L107.799 126.897C107.836 126.906 107.88 126.918 107.93 126.931ZM107.353 129.309C107.955 129.469 109.271 129.818 109.479 128.975C109.692 128.113 108.424 127.826 107.8 127.685C107.728 127.669 107.666 127.654 107.614 127.641L107.209 129.272C107.25 129.282 107.299 129.295 107.353 129.309ZM109.689 124.9C110.612 125.22 111.293 125.703 111.16 126.602L111.16 126.602C111.057 127.269 110.7 127.579 110.216 127.69C110.879 128.036 111.217 128.566 110.895 129.485C110.496 130.628 109.552 130.724 108.291 130.485L107.986 131.712L107.248 131.529L107.547 130.308C107.355 130.261 107.159 130.211 106.96 130.156L106.658 131.373L105.92 131.187L106.225 129.958L105.699 129.821L104.739 129.582L105.105 128.739C105.105 128.739 105.643 128.882 105.643 128.871H105.643C105.785 128.917 105.936 128.838 105.981 128.696L106.463 126.754L106.54 126.775C106.516 126.764 106.491 126.756 106.465 126.75L106.809 125.364C106.826 125.154 106.673 124.968 106.465 124.942C106.475 124.934 105.929 124.807 105.929 124.807L106.124 124.016L107.144 124.271L107.614 124.377L107.917 123.16L108.655 123.345L108.361 124.543C108.558 124.588 108.758 124.634 108.951 124.683L109.246 123.497L109.992 123.683L109.689 124.9Z" fill="white"/>
<path d="M118.968 132.203C119.36 132.204 119.747 132.104 120.09 131.912C120.443 131.723 120.754 131.463 121.002 131.148C121.261 130.816 121.465 130.443 121.606 130.045C121.754 129.634 121.829 129.2 121.828 128.763C121.852 128.32 121.758 127.878 121.555 127.483C121.374 127.177 121.038 127.021 120.55 127.021C120.338 127.028 120.127 127.057 119.92 127.108C119.663 127.165 119.425 127.289 119.23 127.466L118.116 132.14L118.295 132.173C118.348 132.187 118.402 132.195 118.457 132.199C118.526 132.207 118.597 132.211 118.667 132.209L118.967 132.203L118.968 132.203ZM121.181 124.897C121.667 124.886 122.151 124.986 122.593 125.188C122.978 125.372 123.316 125.641 123.581 125.975C123.853 126.321 124.054 126.717 124.17 127.141C124.297 127.609 124.36 128.093 124.357 128.578C124.356 130.087 123.773 131.537 122.73 132.625C122.224 133.146 121.623 133.562 120.958 133.852C120.262 134.16 119.508 134.317 118.747 134.312H118.209C117.916 134.303 117.624 134.277 117.334 134.236C116.98 134.185 116.629 134.115 116.283 134.025C115.92 133.939 115.568 133.813 115.232 133.65L118.186 121.236L120.824 120.814L119.773 125.22C119.992 125.121 120.219 125.041 120.452 124.982C120.692 124.923 120.938 124.894 121.185 124.896L121.181 124.898L121.181 124.897Z" fill="white"/>
<path d="M128.308 123.993C127.965 123.996 127.629 123.886 127.354 123.679C127.062 123.447 126.905 123.085 126.934 122.713C126.932 122.48 126.982 122.251 127.079 122.04C127.171 121.834 127.302 121.648 127.463 121.491C127.625 121.337 127.812 121.213 128.016 121.124C128.229 121.033 128.458 120.986 128.689 120.987C129.03 120.986 129.362 121.097 129.635 121.304C129.926 121.536 130.083 121.898 130.055 122.27C130.057 122.502 130.008 122.733 129.912 122.944C129.819 123.149 129.69 123.334 129.53 123.491C129.369 123.645 129.181 123.769 128.977 123.858C128.764 123.949 128.535 123.995 128.304 123.993H128.308V123.993ZM127.083 134.072H124.561L126.692 125.087H129.229L127.083 134.072H127.083Z" fill="white"/>
<path d="M131.436 122.85L134.073 122.44L133.418 125.087H136.243L135.734 127.171H132.932L132.184 130.305C132.119 130.545 132.079 130.791 132.064 131.039C132.048 131.24 132.078 131.442 132.15 131.629C132.22 131.798 132.351 131.934 132.516 132.011C132.753 132.117 133.013 132.165 133.272 132.15C133.539 132.151 133.804 132.125 134.065 132.072C134.327 132.021 134.586 131.95 134.838 131.862L135.028 133.81C134.665 133.941 134.295 134.049 133.92 134.133C133.456 134.232 132.982 134.278 132.507 134.27C131.723 134.27 131.118 134.152 130.685 133.92C130.28 133.713 129.955 133.376 129.764 132.962C129.578 132.523 129.496 132.046 129.527 131.57C129.555 131.012 129.635 130.457 129.764 129.913L131.435 122.841V122.85H131.436Z" fill="white"/>
<path d="M136.15 130.484C136.145 129.739 136.271 128.998 136.524 128.297C136.761 127.634 137.126 127.025 137.596 126.503C138.071 125.985 138.647 125.572 139.29 125.292C139.991 124.988 140.748 124.836 141.512 124.847C141.973 124.841 142.433 124.89 142.882 124.992C143.26 125.082 143.628 125.211 143.98 125.376L143.103 127.352C142.876 127.26 142.641 127.18 142.397 127.106C142.106 127.024 141.805 126.987 141.504 126.994C140.741 126.966 140.008 127.289 139.513 127.871C139.021 128.452 138.774 129.232 138.773 130.212C138.75 130.709 138.881 131.201 139.147 131.621C139.396 131.98 139.856 132.159 140.526 132.159C140.847 132.159 141.167 132.125 141.48 132.056C141.76 131.996 142.034 131.91 142.298 131.8L142.485 133.834C142.141 133.964 141.791 134.075 141.434 134.167C140.982 134.269 140.519 134.317 140.055 134.31C139.44 134.328 138.827 134.224 138.252 134.004C137.795 133.819 137.383 133.537 137.045 133.176C136.725 132.826 136.489 132.407 136.354 131.952C136.211 131.473 136.14 130.976 136.144 130.476L136.15 130.484V130.484Z" fill="white"/>
<path d="M148.596 127.002C148.24 126.997 147.893 127.111 147.608 127.325C147.319 127.549 147.077 127.828 146.895 128.145C146.696 128.483 146.545 128.849 146.45 129.23C146.357 129.595 146.309 129.97 146.307 130.347C146.284 130.808 146.378 131.266 146.578 131.68C146.761 131.999 147.089 132.159 147.566 132.159C147.922 132.165 148.271 132.051 148.554 131.834C148.843 131.61 149.086 131.331 149.269 131.014C149.466 130.676 149.612 130.311 149.704 129.93C149.795 129.564 149.844 129.188 149.847 128.81C149.87 128.35 149.777 127.891 149.576 127.477C149.393 127.161 149.063 127 148.588 127L148.596 127.002H148.596ZM147.335 134.312C146.799 134.325 146.267 134.231 145.767 134.038C145.346 133.872 144.971 133.609 144.67 133.27C144.374 132.929 144.151 132.531 144.014 132.1C143.865 131.616 143.794 131.112 143.804 130.607C143.805 129.91 143.916 129.218 144.134 128.557C144.345 127.891 144.674 127.269 145.105 126.72C145.538 126.171 146.076 125.715 146.687 125.378C147.346 125.023 148.084 124.844 148.831 124.857C149.364 124.848 149.894 124.941 150.391 125.132C150.812 125.295 151.19 125.555 151.495 125.889C151.789 126.231 152.011 126.629 152.148 127.059C152.298 127.543 152.369 128.048 152.359 128.555C152.357 129.25 152.248 129.942 152.037 130.604C151.83 131.271 151.507 131.896 151.083 132.45C150.656 133.001 150.12 133.457 149.508 133.789C148.84 134.146 148.092 134.326 147.335 134.312Z" fill="white"/>
<path d="M156.342 123.993C155.999 123.996 155.664 123.886 155.39 123.679C155.098 123.447 154.941 123.085 154.97 122.713C154.969 122.481 155.018 122.251 155.115 122.04C155.205 121.835 155.331 121.65 155.489 121.492C155.651 121.338 155.839 121.214 156.044 121.124C156.256 121.033 156.484 120.986 156.714 120.987C157.058 120.984 157.394 121.096 157.669 121.304C157.96 121.536 158.117 121.898 158.089 122.27C158.09 122.503 158.039 122.733 157.942 122.944C157.851 123.149 157.721 123.334 157.561 123.491C157.4 123.645 157.213 123.769 157.009 123.858C156.798 123.948 156.571 123.994 156.342 123.993L156.342 123.993ZM155.119 134.072H152.597L154.724 125.087H157.263L155.119 134.072Z" fill="white"/>
<path d="M159.079 125.497C159.27 125.442 159.482 125.374 159.709 125.301C159.936 125.227 160.201 125.159 160.493 125.09C160.814 125.021 161.137 124.97 161.462 124.936C161.867 124.893 162.273 124.872 162.68 124.874C164.008 124.874 164.924 125.262 165.429 126.037C165.731 126.501 165.884 127.067 165.887 127.735V127.783C165.885 128.218 165.821 128.695 165.694 129.215L164.536 134.065H162.005L163.129 129.316C163.196 129.021 163.251 128.734 163.291 128.453C163.335 128.211 163.335 127.962 163.291 127.719C163.249 127.517 163.138 127.335 162.976 127.207C162.752 127.059 162.485 126.99 162.217 127.011C161.88 127.011 161.544 127.046 161.215 127.114L159.562 134.074H157.017L159.079 125.497Z" fill="white"/>
<rect x="56.5303" y="0.25" width="106.207" height="44.5241" rx="9.75" fill="white" fill-opacity="0.2" stroke="#AFA9F7" stroke-width="0.5"/>
<path fill-rule="evenodd" clip-rule="evenodd" d="M89.8184 25.6458C90.2164 25.8222 90.6518 25.8484 90.9631 25.8484C91.8829 25.8484 92.5784 25.2677 92.5784 23.2262C92.5784 21.6254 92.0065 21.1086 91.1739 21.1086C90.6762 21.1086 90.3158 21.2477 89.8184 21.5244V25.6458ZM89.8315 20.592C90.2036 20.3909 90.8375 20.1253 91.5091 20.1253C93.0508 20.1253 93.884 21.2093 93.884 23.2262C93.884 25.5836 92.7649 26.7305 90.9631 26.7305C90.3037 26.7305 89.2843 26.5162 88.5379 26.1119V17.3146L89.8315 17V20.592ZM75.9976 20.2619H76.085L77.7751 26.5524H79.1179L81.1326 17.6155H79.6779L78.4096 24.2839H78.3226L76.5944 17.6155H75.4875L73.8717 24.2839H73.7847L72.3922 17.6155H71L73.0142 26.5524H74.3559L75.9976 20.2619ZM85.7455 22.7483H82.899C83.0351 21.4885 83.6198 20.8962 84.3782 20.8962C85.0493 20.8962 85.6837 21.4252 85.7455 22.7483ZM86.7399 26.0768V25.1187C86.0566 25.5338 85.435 25.7738 84.7638 25.7737C83.4828 25.7737 82.8741 25.1055 82.8741 23.5934H86.927V23.1269C86.927 21.0729 85.9691 20.0511 84.4155 20.0511C82.5506 20.0511 81.5935 21.4377 81.5935 23.3545C81.5935 25.3458 82.4513 26.6567 84.5393 26.6567C85.435 26.6567 86.1805 26.4044 86.7399 26.0768ZM99.5416 24.6564H99.4794L96.695 17.6102H95.1902V26.5478H96.3092V20.2199H96.4207L98.9578 26.5478H99.7528L102.289 20.0684H102.401V26.5478H103.744V17.6102H102.202L99.5416 24.6564ZM109.23 23.3541C109.23 21.6525 108.547 20.9344 107.701 20.9344C106.881 20.9344 106.172 21.6525 106.172 23.3541C106.172 25.0812 106.819 25.7737 107.701 25.7737C108.583 25.7737 109.23 25.0812 109.23 23.3541ZM104.867 23.3541C104.867 21.1475 106.061 20.0511 107.701 20.0511C109.343 20.0511 110.536 21.1475 110.536 23.3541C110.536 25.5091 109.405 26.6567 107.701 26.6567C105.998 26.6567 104.867 25.5091 104.867 23.3541ZM111.519 20.9846C112.078 20.6438 113.26 20.0511 114.689 20.0511C116.181 20.0511 116.74 20.6438 116.74 21.9417V26.5053H115.448V22.232C115.448 21.2364 114.963 21.06 114.329 21.06C113.832 21.06 113.197 21.2871 112.812 21.514V26.5053H111.519V20.9846ZM122.323 22.7483H119.476C119.614 21.4885 120.197 20.8962 120.956 20.8962C121.627 20.8962 122.262 21.4252 122.323 22.7483ZM123.317 26.0768V25.1187C122.635 25.5338 122.012 25.7738 121.342 25.7737C120.061 25.7737 119.452 25.1055 119.452 23.5934H123.505V23.1269C123.505 21.0729 122.548 20.0511 120.993 20.0511C119.128 20.0511 118.171 21.4377 118.171 23.3545C118.171 25.3458 119.03 26.6567 121.117 26.6567C122.012 26.6567 122.758 26.4044 123.317 26.0768ZM130 20.0511H128.669L127.253 24.6896H127.178L125.587 20.0511H124.219L126.606 26.3528C126.307 27.2861 125.786 27.9672 124.94 27.9672V29C126.37 29 127.127 28.0924 127.75 26.3528L130 20.0511Z" fill="white"/>
<path d="M140.962 15C142.21 15 143.398 15.2904 144.464 15.8099C144.631 15.8865 144.799 15.9781 144.966 16.0698L144.235 16.7271L143.139 15.5809L141.252 17.2618L140.14 16.0543L136.669 19.1874L138.891 21.6479L138.024 22.4119L140.216 24.8724L139.349 25.636L142.485 29.1357L144.341 27.424L145.956 29.2584C145.636 29.503 145.286 29.748 144.905 29.9615C143.748 30.6186 142.408 31 140.977 31C136.577 31 133 27.4093 133 22.9931C132.985 18.6067 136.562 15 140.962 15ZM139.5 22.5038L141.403 20.792L143.109 22.7023L141.205 24.4138L139.5 22.5038ZM140.856 25.8048L142.743 24.078L144.464 25.988L142.56 27.6999L140.856 25.8048ZM138.146 19.2487L140.049 17.537L141.754 19.4472L139.85 21.1589L138.146 19.2487ZM141.632 18.3315L143.048 17.0478L144.327 18.4692L142.911 19.768L141.632 18.3315ZM144.159 24.2152L145.575 22.9315L146.854 24.3676L145.438 25.6522L144.159 24.2152ZM145.407 27.1039L146.823 25.8199L148.101 27.2411L146.686 28.5398L145.407 27.1039ZM145.986 20.5016L146.93 19.6457L147.782 20.5936L146.838 21.4491L145.986 20.5016ZM144.768 17.6743L145.712 16.8034L146.565 17.7661L145.62 18.6219L144.768 17.6743ZM147.188 23.3291L148.132 22.4733L149 23.4208L148.041 24.2764L147.188 23.3291ZM142.941 21.2047L144.357 19.921L145.636 21.342L144.22 22.626L142.941 21.2047Z" fill="white"/>
<rect x="0.25" y="52.7781" width="106.207" height="44.5241" rx="9.75" fill="white" fill-opacity="0.2" stroke="#AFA9F7" stroke-width="0.5"/>
<path fill-rule="evenodd" clip-rule="evenodd" d="M43.1459 81.6884H39.5878L36.9196 71.2099C36.793 70.7279 36.5241 70.3018 36.1285 70.101C35.1414 69.5962 34.0537 69.1946 32.8671 68.992V68.5886H38.5989C39.39 68.5886 39.9833 69.1946 40.0822 69.8984L41.4666 77.4569L45.0229 68.5886H48.4822L43.1459 81.6884ZM50.4595 81.6884H47.0992L49.8662 68.5886H53.2266L50.4595 81.6884ZM57.5745 72.2176C57.6734 71.512 58.2667 71.1086 58.9589 71.1086C60.0466 71.0073 61.2315 71.2099 62.2203 71.7129L62.8137 68.8924C61.8248 68.489 60.7371 68.2864 59.75 68.2864C56.4885 68.2864 54.1153 70.1009 54.1153 72.6192C54.1153 74.5351 55.7963 75.541 56.9829 76.147C58.2667 76.7513 58.7611 77.1547 58.6622 77.759C58.6622 78.6653 57.6734 79.0688 56.6863 79.0688C55.4997 79.0688 54.3131 78.7666 53.2271 78.2619L52.6338 81.0841C53.8204 81.5871 55.1041 81.7897 56.2907 81.7897C59.9477 81.8892 62.2203 80.0765 62.2203 77.3555C62.2203 73.9291 57.5745 73.7282 57.5745 72.2176ZM73.9802 81.6884L71.312 68.5886H68.4461C67.8528 68.5886 67.2595 68.992 67.0617 69.5962L62.121 81.6884H65.5802L66.2707 79.7744H70.521L70.9165 81.6884H73.9802ZM68.9409 72.1164L69.928 77.0535H67.161L68.9409 72.1164Z" fill="white"/>
</svg>
