<svg width="1520" height="680" fill="none" xmlns="http://www.w3.org/2000/svg"><mask id="a" style="mask-type:alpha" maskUnits="userSpaceOnUse" x="0" y="0" width="1520" height="680"><rect width="1520" height="680" rx="20" fill="#DAE6F3"/><rect x=".5" y=".5" width="1519" height="679" rx="19.5" stroke="url(#paint0_linear_349_36677)" stroke-opacity=".3"/></mask><g mask="url(#a)" stroke-opacity=".3"><path d="M228.583 1046.73c281.359-121.189 741.322-371.15 330.302-401.513S-6.378 319.122 355.98 307.317c203.909 107.191 575.114 246.571 428.663-53.436-183.064-375.009-270.531-671.375-27.63-524.983 242.902 146.393 582.127 318.591 489.007-35.854" stroke="url(#paint1_linear_349_36677)"/><path d="M-220.126 224.987C18.739 416.801 455.041 706.088 289.331 328.729 123.622-48.63 312.648-323.434 492.819-8.821c.814 230.365 51.556 623.615 248.01 353.692C986.396 7.468 1207.26-208.637 1191.71 74.541c-15.56 283.179-8.79 663.544 260.74 415.24" stroke="url(#paint2_linear_349_36677)"/><path d="M202.447 999.22c291.142-95.313 771.777-302.767 365.171-370.08-406.606-67.312-533.547-375.75-171.601-354.824 193.41 125.146 550.53 297.44 431.736-14.554-148.493-389.992-208.872-693.04 19.835-525.334C1076.3-97.867 1398.6 104.226 1337.83-257.174" stroke="url(#paint3_linear_349_36677)"/><path d="M174.448 950.817c298.285-69.82 795.036-235.002 395.76-337.169C170.933 511.481 71.096 193.234 429.884 245.332c181.882 141.378 522.794 343.863 431.38 22.777-114.267-401.357-148.255-708.486 65.118-521.661C1139.76-66.726 1443.41 162.44 1414.07-202.857" stroke="url(#paint4_linear_349_36677)"/><path d="M145.222 901.676c303.028-44.98 811.71-168.627 422.222-303.378C177.955 463.547 104.708 138.15 457.976 219.663c169.602 155.898 492.65 385.811 428.031 58.28-80.773-409.415-89.314-718.3 107.923-514.513 197.24 203.788 480.96 457.219 481.85 90.747" stroke="url(#paint5_linear_349_36677)"/><path d="M115.335 852.021c305.626-21.017 822.455-104.289 444.766-269.245C182.412 417.821 134.974 87.673 480.74 196.708c156.82 168.749 460.794 423.347 422.125 91.75-48.336-414.498-32.567-723.099 148.035-504.435C1231.51 2.686 1494.42 277.638 1524.12-87.63" stroke="url(#paint6_linear_349_36677)"/><path d="M85.287 802.12c306.342 1.89 827.95-42.513 463.649-235.242C184.635 374.15 162.01 41.379 498.658 175.957c143.766 180 427.856 456.611 414.085 123.05-17.215-416.951 21.581-723.51 185.337-491.957 163.75 231.553 405.38 525.391 462.3 163.365" stroke="url(#paint7_linear_349_36677)"/><path d="M55.51 752.278c305.436 23.603 828.88 16.29 479.159-201.78S185.971-1.109 512.231 156.996C642.875 346.735 906.64 642.789 916.55 309.092c12.388-417.123 72.819-720.159 219.74-477.58 146.93 242.58 367.12 552.807 449.56 195.727" stroke="url(#paint8_linear_349_36677)"/><path d="M26.37 702.821c303.168 44.023 825.924 71.812 491.607-169.209-334.318-241.021-310.94-573.74 3.988-394.121 117.632 198.07 360.96 511.138 393.216 178.855C955.5-97.008 1036.11-395.312 1166.44-143.43c130.34 251.882 329.23 576.17 435.43 225.42" stroke="url(#paint9_linear_349_36677)"/><path d="M-1.824 654.089c299.782 63.083 819.74 123.836 501.313-137.82-318.426-261.657-274.08-592.234 28.875-393.083C633.25 328.29 856.318 656.103 909.497 326.521c66.474-411.978 165.763-704.595 279.923-444.984 114.17 259.612 292.19 595.816 420.32 252.474" stroke="url(#paint10_linear_349_36677)"/><path d="M-28.82 606.423c295.514 80.749 810.954 172.226 508.603-107.851-302.351-280.078-238.48-607.444 52.132-390.679 92.54 210.963 295.777 551.427 368.406 225.578C991.107-73.841 1107.57-360.056 1206.14-94.131c98.57 265.924 256.34 612.093 404.61 276.953" stroke="url(#paint11_linear_349_36677)"/><path d="M-54.417 560.164c290.583 97.005 800.16 216.913 513.799-79.493C173.021 184.264 254.94-139.058 533.09 93.483c80.703 215.768 264.756 566.973 355.335 245.651C1001.65-62.519 1133.8-341.839 1217.48-70.859c83.68 270.979 222.01 625.361 388.63 298.954" stroke="url(#paint12_linear_349_36677)"/><path d="M-78.46 515.642C206.735 627.5 709.45 773.524 438.754 462.746 168.058 151.969 266.538-166.7 532.328 79.874c69.471 219.642 235.17 579.87 342.197 263.646C1008.31-51.76 1154.68-323.895 1224.28-48.961c69.6 274.934 189.48 635.976 372.7 318.596" stroke="url(#paint13_linear_349_36677)"/><path d="M-100.832 473.171c279.536 125.333 774.716 295.167 519.149-28.167C162.75 121.67 276.317-191.94 530.045 67.03c58.916 222.705 207.246 590.426 329.233 279.666C1011.76-41.754 1170.95-306.597 1227.35-28.657c56.41 277.94 158.93 644.289 357.09 336.008" stroke="url(#paint14_linear_349_36677)"/><path d="M-121.448 433.051c273.775 137.463 761.036 328.834 519.885-5.389C157.285 93.438 284.486-214.893 526.621 54.947c49.101 225.074 181.173 598.942 316.661 293.826C1012.64-32.622 1183.28-290.234 1227.45-10.089c44.17 280.144 130.54 650.635 342.02 351.334" stroke="url(#paint15_linear_349_36677)"/><path d="M-140.252 395.559c268.063 148.292 747.29 358.977 519.684 15.386C151.826 67.354 291.245-235.649 522.406 43.649c40.068 226.856 157.098 605.702 304.668 306.243C1011.54-24.431 1192.34-275.02 1225.28 6.666c32.94 281.685 104.44 655.331 327.7 364.718" stroke="url(#paint16_linear_349_36677)"/><path d="M-157.214 360.949c262.539 157.867 733.851 385.708 518.792 34.127-215.06-351.58-64.799-649.354 156.133-361.897 31.857 228.153 135.141 610.976 293.42 317.037C1008.98-17.208 1198.7-261.11 1221.46 21.581c22.75 282.691 80.73 658.672 314.33 376.305" stroke="url(#paint17_linear_349_36677)"/><path d="M-172.315 329.452c257.317 166.242 721.046 409.146 517.423 50.821-203.624-358.325-43.849-651.105 167.709-356.68 24.491 229.061 115.39 615.011 283.055 326.323C1005.45-10.944 1202.94-248.609 1216.57 34.669c13.64 283.277 59.47 660.931 302.05 386.235" stroke="url(#paint18_linear_349_36677)"/><path d="M-185.556 301.274c252.503 173.468 709.162 429.415 515.775 65.464-193.387-363.952-25.38-652.086 177.75-351.785 17.99 229.664 97.915 618.035 273.694 334.215C1001.39-5.608 1205.52-237.581 1211.13 45.969c5.6 283.55 40.71 662.352 290.98 394.64" stroke="url(#paint19_linear_349_36677)"/><path d="M-196.943 276.596C51.24 456.19 501.5 723.234 317.076 354.66 132.652-13.915 307.659-297.852 503.38 7.33c12.365 230.034 82.764 620.245 265.435 340.81C997.153-1.153 1206.91-228.062 1205.57 55.54c-1.33 283.603 24.5 663.15 281.24 401.642" stroke="url(#paint20_linear_349_36677)"/><path d="M-206.489 255.572C37.943 440.239 482.607 716.5 305.813 344.206 129.018-28.089 309.836-308.362 499.231.786c7.625 230.241 69.972 621.819 258.359 346.205C993.074 2.474 1207.45-220.066 1200.28 63.448c-7.18 283.515 10.83 663.513 272.91 407.348" stroke="url(#paint21_linear_349_36677)"/><path d="M-214.211 238.334c241.31 188.729 681.292 472.387 510.748 97.188C125.992-39.676 311.472-316.887 495.67-4.615c3.774 230.336 59.565 622.902 252.534 350.477C989.416 5.331 1207.49-213.594 1195.57 69.762c-11.91 283.354-.26 663.6 266.06 411.854" stroke="url(#paint22_linear_349_36677)"/></g><defs><linearGradient id="paint0_linear_349_36677" x1="760" y1="0" x2="760" y2="680" gradientUnits="userSpaceOnUse"><stop stop-color="#fff"/><stop offset="1" stop-color="#005FD2"/></linearGradient><linearGradient id="paint1_linear_349_36677" x1="342.778" y1="45.33" x2="909.552" y2="511.588" gradientUnits="userSpaceOnUse"><stop stop-color="#fff"/><stop offset="1" stop-color="#005FD2"/></linearGradient><linearGradient id="paint2_linear_349_36677" x1="718.099" y1="-143.208" x2="571.656" y2="575.947" gradientUnits="userSpaceOnUse"><stop stop-color="#fff"/><stop offset="1" stop-color="#005FD2"/></linearGradient><linearGradient id="paint3_linear_349_36677" x1="406.5" y1="12.206" x2="928.909" y2="527.686" gradientUnits="userSpaceOnUse"><stop stop-color="#fff"/><stop offset="1" stop-color="#005FD2"/></linearGradient><linearGradient id="paint4_linear_349_36677" x1="462.958" y1="-14.893" x2="938.91" y2="543.766" gradientUnits="userSpaceOnUse"><stop stop-color="#fff"/><stop offset="1" stop-color="#005FD2"/></linearGradient><linearGradient id="paint5_linear_349_36677" x1="512.4" y1="-36.947" x2="940.652" y2="559.065" gradientUnits="userSpaceOnUse"><stop stop-color="#fff"/><stop offset="1" stop-color="#005FD2"/></linearGradient><linearGradient id="paint6_linear_349_36677" x1="555.17" y1="-54.83" x2="935.239" y2="573.005" gradientUnits="userSpaceOnUse"><stop stop-color="#fff"/><stop offset="1" stop-color="#005FD2"/></linearGradient><linearGradient id="paint7_linear_349_36677" x1="591.684" y1="-69.313" x2="923.755" y2="585.179" gradientUnits="userSpaceOnUse"><stop stop-color="#fff"/><stop offset="1" stop-color="#005FD2"/></linearGradient><linearGradient id="paint8_linear_349_36677" x1="622.411" y1="-81.062" x2="907.247" y2="595.324" gradientUnits="userSpaceOnUse"><stop stop-color="#fff"/><stop offset="1" stop-color="#005FD2"/></linearGradient><linearGradient id="paint9_linear_349_36677" x1="647.854" y1="-90.646" x2="886.712" y2="603.311" gradientUnits="userSpaceOnUse"><stop stop-color="#fff"/><stop offset="1" stop-color="#005FD2"/></linearGradient><linearGradient id="paint10_linear_349_36677" x1="668.538" y1="-98.54" x2="863.086" y2="609.119" gradientUnits="userSpaceOnUse"><stop stop-color="#fff"/><stop offset="1" stop-color="#005FD2"/></linearGradient><linearGradient id="paint11_linear_349_36677" x1="684.991" y1="-105.13" x2="837.235" y2="612.819" gradientUnits="userSpaceOnUse"><stop stop-color="#fff"/><stop offset="1" stop-color="#005FD2"/></linearGradient><linearGradient id="paint12_linear_349_36677" x1="697.737" y1="-110.729" x2="809.951" y2="614.556" gradientUnits="userSpaceOnUse"><stop stop-color="#fff"/><stop offset="1" stop-color="#005FD2"/></linearGradient><linearGradient id="paint13_linear_349_36677" x1="707.287" y1="-115.576" x2="781.954" y2="614.53" gradientUnits="userSpaceOnUse"><stop stop-color="#fff"/><stop offset="1" stop-color="#005FD2"/></linearGradient><linearGradient id="paint14_linear_349_36677" x1="714.126" y1="-119.854" x2="753.887" y2="612.982" gradientUnits="userSpaceOnUse"><stop stop-color="#fff"/><stop offset="1" stop-color="#005FD2"/></linearGradient><linearGradient id="paint15_linear_349_36677" x1="718.715" y1="-123.69" x2="726.323" y2="610.185" gradientUnits="userSpaceOnUse"><stop stop-color="#fff"/><stop offset="1" stop-color="#005FD2"/></linearGradient><linearGradient id="paint16_linear_349_36677" x1="721.483" y1="-127.17" x2="699.764" y2="606.423" gradientUnits="userSpaceOnUse"><stop stop-color="#fff"/><stop offset="1" stop-color="#005FD2"/></linearGradient><linearGradient id="paint17_linear_349_36677" x1="722.822" y1="-130.346" x2="674.648" y2="601.985" gradientUnits="userSpaceOnUse"><stop stop-color="#fff"/><stop offset="1" stop-color="#005FD2"/></linearGradient><linearGradient id="paint18_linear_349_36677" x1="723.09" y1="-133.241" x2="651.35" y2="597.159" gradientUnits="userSpaceOnUse"><stop stop-color="#fff"/><stop offset="1" stop-color="#005FD2"/></linearGradient><linearGradient id="paint19_linear_349_36677" x1="722.602" y1="-135.858" x2="630.192" y2="592.215" gradientUnits="userSpaceOnUse"><stop stop-color="#fff"/><stop offset="1" stop-color="#005FD2"/></linearGradient><linearGradient id="paint20_linear_349_36677" x1="721.638" y1="-138.185" x2="611.443" y2="587.409" gradientUnits="userSpaceOnUse"><stop stop-color="#fff"/><stop offset="1" stop-color="#005FD2"/></linearGradient><linearGradient id="paint21_linear_349_36677" x1="720.44" y1="-140.203" x2="595.324" y2="582.968" gradientUnits="userSpaceOnUse"><stop stop-color="#fff"/><stop offset="1" stop-color="#005FD2"/></linearGradient><linearGradient id="paint22_linear_349_36677" x1="719.206" y1="-141.885" x2="582.015" y2="579.092" gradientUnits="userSpaceOnUse"><stop stop-color="#fff"/><stop offset="1" stop-color="#005FD2"/></linearGradient></defs></svg>