<svg width="8" height="102" fill="none" xmlns="http://www.w3.org/2000/svg"><path d="M3.646 101.354a.5.5 0 00.708 0l3.182-3.182a.5.5 0 10-.708-.707L4 100.293l-2.828-2.829a.5.5 0 10-.708.708l3.182 3.182zM3.5 1.515a.5.5 0 001 0h-1zm1 2.02a.5.5 0 00-1 0h1zm-1 3.03a.5.5 0 001 0h-1zm1 2.02a.5.5 0 00-1 0h1zm-1 3.03a.5.5 0 001 0h-1zm1 2.02a.5.5 0 00-1 0h1zm-1 3.03a.5.5 0 001 0h-1zm1 2.02a.5.5 0 00-1 0h1zm-1 3.03a.5.5 0 001 0h-1zm1 2.02a.5.5 0 00-1 0h1zm-1 3.03a.5.5 0 001 0h-1zm1 2.02a.5.5 0 00-1 0h1zm-1 3.03a.5.5 0 001 0h-1zm1 2.02a.5.5 0 00-1 0h1zm-1 3.03a.5.5 0 001 0h-1zm1 2.02a.5.5 0 00-1 0h1zm-1 3.03a.5.5 0 001 0h-1zm1 2.02a.5.5 0 00-1 0h1zm-1 3.03a.5.5 0 001 0h-1zm1 2.02a.5.5 0 00-1 0h1zm-1 3.03a.5.5 0 001 0h-1zm1 2.02a.5.5 0 00-1 0h1zm-1 3.03a.5.5 0 001 0h-1zm1 2.02a.5.5 0 00-1 0h1zm-1 3.03a.5.5 0 001 0h-1zm1 2.02a.5.5 0 00-1 0h1zm-1 3.03a.5.5 0 001 0h-1zm1 2.02a.5.5 0 10-1 0h1zm-1 3.03a.5.5 0 001 0h-1zm1 2.02a.5.5 0 10-1 0h1zm-1 3.03a.5.5 0 001 0h-1zm1 2.02a.5.5 0 10-1 0h1zm-1 3.03a.5.5 0 001 0h-1zm1 2.02a.5.5 0 10-1 0h1zm-1 3.03a.5.5 0 001 0h-1zm1 2.02a.5.5 0 10-1 0h1zm-1 3.03a.5.5 0 001 0h-1zm1 2.02a.5.5 0 10-1 0h1zm-1 3.03a.5.5 0 001 0h-1zm1 2.02a.5.5 0 10-1 0h1zM3.5 0v1.515h1V0h-1zm0 3.535v3.03h1v-3.03h-1zm0 5.05v3.03h1v-3.03h-1zm0 5.05v3.03h1v-3.03h-1zm0 5.05v3.03h1v-3.03h-1zm0 5.05v3.03h1v-3.03h-1zm0 5.05v3.03h1v-3.03h-1zm0 5.05v3.03h1v-3.03h-1zm0 5.05v3.03h1v-3.03h-1zm0 5.05v3.03h1v-3.03h-1zm0 5.05v3.03h1v-3.03h-1zm0 5.05v3.03h1v-3.03h-1zm0 5.05v3.03h1v-3.03h-1zm0 5.05v3.03h1v-3.03h-1zm0 5.05v3.03h1v-3.03h-1zm0 5.05v3.03h1v-3.03h-1zm0 5.05v3.03h1v-3.03h-1zm0 5.05v3.03h1v-3.03h-1zm0 5.05v3.03h1v-3.03h-1zm0 5.05v3.03h1v-3.03h-1zm0 5.05V101h1v-1.515h-1zm.146 1.869a.5.5 0 00.708 0l3.182-3.182a.5.5 0 10-.708-.707L4 100.293l-2.828-2.829a.5.5 0 10-.708.708l3.182 3.182zM3.5 1.515a.5.5 0 001 0h-1zm1 2.02a.5.5 0 00-1 0h1zm-1 3.03a.5.5 0 001 0h-1zm1 2.02a.5.5 0 00-1 0h1zm-1 3.03a.5.5 0 001 0h-1zm1 2.02a.5.5 0 00-1 0h1zm-1 3.03a.5.5 0 001 0h-1zm1 2.02a.5.5 0 00-1 0h1zm-1 3.03a.5.5 0 001 0h-1zm1 2.02a.5.5 0 00-1 0h1zm-1 3.03a.5.5 0 001 0h-1zm1 2.02a.5.5 0 00-1 0h1zm-1 3.03a.5.5 0 001 0h-1zm1 2.02a.5.5 0 00-1 0h1zm-1 3.03a.5.5 0 001 0h-1zm1 2.02a.5.5 0 00-1 0h1zm-1 3.03a.5.5 0 001 0h-1zm1 2.02a.5.5 0 00-1 0h1zm-1 3.03a.5.5 0 001 0h-1zm1 2.02a.5.5 0 00-1 0h1zm-1 3.03a.5.5 0 001 0h-1zm1 2.02a.5.5 0 00-1 0h1zm-1 3.03a.5.5 0 001 0h-1zm1 2.02a.5.5 0 00-1 0h1zm-1 3.03a.5.5 0 001 0h-1zm1 2.02a.5.5 0 00-1 0h1zm-1 3.03a.5.5 0 001 0h-1zm1 2.02a.5.5 0 10-1 0h1zm-1 3.03a.5.5 0 001 0h-1zm1 2.02a.5.5 0 10-1 0h1zm-1 3.03a.5.5 0 001 0h-1zm1 2.02a.5.5 0 10-1 0h1zm-1 3.03a.5.5 0 001 0h-1zm1 2.02a.5.5 0 10-1 0h1zm-1 3.03a.5.5 0 001 0h-1zm1 2.02a.5.5 0 10-1 0h1zm-1 3.03a.5.5 0 001 0h-1zm1 2.02a.5.5 0 10-1 0h1zm-1 3.03a.5.5 0 001 0h-1zm1 2.02a.5.5 0 10-1 0h1zM3.5 0v1.515h1V0h-1zm0 3.535v3.03h1v-3.03h-1zm0 5.05v3.03h1v-3.03h-1zm0 5.05v3.03h1v-3.03h-1zm0 5.05v3.03h1v-3.03h-1zm0 5.05v3.03h1v-3.03h-1zm0 5.05v3.03h1v-3.03h-1zm0 5.05v3.03h1v-3.03h-1zm0 5.05v3.03h1v-3.03h-1zm0 5.05v3.03h1v-3.03h-1zm0 5.05v3.03h1v-3.03h-1zm0 5.05v3.03h1v-3.03h-1zm0 5.05v3.03h1v-3.03h-1zm0 5.05v3.03h1v-3.03h-1zm0 5.05v3.03h1v-3.03h-1zm0 5.05v3.03h1v-3.03h-1zm0 5.05v3.03h1v-3.03h-1zm0 5.05v3.03h1v-3.03h-1zm0 5.05v3.03h1v-3.03h-1zm0 5.05v3.03h1v-3.03h-1zm0 5.05V101h1v-1.515h-1z" fill="#014BA5"/></svg>