<svg width="2632" height="943" fill="none" xmlns="http://www.w3.org/2000/svg"><path d="M69.182 487.864c17.735-4.117 230.559-209.978 514.324 0 283.764 209.978 452.254 172.923 647.334 0 195.09-172.923 434.52-160.571 682.81 0 248.3 160.571 461.12 181.157 673.94 0" stroke="url(#paint0_linear_223_1257)"/><path d="M194.312 97.494c19.375 1.956 463.103-96.5 400.665 149.768C532.539 493.53 713.82 513.714 1099.26 435.763c385.44-77.952 555.29 1.394 531.92 198.83-23.37 197.436 114.63 275.452 525.01 196.247" stroke="url(#paint1_linear_223_1257)"/><path d="M80.366 454.533c18.187-3.668 254.562-203.913 513.579 12.85 259.017 216.764 431.555 183.972 646.405 16.174 214.84-167.798 452.49-149.482 681.82 17.06 229.32 166.542 439.45 192.416 672.96 16.838" stroke="url(#paint2_linear_223_1257)"/><path d="M91.056 422.929c18.571-3.227 276.91-197.535 511.464 25.151 234.554 222.687 410.51 194.077 643.74 31.656 233.23-162.421 468.52-138.43 679.01 33.39s417.46 202.699 670.19 32.957" stroke="url(#paint3_linear_223_1257)"/><path d="M101.221 393.003c18.892-2.796 297.631-190.928 508.154 36.876 210.523 227.805 389.312 203.274 639.575 46.413 250.26-156.861 482.71-127.491 674.62 48.956 191.91 176.448 395.33 212.046 665.86 48.321" stroke="url(#paint4_linear_223_1257)"/><path d="M110.833 364.707c19.156-2.377 316.769-184.171 503.824 48.006s368.145 211.605 634.123 60.422c265.98-151.184 495.17-116.737 668.87 63.732 173.7 180.468 373.27 220.498 660.18 62.904" stroke="url(#paint5_linear_223_1257)"/><path d="M119.877 337.994c19.368-1.973 334.372-177.335 498.636 58.529 164.264 235.865 347.171 219.114 627.597 73.666 280.42-145.448 506.02-106.226 661.98 77.702 155.96 183.929 351.42 228.106 653.38 76.693" stroke="url(#paint6_linear_223_1257)"/><path d="M128.345 312.822c19.533-1.585 350.502-170.49 492.749 68.439 142.247 238.928 326.538 225.848 620.186 86.138 293.64-139.709 515.4-96.016 654.16 90.859 138.77 186.875 329.95 234.917 645.67 89.679" stroke="url(#paint7_linear_223_1257)"/><path d="M136.237 289.147c19.656-1.213 365.221-163.694 486.31 77.735 121.089 241.429 306.377 231.858 612.083 97.839 305.7-134.018 523.42-86.152 645.62 103.201 122.19 189.352 308.98 240.984 637.23 101.86" stroke="url(#paint8_linear_223_1257)"/><path d="M143.557 266.93c19.742-.858 378.601-157.003 479.461 86.422 100.859 243.426 286.807 237.193 603.462 108.772 316.65-128.421 530.22-76.675 636.52 114.733 106.31 191.407 288.66 246.359 628.26 113.242" stroke="url(#paint9_linear_223_1257)"/><path d="M150.317 246.136c19.797-.522 390.716-150.47 472.332 94.506 81.617 244.975 267.931 241.904 594.491 118.946 326.55-122.957 535.9-67.62 627.06 125.465 91.15 193.085 269.05 251.096 618.92 123.835" stroke="url(#paint10_linear_223_1257)"/><path d="M156.526 226.729c19.824-.205 401.639-144.137 465.047 101.998 63.409 246.134 249.84 246.042 585.317 128.376 335.48-117.667 540.6-59.017 617.39 135.41 76.79 194.428 250.28 255.247 609.37 133.652" stroke="url(#paint11_linear_223_1257)"/><path d="M162.206 208.678c19.828.092 411.445-138.045 457.718 108.911 46.272 246.956 232.613 249.657 576.096 137.077 343.48-112.58 544.42-50.889 607.66 144.588 63.23 195.476 232.41 258.863 599.76 142.71" stroke="url(#paint12_linear_223_1257)"/><path d="M167.374 191.955c19.812.369 420.209-132.232 450.448 115.259 30.238 247.491 216.32 252.795 566.948 145.068 350.62-107.728 547.47-43.256 598 153.016 50.54 196.271 215.53 261.994 590.25 151.029" stroke="url(#paint13_linear_223_1257)"/><path d="M172.05 176.532c19.782.625 428.005-126.727 443.333 121.059 15.328 247.787 201.018 255.504 557.987 152.368 356.97-103.136 549.87-36.134 588.57 160.717 38.7 196.851 199.67 264.689 580.92 158.629" stroke="url(#paint14_linear_223_1257)"/><path d="M176.254 162.385c19.742.862 434.904-121.56 436.461 126.328 1.558 247.888 186.757 257.826 549.335 159 362.59-98.827 551.69-29.537 579.44 167.712 27.75 197.248 184.9 266.992 571.92 165.533" stroke="url(#paint15_linear_223_1257)"/><path d="M180.012 149.492c19.692 1.079 440.971-116.752 429.908 131.083-11.063 247.836 173.578 259.804 541.09 164.984 367.51-94.82 553.04-23.474 570.74 174.024 17.7 197.498 171.26 268.947 563.33 171.764" stroke="url(#paint16_linear_223_1257)"/><path d="M183.345 137.834c19.638 1.275 446.271-112.327 423.744 135.341-22.526 247.668 161.519 261.475 533.331 170.342 371.82-91.132 554-17.953 562.56 179.676 8.56 197.629 158.77 270.593 555.25 177.343" stroke="url(#paint17_linear_223_1257)"/><path d="M186.275 127.394c19.581 1.451 450.862-108.303 418.032 139.117-32.83 247.42 150.606 262.875 526.143 175.095 375.54-87.779 554.64-12.979 554.97 184.69.34 197.669 147.49 271.967 547.77 182.292" stroke="url(#paint18_linear_223_1257)"/><path d="M188.822 118.155c19.524 1.607 454.8-104.693 412.826 142.429-41.973 247.121 140.864 264.037 519.592 179.263 378.73-84.773 555.04-8.556 548.06 189.086-6.97 197.643 137.41 273.102 540.95 186.631" stroke="url(#paint19_linear_223_1257)"/><path d="M191.002 110.106c19.471 1.742 458.134-101.512 408.176 145.289C549.22 502.196 731.49 520.384 1112.92 438.26c381.42-82.125 555.25-4.688 541.88 192.884-13.36 197.571 128.56 274.029 534.85 190.379" stroke="url(#paint20_linear_223_1257)"/><path d="M192.836 103.233c19.421 1.859 460.906-98.77 404.12 147.714-56.786 246.482 124.965 265.756 508.634 185.915 383.67-79.842 555.34-1.374 536.5 196.102-18.83 197.475 120.96 274.773 529.54 193.555" stroke="url(#paint21_linear_223_1257)"/><defs><linearGradient id="paint0_linear_223_1257" x1="1328.39" y1="631.786" x2="1328.39" y2="362.761" gradientUnits="userSpaceOnUse"><stop stop-color="#FFF9F9"/><stop offset="1" stop-color="#82BAFF"/></linearGradient><linearGradient id="paint1_linear_223_1257" x1="980.939" y1="576.327" x2="1094.23" y2="273.251" gradientUnits="userSpaceOnUse"><stop stop-color="#FFF9F9"/><stop offset="1" stop-color="#82BAFF"/></linearGradient><linearGradient id="paint2_linear_223_1257" x1="1321.07" y1="629.708" x2="1327.8" y2="360.461" gradientUnits="userSpaceOnUse"><stop stop-color="#FFF9F9"/><stop offset="1" stop-color="#82BAFF"/></linearGradient><linearGradient id="paint3_linear_223_1257" x1="1310.61" y1="627.628" x2="1323.88" y2="357.75" gradientUnits="userSpaceOnUse"><stop stop-color="#FFF9F9"/><stop offset="1" stop-color="#82BAFF"/></linearGradient><linearGradient id="paint4_linear_223_1257" x1="1297.45" y1="625.482" x2="1317.11" y2="354.617" gradientUnits="userSpaceOnUse"><stop stop-color="#FFF9F9"/><stop offset="1" stop-color="#82BAFF"/></linearGradient><linearGradient id="paint5_linear_223_1257" x1="1282.02" y1="623.223" x2="1307.95" y2="351.062" gradientUnits="userSpaceOnUse"><stop stop-color="#FFF9F9"/><stop offset="1" stop-color="#82BAFF"/></linearGradient><linearGradient id="paint6_linear_223_1257" x1="1264.7" y1="620.822" x2="1296.83" y2="347.104" gradientUnits="userSpaceOnUse"><stop stop-color="#FFF9F9"/><stop offset="1" stop-color="#82BAFF"/></linearGradient><linearGradient id="paint7_linear_223_1257" x1="1245.89" y1="618.264" x2="1284.15" y2="342.774" gradientUnits="userSpaceOnUse"><stop stop-color="#FFF9F9"/><stop offset="1" stop-color="#82BAFF"/></linearGradient><linearGradient id="paint8_linear_223_1257" x1="1225.95" y1="615.547" x2="1270.3" y2="338.114" gradientUnits="userSpaceOnUse"><stop stop-color="#FFF9F9"/><stop offset="1" stop-color="#82BAFF"/></linearGradient><linearGradient id="paint9_linear_223_1257" x1="1205.23" y1="612.681" x2="1255.61" y2="333.175" gradientUnits="userSpaceOnUse"><stop stop-color="#FFF9F9"/><stop offset="1" stop-color="#82BAFF"/></linearGradient><linearGradient id="paint10_linear_223_1257" x1="1184.04" y1="609.684" x2="1240.4" y2="328.017" gradientUnits="userSpaceOnUse"><stop stop-color="#FFF9F9"/><stop offset="1" stop-color="#82BAFF"/></linearGradient><linearGradient id="paint11_linear_223_1257" x1="1162.69" y1="606.581" x2="1224.95" y2="322.705" gradientUnits="userSpaceOnUse"><stop stop-color="#FFF9F9"/><stop offset="1" stop-color="#82BAFF"/></linearGradient><linearGradient id="paint12_linear_223_1257" x1="1141.45" y1="603.403" x2="1209.52" y2="317.305" gradientUnits="userSpaceOnUse"><stop stop-color="#FFF9F9"/><stop offset="1" stop-color="#82BAFF"/></linearGradient><linearGradient id="paint13_linear_223_1257" x1="1120.58" y1="600.189" x2="1194.35" y2="311.89" gradientUnits="userSpaceOnUse"><stop stop-color="#FFF9F9"/><stop offset="1" stop-color="#82BAFF"/></linearGradient><linearGradient id="paint14_linear_223_1257" x1="1100.31" y1="596.976" x2="1179.62" y2="306.529" gradientUnits="userSpaceOnUse"><stop stop-color="#FFF9F9"/><stop offset="1" stop-color="#82BAFF"/></linearGradient><linearGradient id="paint15_linear_223_1257" x1="1080.85" y1="593.806" x2="1165.51" y2="301.292" gradientUnits="userSpaceOnUse"><stop stop-color="#FFF9F9"/><stop offset="1" stop-color="#82BAFF"/></linearGradient><linearGradient id="paint16_linear_223_1257" x1="1062.39" y1="590.72" x2="1152.18" y2="296.246" gradientUnits="userSpaceOnUse"><stop stop-color="#FFF9F9"/><stop offset="1" stop-color="#82BAFF"/></linearGradient><linearGradient id="paint17_linear_223_1257" x1="1045.1" y1="587.761" x2="1139.74" y2="291.455" gradientUnits="userSpaceOnUse"><stop stop-color="#FFF9F9"/><stop offset="1" stop-color="#82BAFF"/></linearGradient><linearGradient id="paint18_linear_223_1257" x1="1029.15" y1="584.968" x2="1128.32" y2="286.976" gradientUnits="userSpaceOnUse"><stop stop-color="#FFF9F9"/><stop offset="1" stop-color="#82BAFF"/></linearGradient><linearGradient id="paint19_linear_223_1257" x1="1014.65" y1="582.38" x2="1117.99" y2="282.864" gradientUnits="userSpaceOnUse"><stop stop-color="#FFF9F9"/><stop offset="1" stop-color="#82BAFF"/></linearGradient><linearGradient id="paint20_linear_223_1257" x1="1001.73" y1="580.033" x2="1108.82" y2="279.166" gradientUnits="userSpaceOnUse"><stop stop-color="#FFF9F9"/><stop offset="1" stop-color="#82BAFF"/></linearGradient><linearGradient id="paint21_linear_223_1257" x1="990.488" y1="577.96" x2="1100.89" y2="275.924" gradientUnits="userSpaceOnUse"><stop stop-color="#FFF9F9"/><stop offset="1" stop-color="#82BAFF"/></linearGradient></defs></svg>