<svg width="876" height="258" fill="none" xmlns="http://www.w3.org/2000/svg"><mask id="a" style="mask-type:alpha" maskUnits="userSpaceOnUse" x="0" y="0" width="876" height="258"><path fill-rule="evenodd" clip-rule="evenodd" d="M20 0C8.954 0 0 8.954 0 20v218c0 11.046 8.954 20 20 20h490.917c18.849 0 31.056-28.37 26.162-46.574A90.116 90.116 0 01534 188c0-49.706 40.294-90 90-90s90 40.294 90 90a90.116 90.116 0 01-3.079 23.426C706.027 229.63 718.234 258 737.083 258H856c11.046 0 20-8.954 20-20V20c0-11.046-8.954-20-20-20H20z" fill="#D9D9D9"/></mask><g mask="url(#a)"><path d="M447.415 552.682c107.648-106.762 274.242-305.175 79.433-244.738-194.808 60.438-319.399-47.845-154.638-118.893 113.327 12.449 309.537 9.433 187.762-102.23C407.753-52.755 313.804-173.421 452.189-149.975c138.385 23.445 325.805 41.336 218.738-105.057" stroke="url(#paint0_linear_219_648)"/><path d="M91.955 255.444c144.749 45.097 398.085 99.34 253.434-44.463C200.738 67.178 238.043-93.62 377.994 18.664c42.087 105.956 136.663 277.895 178.273 118 52.012-199.868 114.612-339.395 158.722-206.15C759.099 63.76 831.086 237.726 910.27 74.557" stroke="url(#paint1_linear_219_648)"/><path d="M426.774 535.534c116.84-96.617 300.651-279.195 101.185-236.575-199.466 42.619-313.782-76.459-143.284-132.358 111.742 22.621 307.424 37.315 196.217-84.876C441.883-71.014 359.201-199.66 494.907-163.83c135.706 35.832 320.749 70.555 227.322-84.899" stroke="url(#paint2_linear_219_648)"/><path d="M405.115 518.309c124.744-86.168 323.633-252.194 121.232-226.955-202.401 25.238-306.008-103.266-131.322-144.234 109.372 32.184 303.055 63.718 202.813-67.618C472.536-84.67 401.27-219.975 533.376-172.56c132.105 47.415 313.459 97.984 233.803-64.955" stroke="url(#paint3_linear_219_648)"/><path d="M382.756 500.967c131.427-75.585 343.332-224.641 139.539-216.183-203.793 8.459-296.449-128.152-118.978-154.573 106.345 41.095 296.767 88.497 207.699-50.66-111.335-173.946-171.198-314.669-43.453-256.52 127.744 58.149 304.31 123.505 238.364-45.45" stroke="url(#paint4_linear_219_648)"/><path d="M360 483.508c136.962-65.019 359.93-196.954 156.102-204.543-203.827-7.59-285.455-151.063-106.457-163.45C512.43 164.844 698.536 227.07 620.684 81.341c-97.315-182.16-145.929-327.154-23.151-259.142C720.31-109.788 891.191-30.754 838.732-204.37" stroke="url(#paint5_linear_219_648)"/><path d="M337.124 465.965C478.563 411.367 710.77 296.469 508.08 273.664c-202.689-22.806-273.364-171.98-93.94-170.951 98.809 56.875 279.743 132.84 213.003-18.301-83.425-188.926-121.064-337.148-3.714-260.148S905.273-7.148 865.94-184.2" stroke="url(#paint6_linear_219_648)"/><path d="M314.384 448.4c144.954-44.433 384.722-142.58 184.16-179.697-200.563-37.118-260.485-190.927-81.585-177.18 94.528 63.736 269.622 152.336 213.764-3.156-69.821-194.365-96.857-344.882 14.738-259.756 111.596 85.126 269.183 188.145 242.501 8.75" stroke="url(#paint7_linear_219_648)"/><path d="M292.008 430.897c147.606-34.617 393.414-116.472 195.79-166.95C290.174 213.47 240.697 55.99 418.273 81.697c90.044 69.93 258.804 170.067 213.495 11.18-56.636-198.607-73.523-350.598 32.116-258.184C769.523-72.892 919.85 40.458 905.253-140.322" stroke="url(#paint8_linear_219_648)"/><path d="M270.198 413.556c149.498-25.225 399.985-91.39 205.944-154.249-194.041-62.86-233.472-223.15-57.875-186.278 85.447 75.477 247.546 186.074 212.363 24.643-43.978-201.788-51.231-354.543 48.36-255.64 99.59 98.903 242.458 221.522 239.308 40.181" stroke="url(#paint9_linear_219_648)"/><path d="M249.134 396.49c150.731-16.316 404.7-67.511 214.728-141.766C273.89 180.469 244.033 18.123 417.135 65.343c80.821 80.411 236.076 200.425 210.528 37.192-31.936-204.042-30.118-356.957 63.433-252.323 93.551 104.634 228.896 235.509 236.505 54.3" stroke="url(#paint10_linear_219_648)"/><path d="M228.967 379.819c151.404-7.936 407.82-44.975 222.256-129.646-185.564-84.671-206.376-248.422-36.158-191.68 76.24 84.767 224.604 213.202 208.143 48.804-20.577-205.498-10.285-358.077 77.322-248.419 87.607 109.659 215.49 247.835 233.132 67.326" stroke="url(#paint11_linear_219_648)"/><path d="M209.832 363.666c151.612-.119 409.597-23.888 228.646-118.014-180.952-94.126-193.293-258.733-26.227-193.29 71.768 88.586 213.312 224.5 205.349 59.472-9.953-206.285 8.192-358.131 90.029-244.101 81.836 114.03 202.424 258.615 229.35 79.257" stroke="url(#paint12_linear_219_648)"/><path d="M191.838 348.155c151.445 7.112 410.27-4.325 234.014-106.974C249.595 138.531 245.119-26.477 408.874 46.86c67.461 91.908 202.362 234.418 202.279 69.198-.103-206.526 25.263-357.333 101.568-239.53C789.025-5.669 902.581 144.504 938.03-33.367" stroke="url(#paint13_linear_219_648)"/><path d="M175.077 333.409c150.988 13.742 410.066 13.659 238.478-96.616-171.589-110.275-168.83-275.32-8.446-194.878 63.368 94.775 191.894 243.061 199.052 77.996 8.947-206.332 40.898-355.883 111.967-234.849C787.197 6.096 894.062 161.101 937.272-15.045" stroke="url(#paint14_linear_219_648)"/><path d="M159.628 319.545c150.318 19.764 409.193 30.032 242.147-87.011-167.046-117.042-157.695-281.846-.653-195.06 59.531 97.232 182.03 250.534 195.777 85.887 17.184-205.81 55.085-353.965 121.261-230.188C784.336 16.95 884.923 176.1 935.136 1.822" stroke="url(#paint15_linear_219_648)"/><path d="M145.549 306.676c149.508 25.174 407.843 44.776 245.129-78.218-162.713-122.993-147.422-287.352 6.386-194.956 55.984 99.316 172.872 256.939 192.551 92.895 24.598-205.056 67.82-351.747 129.487-225.663S875.548 189.495 932.017 17.141" stroke="url(#paint16_linear_219_648)"/><path d="M132.89 294.903c148.619 29.977 406.189 57.89 247.521-70.281-158.667-128.17-138.09-291.952 12.662-194.65 52.756 101.069 164.506 262.375 189.459 99.049 31.191-204.156 79.116-349.379 136.689-221.374C776.795 35.652 866.285 201.297 928.276 30.85" stroke="url(#paint17_linear_219_648)"/><path d="M121.69 284.322c147.709 34.177 404.385 69.378 249.413-63.238C216.131 88.468 241.342-74.664 389.276 26.871 439.147 129.394 546.28 293.802 575.852 131.25 612.816-71.941 664.837-215.747 718.76-86.162c53.923 129.585 138.682 297.699 205.479 129.08" stroke="url(#paint18_linear_219_648)"/><path d="M111.977 275.017c146.829 37.781 402.566 79.252 250.886-57.117C211.182 81.532 240.377-80.934 385.782 24.19c47.347 103.713 150.427 270.693 183.966 108.913 41.925-202.226 97.449-344.716 148.185-213.85C768.669 50.118 849.29 220.255 920.192 53.32" stroke="url(#paint19_linear_219_648)"/><path d="M103.774 267.062c146.019 40.797 400.849 87.526 252.009-51.937S239.477-86.169 382.687 21.928c45.201 104.666 144.819 273.733 181.684 112.678 46.08-201.32 104.527-342.636 152.557-210.753 48.031 131.883 125.13 303.645 199.455 138.205" stroke="url(#paint20_linear_219_648)"/><path d="M97.095 260.521c145.317 43.233 399.329 94.216 252.842-47.716S238.686-90.392 380.068 20.085c43.445 105.407 140.222 276.116 179.774 115.7 49.441-200.52 110.242-340.84 156.061-208.172C761.721 60.28 835.938 233.308 913.019 69.134" stroke="url(#paint21_linear_219_648)"/></g><defs><linearGradient id="paint0_linear_219_648" x1="318.692" y1="70.773" x2="664.166" y2="182.902" gradientUnits="userSpaceOnUse"><stop stop-color="#fff"/><stop offset="1" stop-color="#005FD2"/></linearGradient><linearGradient id="paint1_linear_219_648" x1="457.423" y1="-84.024" x2="520.188" y2="273.727" gradientUnits="userSpaceOnUse"><stop stop-color="#fff"/><stop offset="1" stop-color="#005FD2"/></linearGradient><linearGradient id="paint2_linear_219_648" x1="342.044" y1="43.979" x2="675.996" y2="186.812" gradientUnits="userSpaceOnUse"><stop stop-color="#fff"/><stop offset="1" stop-color="#005FD2"/></linearGradient><linearGradient id="paint3_linear_219_648" x1="363.141" y1="21.274" x2="683.513" y2="192.407" gradientUnits="userSpaceOnUse"><stop stop-color="#fff"/><stop offset="1" stop-color="#005FD2"/></linearGradient><linearGradient id="paint4_linear_219_648" x1="381.921" y1="2.164" x2="687.087" y2="199.138" gradientUnits="userSpaceOnUse"><stop stop-color="#fff"/><stop offset="1" stop-color="#005FD2"/></linearGradient><linearGradient id="paint5_linear_219_648" x1="398.382" y1="-13.817" x2="687.118" y2="206.539" gradientUnits="userSpaceOnUse"><stop stop-color="#fff"/><stop offset="1" stop-color="#005FD2"/></linearGradient><linearGradient id="paint6_linear_219_648" x1="412.577" y1="-27.099" x2="684.031" y2="214.225" gradientUnits="userSpaceOnUse"><stop stop-color="#fff"/><stop offset="1" stop-color="#005FD2"/></linearGradient><linearGradient id="paint7_linear_219_648" x1="424.602" y1="-38.074" x2="678.266" y2="221.887" gradientUnits="userSpaceOnUse"><stop stop-color="#fff"/><stop offset="1" stop-color="#005FD2"/></linearGradient><linearGradient id="paint8_linear_219_648" x1="434.586" y1="-47.096" x2="670.254" y2="229.284" gradientUnits="userSpaceOnUse"><stop stop-color="#fff"/><stop offset="1" stop-color="#005FD2"/></linearGradient><linearGradient id="paint9_linear_219_648" x1="442.683" y1="-54.476" x2="660.423" y2="236.237" gradientUnits="userSpaceOnUse"><stop stop-color="#fff"/><stop offset="1" stop-color="#005FD2"/></linearGradient><linearGradient id="paint10_linear_219_648" x1="449.068" y1="-60.491" x2="649.187" y2="242.622" gradientUnits="userSpaceOnUse"><stop stop-color="#fff"/><stop offset="1" stop-color="#005FD2"/></linearGradient><linearGradient id="paint11_linear_219_648" x1="453.924" y1="-65.377" x2="636.934" y2="248.362" gradientUnits="userSpaceOnUse"><stop stop-color="#fff"/><stop offset="1" stop-color="#005FD2"/></linearGradient><linearGradient id="paint12_linear_219_648" x1="457.445" y1="-69.339" x2="624.034" y2="253.42" gradientUnits="userSpaceOnUse"><stop stop-color="#fff"/><stop offset="1" stop-color="#005FD2"/></linearGradient><linearGradient id="paint13_linear_219_648" x1="459.821" y1="-72.548" x2="610.827" y2="257.789" gradientUnits="userSpaceOnUse"><stop stop-color="#fff"/><stop offset="1" stop-color="#005FD2"/></linearGradient><linearGradient id="paint14_linear_219_648" x1="461.24" y1="-75.145" x2="597.624" y2="261.492" gradientUnits="userSpaceOnUse"><stop stop-color="#fff"/><stop offset="1" stop-color="#005FD2"/></linearGradient><linearGradient id="paint15_linear_219_648" x1="461.885" y1="-77.25" x2="584.711" y2="264.567" gradientUnits="userSpaceOnUse"><stop stop-color="#fff"/><stop offset="1" stop-color="#005FD2"/></linearGradient><linearGradient id="paint16_linear_219_648" x1="461.927" y1="-78.955" x2="572.339" y2="267.072" gradientUnits="userSpaceOnUse"><stop stop-color="#fff"/><stop offset="1" stop-color="#005FD2"/></linearGradient><linearGradient id="paint17_linear_219_648" x1="461.525" y1="-80.337" x2="560.734" y2="269.067" gradientUnits="userSpaceOnUse"><stop stop-color="#fff"/><stop offset="1" stop-color="#005FD2"/></linearGradient><linearGradient id="paint18_linear_219_648" x1="460.827" y1="-81.454" x2="550.094" y2="270.621" gradientUnits="userSpaceOnUse"><stop stop-color="#fff"/><stop offset="1" stop-color="#005FD2"/></linearGradient><linearGradient id="paint19_linear_219_648" x1="459.962" y1="-82.351" x2="540.588" y2="271.802" gradientUnits="userSpaceOnUse"><stop stop-color="#fff"/><stop offset="1" stop-color="#005FD2"/></linearGradient><linearGradient id="paint20_linear_219_648" x1="459.045" y1="-83.063" x2="532.36" y2="272.675" gradientUnits="userSpaceOnUse"><stop stop-color="#fff"/><stop offset="1" stop-color="#005FD2"/></linearGradient><linearGradient id="paint21_linear_219_648" x1="458.171" y1="-83.615" x2="525.528" y2="273.3" gradientUnits="userSpaceOnUse"><stop stop-color="#fff"/><stop offset="1" stop-color="#005FD2"/></linearGradient></defs></svg>