<svg width="27" height="20" fill="none" xmlns="http://www.w3.org/2000/svg"><path d="M.608 1.667C.608.747 1.336 0 2.233 0h22.75c.898 0 1.625.746 1.625 1.667 0 .92-.727 1.666-1.625 1.666H2.233c-.897 0-1.625-.746-1.625-1.666zm0 8.333c0-.92.728-1.667 1.625-1.667h22.75c.898 0 1.625.747 1.625 1.667s-.727 1.667-1.625 1.667H2.233C1.336 11.667.608 10.92.608 10zm0 8.333c0-.92.728-1.666 1.625-1.666h22.75c.898 0 1.625.746 1.625 1.666 0 .92-.727 1.667-1.625 1.667H2.233c-.897 0-1.625-.746-1.625-1.667z" fill="#282828"/></svg>