<svg width="30" height="30" fill="none" xmlns="http://www.w3.org/2000/svg"><path d="M15 2.5C9.5 2.5 5 7 5 12.5c0 6.75 8.75 14.375 9.125 14.75.25.125.625.25.875.25s.625-.125.875-.25c.375-.375 9.125-8 9.125-14.75 0-5.5-4.5-10-10-10zm0 22.125c-2.625-2.5-7.5-7.875-7.5-12.125C7.5 8.375 10.875 5 15 5s7.5 3.375 7.5 7.5-4.875 9.625-7.5 12.125zM15 7.5c-2.75 0-5 2.25-5 5s2.25 5 5 5 5-2.25 5-5-2.25-5-5-5zm0 7.5a2.507 2.507 0 01-2.5-2.5c0-1.375 1.125-2.5 2.5-2.5s2.5 1.125 2.5 2.5S16.375 15 15 15z" fill="#005FD2"/></svg>