<svg width="30" height="30" fill="none" xmlns="http://www.w3.org/2000/svg"><path d="M4.791 5h5.613l1.809 4.523-2.906 1.937a1.25 1.25 0 00-.557 1.04c.003.117 0 .001 0 .001v.026a2.52 2.52 0 00.008.168c.006.103.02.242.044.412.048.339.142.803.325 1.35.366 1.1 1.086 2.524 2.49 3.927 1.402 1.403 2.825 2.123 3.925 2.49a7.787 7.787 0 001.351.324 5.512 5.512 0 00.58.052h.026s.14-.008.001 0a1.25 1.25 0 001.118-.691l.837-1.674 5.545.924v5.4c-2.639.381-9.766.758-15.366-4.843C4.034 14.766 4.41 7.64 4.79 5zm6.551 8.108l2.257-1.505a2.5 2.5 0 00.935-3.009l-1.81-4.522a2.5 2.5 0 00-2.32-1.572H4.726c-1.136 0-2.205.789-2.391 2.021-.424 2.803-1.002 11.08 5.531 17.613 6.533 6.532 14.81 5.955 17.613 5.531 1.232-.186 2.021-1.255 2.021-2.391v-5.465a2.5 2.5 0 00-2.089-2.466l-5.545-.924a2.5 2.5 0 00-2.647 1.348l-.433.866a5.8 5.8 0 01-.453-.131c-.776-.259-1.852-.789-2.95-1.886-1.096-1.097-1.626-2.173-1.885-2.949-.07-.21-.12-.398-.156-.56z" fill="#005FD2"/></svg>