<svg width="77" height="94" fill="none" xmlns="http://www.w3.org/2000/svg"><path d="M18.9 92.245a20.669 20.669 0 01-4.851-4.5c-1.512-1.802-2.883-3.709-4.166-5.678a55.307 55.307 0 01-6.958-14.206C.97 62.001.025 56.386.025 50.893c0-6.135 1.327-11.49 3.922-15.99 1.907-3.51 4.761-6.455 8.195-8.514a21.827 21.827 0 0111.091-3.282c1.374 0 2.854.2 4.424.58 1.128.32 2.502.824 4.18 1.45 2.137.824 3.311 1.328 3.71 1.45 1.25.458 2.303.657 3.129.657.627 0 1.511-.2 2.516-.504.566-.199 1.632-.55 3.159-1.204 1.511-.55 2.7-1.022 3.647-1.374 1.45-.428 2.854-.823 4.105-1.022 1.526-.229 3.035-.305 4.485-.185 2.777.185 5.311.78 7.585 1.632 3.981 1.602 7.201 4.104 9.597 7.661a18.594 18.594 0 00-2.838 2.15c-1.908 1.68-3.51 3.663-4.808 5.874a19.995 19.995 0 00-2.517 9.841c.062 4.228 1.146 7.952 3.282 11.171 1.526 2.35 3.539 4.348 5.997 5.997 1.221.823 2.273 1.389 3.281 1.77a51.288 51.288 0 01-1.57 4.289 56.188 56.188 0 01-4.884 9.032c-1.694 2.458-3.02 4.29-4.028 5.508-1.57 1.86-3.083 3.281-4.609 4.271a10.293 10.293 0 01-5.678 1.708c-1.374.062-2.73-.123-4.043-.489a44.648 44.648 0 01-3.342-1.266 26.752 26.752 0 00-3.525-1.327 17.742 17.742 0 00-4.547-.58c-1.57 0-3.096.2-4.532.566a28.98 28.98 0 00-3.556 1.265c-1.632.686-2.716 1.146-3.343 1.342a17.339 17.339 0 01-3.862.671c-2.03 0-3.922-.58-5.797-1.755l.05-.04zm26.778-72.114c-2.655 1.327-5.189 1.892-7.705 1.708-.396-2.534 0-5.127 1.051-7.966.932-2.426 2.183-4.608 3.906-6.562a20.791 20.791 0 016.363-4.914C51.871 1.07 54.329.353 56.679.247c.304 2.654 0 5.265-.976 8.086a23.383 23.383 0 01-3.905 6.867 20.009 20.009 0 01-6.196 4.928l.076.003z" fill="#005FD2"/></svg>