<svg width="83" height="83" fill="none" xmlns="http://www.w3.org/2000/svg"><path d="M73.352.11H8.898C4.047.11.11 4.046.11 8.897v64.454c0 4.851 3.938 8.789 8.79 8.789h64.453c4.851 0 8.789-3.938 8.789-8.79V8.899c0-4.851-3.938-8.789-8.79-8.789zM23.365 64.652a3.655 3.655 0 01-4.998 1.336 3.655 3.655 0 01-1.336-4.998l2.62-4.523c2.947-.897 5.364-.202 7.25 2.086l-3.536 6.1zm25.433-9.867H15.49a3.673 3.673 0 01-3.662-3.662 3.675 3.675 0 013.662-3.662h9.34l11.974-20.728-3.753-6.48a3.668 3.668 0 011.336-4.998 3.668 3.668 0 014.998 1.336l1.629 2.818 1.629-2.818c1.007-1.758 3.26-2.344 4.998-1.336 1.757 1.008 2.343 3.26 1.336 4.998l-15.71 27.21h11.37c3.698 0 5.77 4.34 4.158 7.325l.003-.003zm17.962 0h-5.312l3.59 6.208a3.668 3.668 0 01-1.337 4.998 3.668 3.668 0 01-4.998-1.336C52.68 54.237 48.173 46.4 45.153 41.2c-3.058-5.311-.879-10.62 1.301-12.413 2.4 4.157 5.988 10.383 10.784 18.677h9.522a3.673 3.673 0 013.662 3.662 3.662 3.662 0 01-3.662 3.662v-.003z" fill="#fff"/></svg>