<svg width="1920" height="829" fill="none" xmlns="http://www.w3.org/2000/svg"><path d="M-286.818 455.136c17.735 4.117 230.559 209.978 514.324 0 283.764-209.978 452.25-172.923 647.338 0 195.086 172.923 434.516 160.571 682.806 0 248.3-160.571 461.12-181.157 673.94 0" stroke="url(#paint0_linear_219_343)"/><path d="M-161.688 845.506c19.375-1.956 463.103 96.5 400.665-149.768C176.539 449.47 357.82 429.286 743.262 507.237c385.438 77.952 555.288-1.394 531.918-198.83-23.37-197.436 114.63-275.452 525.01-196.247" stroke="url(#paint1_linear_219_343)"/><path d="M-275.634 488.467c18.187 3.668 254.562 203.913 513.579-12.85 259.017-216.764 431.553-183.972 646.401-16.174 214.844 167.798 452.494 149.482 681.824-17.06 229.32-166.542 439.45-192.416 672.96-16.838" stroke="url(#paint2_linear_219_343)"/><path d="M-264.943 520.071c18.57 3.227 276.91 197.535 511.463-25.151 234.554-222.687 410.508-194.077 643.738-31.656 233.232 162.421 468.522 138.43 679.012-33.39 210.49-171.82 417.46-202.699 670.19-32.957" stroke="url(#paint3_linear_219_343)"/><path d="M-254.779 549.997c18.892 2.796 297.631 190.928 508.154-36.876 210.523-227.805 389.312-203.274 639.574-46.413 250.261 156.861 482.711 127.491 674.621-48.956 191.91-176.448 395.33-212.046 665.86-48.321" stroke="url(#paint4_linear_219_343)"/><path d="M-245.167 578.293c19.156 2.377 316.77 184.171 503.824-48.006C445.712 298.11 626.802 318.682 892.78 469.865c265.98 151.184 495.17 116.737 668.87-63.732 173.7-180.468 373.27-220.498 660.18-62.904" stroke="url(#paint5_linear_219_343)"/><path d="M-236.123 605.006c19.368 1.973 334.372 177.335 498.636-58.529 164.264-235.865 347.171-219.114 627.593-73.666 280.424 145.448 506.024 106.226 661.984-77.702 155.96-183.929 351.42-228.106 653.38-76.693" stroke="url(#paint6_linear_219_343)"/><path d="M-227.655 630.178c19.533 1.585 350.502 170.49 492.749-68.439 142.247-238.928 326.538-225.848 620.183-86.138 293.643 139.709 515.403 96.016 654.163-90.859 138.77-186.875 329.95-234.917 645.67-89.679" stroke="url(#paint7_linear_219_343)"/><path d="M-219.763 653.853c19.656 1.213 365.221 163.694 486.31-77.735 121.089-241.429 306.377-231.858 612.08-97.839 305.703 134.018 523.423 86.152 645.623-103.201 122.19-189.352 308.98-240.984 637.23-101.86" stroke="url(#paint8_linear_219_343)"/><path d="M-212.443 676.07c19.742.858 378.601 157.003 479.461-86.422 100.859-243.426 286.807-237.193 603.459-108.772C1187.13 609.297 1400.7 557.551 1507 366.143c106.31-191.407 288.66-246.359 628.26-113.242" stroke="url(#paint9_linear_219_343)"/><path d="M-205.683 696.864c19.797.522 390.716 150.47 472.332-94.506 81.617-244.975 267.931-241.904 594.488-118.946 326.553 122.957 535.903 67.62 627.063-125.465 91.15-193.085 269.05-251.096 618.92-123.835" stroke="url(#paint10_linear_219_343)"/><path d="M-199.474 716.271c19.824.205 401.639 144.136 465.047-101.998 63.409-246.134 249.84-246.042 585.318-128.376 335.479 117.667 540.599 59.017 617.389-135.41 76.79-194.428 250.28-255.247 609.37-133.652" stroke="url(#paint11_linear_219_343)"/><path d="M-193.794 734.322c19.828-.092 411.445 138.045 457.718-108.911 46.272-246.956 232.613-249.657 576.092-137.077 343.484 112.58 544.424 50.889 607.664-144.588 63.23-195.476 232.41-258.863 599.76-142.71" stroke="url(#paint12_linear_219_343)"/><path d="M-188.626 751.045c19.812-.369 420.209 132.232 450.448-115.259 30.238-247.491 216.32-252.795 566.943-145.068 350.625 107.728 547.475 43.256 598.005-153.016 50.54-196.271 215.53-261.994 590.25-151.029" stroke="url(#paint13_linear_219_343)"/><path d="M-183.95 766.468c19.782-.625 428.005 126.727 443.333-121.059 15.328-247.787 201.018-255.504 557.989-152.368 356.968 103.136 549.868 36.134 588.568-160.717 38.7-196.851 199.67-264.689 580.92-158.629" stroke="url(#paint14_linear_219_343)"/><path d="M-179.746 780.615c19.742-.862 434.904 121.559 436.461-126.328 1.558-247.888 186.757-257.826 549.339-159 362.586 98.827 551.686 29.537 579.436-167.712 27.75-197.248 184.9-266.992 571.92-165.533" stroke="url(#paint15_linear_219_343)"/><path d="M-175.988 793.508c19.692-1.079 440.971 116.752 429.908-131.083-11.063-247.836 173.578-259.804 541.09-164.984 367.51 94.82 553.04 23.474 570.74-174.024 17.7-197.498 171.26-268.947 563.33-171.764" stroke="url(#paint16_linear_219_343)"/><path d="M-172.655 805.166c19.638-1.275 446.271 112.327 423.744-135.341-22.526-247.668 161.519-261.475 533.333-170.342 371.818 91.132 553.998 17.953 562.558-179.676 8.56-197.629 158.77-270.593 555.25-177.343" stroke="url(#paint17_linear_219_343)"/><path d="M-169.725 815.606c19.581-1.451 450.862 108.303 418.032-139.117-32.83-247.42 150.606-262.875 526.144-175.095 375.539 87.779 554.639 12.979 554.969-184.69.34-197.669 147.49-271.967 547.77-182.292" stroke="url(#paint18_linear_219_343)"/><path d="M-167.178 824.845c19.524-1.607 454.8 104.693 412.826-142.429-41.973-247.121 140.864-264.037 519.592-179.263 378.73 84.773 555.04 8.556 548.06-189.086-6.97-197.643 137.41-273.102 540.95-186.631" stroke="url(#paint19_linear_219_343)"/><path d="M-164.998 832.894c19.471-1.742 458.134 101.512 408.176-145.289C193.22 440.804 375.49 422.616 756.916 504.74c381.424 82.125 555.254 4.688 541.884-192.884-13.36-197.571 128.56-274.029 534.85-190.379" stroke="url(#paint20_linear_219_343)"/><path d="M-163.164 839.767c19.421-1.859 460.906 98.769 404.12-147.714-56.786-246.482 124.965-265.756 508.633-185.915 383.671 79.842 555.341 1.374 536.501-196.102-18.83-197.475 120.96-274.773 529.54-193.555" stroke="url(#paint21_linear_219_343)"/><defs><linearGradient id="paint0_linear_219_343" x1="972.388" y1="311.214" x2="972.388" y2="580.239" gradientUnits="userSpaceOnUse"><stop stop-color="#FFF9F9"/><stop offset="1" stop-color="#82BAFF"/></linearGradient><linearGradient id="paint1_linear_219_343" x1="624.939" y1="366.673" x2="738.228" y2="669.749" gradientUnits="userSpaceOnUse"><stop stop-color="#FFF9F9"/><stop offset="1" stop-color="#82BAFF"/></linearGradient><linearGradient id="paint2_linear_219_343" x1="965.068" y1="313.292" x2="971.805" y2="582.539" gradientUnits="userSpaceOnUse"><stop stop-color="#FFF9F9"/><stop offset="1" stop-color="#82BAFF"/></linearGradient><linearGradient id="paint3_linear_219_343" x1="954.611" y1="315.372" x2="967.882" y2="585.25" gradientUnits="userSpaceOnUse"><stop stop-color="#FFF9F9"/><stop offset="1" stop-color="#82BAFF"/></linearGradient><linearGradient id="paint4_linear_219_343" x1="941.455" y1="317.518" x2="961.111" y2="588.383" gradientUnits="userSpaceOnUse"><stop stop-color="#FFF9F9"/><stop offset="1" stop-color="#82BAFF"/></linearGradient><linearGradient id="paint5_linear_219_343" x1="926.017" y1="319.777" x2="951.95" y2="591.938" gradientUnits="userSpaceOnUse"><stop stop-color="#FFF9F9"/><stop offset="1" stop-color="#82BAFF"/></linearGradient><linearGradient id="paint6_linear_219_343" x1="908.7" y1="322.178" x2="940.828" y2="595.896" gradientUnits="userSpaceOnUse"><stop stop-color="#FFF9F9"/><stop offset="1" stop-color="#82BAFF"/></linearGradient><linearGradient id="paint7_linear_219_343" x1="889.89" y1="324.736" x2="928.154" y2="600.226" gradientUnits="userSpaceOnUse"><stop stop-color="#FFF9F9"/><stop offset="1" stop-color="#82BAFF"/></linearGradient><linearGradient id="paint8_linear_219_343" x1="869.951" y1="327.453" x2="914.298" y2="604.886" gradientUnits="userSpaceOnUse"><stop stop-color="#FFF9F9"/><stop offset="1" stop-color="#82BAFF"/></linearGradient><linearGradient id="paint9_linear_219_343" x1="849.226" y1="330.319" x2="899.607" y2="609.825" gradientUnits="userSpaceOnUse"><stop stop-color="#FFF9F9"/><stop offset="1" stop-color="#82BAFF"/></linearGradient><linearGradient id="paint10_linear_219_343" x1="828.041" y1="333.316" x2="884.397" y2="614.983" gradientUnits="userSpaceOnUse"><stop stop-color="#FFF9F9"/><stop offset="1" stop-color="#82BAFF"/></linearGradient><linearGradient id="paint11_linear_219_343" x1="806.688" y1="336.419" x2="868.95" y2="620.295" gradientUnits="userSpaceOnUse"><stop stop-color="#FFF9F9"/><stop offset="1" stop-color="#82BAFF"/></linearGradient><linearGradient id="paint12_linear_219_343" x1="785.45" y1="339.597" x2="853.525" y2="625.695" gradientUnits="userSpaceOnUse"><stop stop-color="#FFF9F9"/><stop offset="1" stop-color="#82BAFF"/></linearGradient><linearGradient id="paint13_linear_219_343" x1="764.579" y1="342.811" x2="838.348" y2="631.11" gradientUnits="userSpaceOnUse"><stop stop-color="#FFF9F9"/><stop offset="1" stop-color="#82BAFF"/></linearGradient><linearGradient id="paint14_linear_219_343" x1="744.307" y1="346.024" x2="823.618" y2="636.471" gradientUnits="userSpaceOnUse"><stop stop-color="#FFF9F9"/><stop offset="1" stop-color="#82BAFF"/></linearGradient><linearGradient id="paint15_linear_219_343" x1="724.846" y1="349.194" x2="809.511" y2="641.708" gradientUnits="userSpaceOnUse"><stop stop-color="#FFF9F9"/><stop offset="1" stop-color="#82BAFF"/></linearGradient><linearGradient id="paint16_linear_219_343" x1="706.388" y1="352.28" x2="796.176" y2="646.754" gradientUnits="userSpaceOnUse"><stop stop-color="#FFF9F9"/><stop offset="1" stop-color="#82BAFF"/></linearGradient><linearGradient id="paint17_linear_219_343" x1="689.104" y1="355.239" x2="783.742" y2="651.545" gradientUnits="userSpaceOnUse"><stop stop-color="#FFF9F9"/><stop offset="1" stop-color="#82BAFF"/></linearGradient><linearGradient id="paint18_linear_219_343" x1="673.147" y1="358.032" x2="772.316" y2="656.024" gradientUnits="userSpaceOnUse"><stop stop-color="#FFF9F9"/><stop offset="1" stop-color="#82BAFF"/></linearGradient><linearGradient id="paint19_linear_219_343" x1="658.651" y1="360.62" x2="761.986" y2="660.136" gradientUnits="userSpaceOnUse"><stop stop-color="#FFF9F9"/><stop offset="1" stop-color="#82BAFF"/></linearGradient><linearGradient id="paint20_linear_219_343" x1="645.73" y1="362.967" x2="752.824" y2="663.834" gradientUnits="userSpaceOnUse"><stop stop-color="#FFF9F9"/><stop offset="1" stop-color="#82BAFF"/></linearGradient><linearGradient id="paint21_linear_219_343" x1="634.488" y1="365.04" x2="744.888" y2="667.076" gradientUnits="userSpaceOnUse"><stop stop-color="#FFF9F9"/><stop offset="1" stop-color="#82BAFF"/></linearGradient></defs></svg>