<svg width="328" height="47" fill="none" xmlns="http://www.w3.org/2000/svg"><path d="M28.961 23.062l7.245 7.706-7.245 7.692-7.238 7.685-7.24-7.685-7.244-7.692L0 23.062 14.484 7.685 21.723 0l7.238 7.685 7.245 7.692-7.245 7.685-7.238-7.685-7.24 7.685 7.24 7.706 7.238-7.706z" fill="#005FD2"/><path d="M43.435 7.696l-7.242 7.688 7.242 7.689 7.242-7.689-7.242-7.688z" fill="#282828"/><path d="M59.233 11.984h9.493c6.832 0 11.52 4.374 11.52 11.085 0 6.712-4.688 11.086-11.52 11.086h-9.493V11.984zm9.247 17.961c4.146 0 6.864-2.625 6.864-6.876 0-4.25-2.712-6.876-6.864-6.876h-4.416v13.745h4.416v.007zm15.387-17.961h4.837v22.178h-4.837V11.984zm23.899 10.743h4.417v8.994c-2.299 1.837-5.463 2.818-8.446 2.818-6.567 0-11.397-4.785-11.397-11.47 0-6.684 4.836-11.47 11.487-11.47 3.668 0 6.716 1.33 8.744 3.833l-3.106 3.044c-1.524-1.714-3.281-2.502-5.399-2.502-4.061 0-6.832 2.886-6.832 7.095 0 4.21 2.777 7.096 6.774 7.096 1.311 0 2.538-.254 3.758-.953V22.72v.007zm8.885-10.743h4.837v22.178h-4.837V11.984zm14.11 4.182h-6.683v-4.182h18.203v4.182h-6.683v17.996h-4.837V16.166zm26.823 13.244h-9.698l-1.847 4.752h-4.953l9.311-22.178h4.772l9.344 22.178h-5.075l-1.854-4.751zm-1.524-3.9l-3.312-8.488-3.313 8.488h6.625zm10.92-13.526h4.83V29.98h10.474v4.182h-15.31V11.984h.006z" fill="#005FD2"/><path d="M185.519 31.468l.865-1.803c1.492 1.549 4.146 2.694 6.89 2.694 3.907 0 5.612-1.742 5.612-3.928 0-6.081-12.863-2.345-12.863-10.551 0-3.263 2.389-6.081 7.697-6.081 2.357 0 4.804.726 6.477 1.96l-.749 1.872c-1.789-1.234-3.881-1.837-5.728-1.837-3.823 0-5.521 1.803-5.521 4.024 0 6.081 12.863 2.406 12.863 10.482 0 3.264-2.447 6.054-7.788 6.054-3.131 0-6.205-1.172-7.761-2.88l.006-.006zm36.697-11.881c0 4.716-3.222 7.568-8.537 7.568h-5.611v7h-2.209V11.984h7.82c5.315 0 8.537 2.852 8.537 7.603zm-2.209 0c0-3.545-2.208-5.574-6.386-5.574h-5.547v11.086h5.547c4.178 0 6.386-2.03 6.386-5.512zm21.749 12.545v2.03h-14.775V11.984h14.323v2.029H229.19v7.89h10.803V23.9H229.19v8.24h12.566v-.007zm3.216-9.062c0-6.493 4.655-11.278 10.951-11.278 3.042 0 5.793 1.076 7.639 3.229l-1.401 1.488c-1.705-1.838-3.79-2.633-6.18-2.633-5.043 0-8.833 3.928-8.833 9.187 0 5.258 3.79 9.186 8.833 9.186 2.39 0 4.475-.795 6.18-2.66l1.401 1.488c-1.846 2.153-4.597 3.263-7.671 3.263-6.264 0-10.919-4.785-10.919-11.277v.007zm28.611-9.057h-7.342v-2.03h16.886v2.03h-7.342v20.149h-2.208v-20.15h.006zm27.329 20.149l-4.772-7.13c-.536.061-1.072.096-1.673.096h-5.611v7.034h-2.209V11.984h7.82c5.315 0 8.537 2.852 8.537 7.603 0 3.482-1.731 5.923-4.779 6.972l5.102 7.603h-2.422.007zm-.123-14.575c0-3.545-2.208-5.574-6.386-5.574h-5.547v11.12h5.547c4.178 0 6.386-2.057 6.386-5.546zm5.275 3.483c0-6.465 4.656-11.278 10.984-11.278 6.329 0 10.952 4.785 10.952 11.278 0 6.492-4.682 11.277-10.952 11.277s-10.984-4.813-10.984-11.277zm19.728 0c0-5.293-3.726-9.187-8.744-9.187-5.017 0-8.801 3.894-8.801 9.187 0 5.292 3.758 9.186 8.801 9.186 5.044 0 8.744-3.9 8.744-9.186z" fill="#282828"/></svg>