<svg width="79" height="79" fill="none" xmlns="http://www.w3.org/2000/svg"><path d="M56.906 47.687c.313-2.578.547-5.156.547-7.813 0-2.656-.234-5.234-.547-7.812H70.11c.625 2.5 1.016 5.117 1.016 7.812 0 2.696-.39 5.313-1.016 7.813H56.906zm-6.914 21.719c2.344-4.336 4.14-9.024 5.39-13.907h11.524c-3.75 6.446-9.726 11.446-16.914 13.907zm-.976-21.72H30.734c-.39-2.577-.625-5.155-.625-7.812 0-2.656.235-5.273.625-7.812h18.282c.351 2.539.625 5.156.625 7.812 0 2.657-.274 5.235-.625 7.813zm-9.141 23.282c-3.242-4.688-5.86-9.883-7.46-15.469h14.92c-1.6 5.586-4.218 10.782-7.46 15.469zM24.25 24.249H12.844a30.95 30.95 0 0116.875-13.906c-2.344 4.336-4.102 9.023-5.469 13.906zM12.844 55.5H24.25c1.367 4.883 3.125 9.57 5.469 13.907-7.149-2.461-13.164-7.461-16.875-13.907zM9.64 47.687c-.625-2.5-1.016-5.117-1.016-7.813 0-2.695.39-5.312 1.016-7.812h13.203c-.313 2.578-.547 5.156-.547 7.812 0 2.657.234 5.235.547 7.813H9.64zM39.875 8.74c3.242 4.688 5.86 9.922 7.46 15.508h-14.92c1.6-5.586 4.218-10.82 7.46-15.508zm27.031 15.51H55.383c-1.25-4.883-3.047-9.57-5.39-13.906A31.199 31.199 0 0166.906 24.25zM39.875.812C18.273.812.812 18.39.812 39.874A39.062 39.062 0 1039.876.812z" fill="#005FD2"/></svg>