<svg width="508" height="68" fill="none" xmlns="http://www.w3.org/2000/svg"><g clip-path="url(#clip0_364_265)"><path d="M44.85 33.64l11.22 11.24L44.85 56.1 33.64 67.31 22.43 56.1 11.21 44.88 0 33.64l22.43-22.43L33.64 0l11.21 11.21 11.22 11.22-11.22 11.21-11.21-11.21-11.21 11.21 11.21 11.24 11.21-11.24z" fill="#005FD2"/><path d="M67.264 11.226L56.05 22.44l11.215 11.215L78.478 22.44 67.264 11.226z" fill="#282828"/><path d="M91.73 17.48h14.7c10.58 0 17.84 6.38 17.84 16.17 0 9.79-7.26 16.17-17.84 16.17h-14.7V17.48zm14.32 26.2c6.42 0 10.63-3.83 10.63-10.03 0-6.2-4.2-10.03-10.63-10.03h-6.84v20.05h6.84v.01zm23.831-26.2h7.49v32.35h-7.49V17.48zm37.009 15.67h6.84v13.12c-3.56 2.68-8.46 4.11-13.08 4.11-10.17 0-17.65-6.98-17.65-16.73s7.49-16.73 17.79-16.73c5.68 0 10.4 1.94 13.54 5.59l-4.81 4.44c-2.36-2.5-5.08-3.65-8.36-3.65-6.29 0-10.58 4.21-10.58 10.35S154.88 44 161.07 44c2.03 0 3.93-.37 5.82-1.39v-9.47.01zm13.76-15.67h7.49v32.35h-7.49V17.48zm21.85 6.1h-10.35v-6.1h28.19v6.1h-10.35v26.25h-7.49V23.58zm41.54 19.32h-15.02l-2.86 6.93h-7.67l14.42-32.35h7.39l14.47 32.35h-7.86l-2.87-6.93zm-2.36-5.69l-5.13-12.38-5.13 12.38h10.26zm16.91-19.73h7.48v26.25h16.22v6.1h-23.71V17.48h.01z" fill="#005FD2"/><path d="M287.3 45.9l1.34-2.63c2.31 2.26 6.42 3.93 10.67 3.93 6.05 0 8.69-2.54 8.69-5.73 0-8.87-19.92-3.42-19.92-15.39 0-4.76 3.7-8.87 11.92-8.87 3.65 0 7.44 1.06 10.03 2.86l-1.16 2.73c-2.77-1.8-6.01-2.68-8.87-2.68-5.92 0-8.55 2.63-8.55 5.87 0 8.87 19.92 3.51 19.92 15.29 0 4.76-3.79 8.83-12.06 8.83-4.85 0-9.61-1.71-12.02-4.2l.01-.01zm56.831-17.33c0 6.88-4.99 11.04-13.22 11.04h-8.69v10.21h-3.42V17.48h12.11c8.23 0 13.22 4.16 13.22 11.09zm-3.42 0c0-5.17-3.42-8.13-9.89-8.13h-8.59v16.17h8.59c6.47 0 9.89-2.96 9.89-8.04zm33.68 18.3v2.96h-22.88V17.48h22.18v2.96h-18.76v11.51h16.73v2.91h-16.73v12.02h19.46v-.01zm4.979-13.22c0-9.47 7.21-16.45 16.96-16.45 4.71 0 8.97 1.57 11.83 4.71l-2.17 2.17c-2.64-2.68-5.87-3.84-9.57-3.84-7.81 0-13.68 5.73-13.68 13.4s5.87 13.4 13.68 13.4c3.7 0 6.93-1.16 9.57-3.88l2.17 2.17c-2.86 3.14-7.12 4.76-11.88 4.76-9.7 0-16.91-6.98-16.91-16.45v.01zm44.311-13.21h-11.37v-2.96h26.15v2.96h-11.37v29.39h-3.42V20.44h.01zM466 49.83l-7.39-10.4c-.83.09-1.66.14-2.59.14h-8.69v10.26h-3.42V17.48h12.11c8.23 0 13.22 4.16 13.22 11.09 0 5.08-2.68 8.64-7.4 10.17l7.9 11.09h-3.75.01zm-.19-21.26c0-5.17-3.42-8.13-9.89-8.13h-8.59v16.22h8.59c6.47 0 9.89-3 9.89-8.09zm8.17 5.08c0-9.43 7.21-16.45 17.01-16.45s16.96 6.98 16.96 16.45c0 9.47-7.25 16.45-16.96 16.45s-17.01-7.02-17.01-16.45zm30.55 0c0-7.72-5.77-13.4-13.54-13.4s-13.63 5.68-13.63 13.4c0 7.72 5.82 13.4 13.63 13.4 7.81 0 13.54-5.69 13.54-13.4z" fill="#282828"/></g><defs><clipPath id="clip0_364_265"><path fill="#fff" d="M0 0h507.95v67.31H0z"/></clipPath></defs></svg>