<svg width="377" height="50" fill="none" xmlns="http://www.w3.org/2000/svg"><path d="M33.283 24.964l8.327 8.342-8.327 8.326-8.319 8.319-8.319-8.32-8.326-8.325L0 24.964 16.645 8.32 24.965 0l8.318 8.319 8.327 8.326-8.327 8.32-8.319-8.32-8.319 8.32 8.32 8.34 8.318-8.34z" fill="#005FD2"/><path d="M49.917 8.33l-8.322 8.323 8.322 8.323 8.323-8.323-8.323-8.322z" fill="#282828"/><path d="M68.073 12.972h10.91c7.85 0 13.238 4.734 13.238 12 0 7.265-5.388 12-13.239 12H68.073v-24zM78.7 32.415c4.764 0 7.889-2.842 7.889-7.443 0-4.601-3.117-7.444-7.889-7.444h-5.076v14.88H78.7v.007zm17.685-19.443h5.558v24.007h-5.558V12.972zM123.849 24.6h5.076v9.737c-2.642 1.989-6.278 3.05-9.707 3.05-7.547 0-13.098-5.18-13.098-12.415 0-7.236 5.558-12.416 13.202-12.416 4.215 0 7.718 1.44 10.048 4.149L125.801 20c-1.752-1.856-3.77-2.709-6.204-2.709-4.668 0-7.852 3.124-7.852 7.68 0 4.557 3.191 7.682 7.785 7.682 1.506 0 2.916-.275 4.319-1.032v-7.028.008zm10.212-11.628h5.558v24.007h-5.558V12.972zm16.214 4.527h-7.68v-4.527h20.92v4.527h-7.681v19.48h-5.559v-19.48zm30.827 14.337h-11.146l-2.122 5.143h-5.692l10.701-24.007h5.484l10.738 24.007h-5.833l-2.13-5.143zm-1.751-4.222l-3.807-9.188-3.807 9.188h7.614zM191.9 12.972h5.551v19.48h12.037v4.527h-17.595V12.972h.007z" fill="#005FD2"/><path d="M213.206 34.062l.994-1.951c1.714 1.677 4.764 2.916 7.918 2.916 4.49 0 6.449-1.885 6.449-4.252 0-6.583-14.783-2.538-14.783-11.421 0-3.532 2.746-6.582 8.846-6.582 2.709 0 5.522.786 7.444 2.122l-.861 2.026c-2.056-1.336-4.46-1.989-6.583-1.989-4.393 0-6.345 1.952-6.345 4.356 0 6.583 14.783 2.605 14.783 11.347 0 3.532-2.813 6.553-8.95 6.553-3.599 0-7.131-1.27-8.92-3.117l.008-.008zm42.173-12.86c0 5.105-3.703 8.193-9.81 8.193h-6.449v7.576h-2.538v-24h8.987c6.107 0 9.81 3.088 9.81 8.23zm-2.538 0c0-3.837-2.538-6.034-7.339-6.034h-6.375v12h6.375c4.801 0 7.339-2.196 7.339-5.966zm24.995 13.58v2.197h-16.98V12.972h16.46v2.197h-13.922v8.541h12.416v2.16h-12.416v8.92h14.442v-.008zm3.695-9.81c0-7.028 5.351-12.208 12.586-12.208 3.496 0 6.657 1.165 8.779 3.495l-1.61 1.61c-1.959-1.988-4.356-2.849-7.102-2.849-5.796 0-10.152 4.252-10.152 9.944 0 5.692 4.356 9.944 10.152 9.944 2.746 0 5.143-.86 7.102-2.879l1.61 1.61c-2.122 2.33-5.283 3.533-8.816 3.533-7.198 0-12.549-5.18-12.549-12.208v.008zm32.882-9.804h-8.437v-2.196h19.406v2.197h-8.438v21.81h-2.538v-21.81h.007zm31.406 21.811l-5.484-7.718c-.616.067-1.232.104-1.922.104h-6.449v7.614h-2.538V12.972h8.987c6.107 0 9.81 3.087 9.81 8.23 0 3.77-1.989 6.412-5.491 7.547l5.862 8.23h-2.783.008zm-.141-15.777c0-3.837-2.538-6.034-7.34-6.034h-6.374v12.037h6.374c4.802 0 7.34-2.226 7.34-6.003zm6.063 3.77c0-6.998 5.351-12.208 12.623-12.208 7.273 0 12.586 5.18 12.586 12.208 0 7.027-5.38 12.207-12.586 12.207-7.205 0-12.623-5.21-12.623-12.207zm22.671 0c0-5.73-4.282-9.944-10.048-9.944s-10.115 4.215-10.115 9.944c0 5.729 4.32 9.944 10.115 9.944 5.796 0 10.048-4.223 10.048-9.944z" fill="#282828"/></svg>