<svg width="357" height="380" fill="none" xmlns="http://www.w3.org/2000/svg"><mask id="a" style="mask-type:alpha" maskUnits="userSpaceOnUse" x="0" y="0" width="357" height="380"><path fill-rule="evenodd" clip-rule="evenodd" d="M20 0C8.954 0 0 8.954 0 20v340c0 11.046 8.954 20 20 20h152c11.046 0 19.77-9.068 22.195-19.844C203.232 319.998 239.113 290 282 290c7.669 0 15.115.959 22.222 2.764 19.192 4.874 52.778-8.933 52.778-28.733V20c0-11.046-8.954-20-20-20H20z" fill="#DAE6F3"/></mask><g mask="url(#a)"><path d="M311.415 665.682c107.648-106.762 274.242-305.175 79.433-244.738-192.81 59.818-316.835-45.641-159.618-116.695a19.96 19.96 0 0110.179-1.644c113.993 11.779 302.496 7.19 182.563-102.783C271.753 60.244 177.804-60.422 316.189-36.976 454.574-13.531 641.994 4.36 534.927-142.033" stroke="url(#paint0_linear_223_1149)"/><path d="M-44.046 368.445c144.749 45.096 398.085 99.339 253.434-44.464-143.167-142.328-108.092-301.304 28.33-195.686a19.949 19.949 0 016.221 8.223c42.99 106.229 135.346 270.622 176.327 113.147C472.278 49.796 534.878-89.731 578.988 43.515c44.11 133.245 116.097 307.211 195.281 144.042" stroke="url(#paint1_linear_223_1149)"/><path d="M290.774 648.534c116.84-96.617 300.651-279.195 101.185-236.575-197.42 42.182-311.427-74.033-148.442-130.618a19.979 19.979 0 0110.286-.719c112.465 22.014 300.614 34.446 191.089-85.897C305.883 41.986 223.201-86.661 358.907-50.83c135.706 35.832 320.749 70.555 227.322-84.899" stroke="url(#paint2_linear_223_1149)"/><path d="M269.116 631.309c124.744-86.168 323.633-252.194 121.232-226.955-200.325 24.979-303.872-100.645-136.61-142.946a19.968 19.968 0 0110.309.172c110.145 31.641 296.518 60.271 197.792-69.078C336.537 28.332 265.271-106.975 397.377-59.56c132.105 47.415 313.459 97.984 233.803-64.955" stroke="url(#paint3_linear_223_1149)"/><path d="M246.755 613.967c131.427-75.585 343.332-224.641 139.539-216.183-201.703 8.372-294.536-125.365-124.355-153.726a19.963 19.963 0 0110.26 1.022c107.16 40.618 290.536 84.522 202.816-52.529C363.68 18.605 303.817-122.118 431.562-63.969c127.744 58.15 304.31 123.505 238.364-45.45" stroke="url(#paint4_linear_223_1149)"/><path d="M223.999 596.508c136.962-65.019 359.93-196.954 156.102-204.543-201.736-7.512-283.768-148.134-111.883-163.027 3.45-.299 7.016.346 10.148 1.825C382 279.68 561.357 337.865 484.683 194.342 387.368 12.181 338.754-132.813 461.532-64.801 584.309 3.212 755.19 82.246 702.731-91.37" stroke="url(#paint5_linear_223_1149)"/><path d="M201.124 578.965c141.44-54.598 373.647-169.495 170.957-192.301-200.61-22.572-271.9-168.932-99.383-170.935 3.463-.04 6.971.87 9.983 2.578 99.688 56.528 274.193 127.959 208.463-20.895C407.719 8.486 370.08-139.736 487.43-62.736S769.274 105.853 729.941-71.2" stroke="url(#paint6_linear_223_1149)"/><path d="M178.383 561.4c144.954-44.433 384.722-142.58 184.16-179.697-198.506-36.737-259.24-187.784-87.016-177.551a19.97 19.97 0 019.776 3.28c95.429 63.452 264.431 147.075 209.419-6.065C424.901 7.003 397.865-143.515 509.46-58.389c111.596 85.126 269.183 188.145 242.501 8.75" stroke="url(#paint7_linear_223_1149)"/><path d="M156.007 543.897c147.606-34.617 393.414-116.472 195.79-166.949-195.597-49.96-246.07-204.738-74.918-182.984a19.975 19.975 0 019.533 3.927c90.961 69.707 253.979 164.469 209.355 7.987C439.131 7.27 422.244-144.721 527.883-52.306c105.639 92.414 255.966 205.764 241.369 24.984" stroke="url(#paint8_linear_223_1149)"/><path d="M134.199 526.557c149.498-25.225 399.985-91.391 205.944-154.25-192.05-62.215-232.647-219.871-63.211-187.35a19.956 19.956 0 019.266 4.522c86.377 75.312 243.084 180.182 208.433 21.194C450.653 8.884 443.4-143.87 542.991-44.967c99.59 98.902 242.458 221.521 239.308 40.18" stroke="url(#paint9_linear_223_1149)"/><path d="M113.133 509.49c150.731-16.315 404.7-67.511 214.728-141.766-188.023-73.493-219.2-233.279-51.99-190.769a19.974 19.974 0 018.982 5.064c81.759 80.302 231.971 194.279 206.809 33.516-31.936-204.041-30.117-356.957 63.433-252.323 93.551 104.634 228.896 235.509 236.505 54.3" stroke="url(#paint10_linear_223_1149)"/><path d="M92.967 492.819c151.404-7.936 407.82-44.975 222.256-129.646-183.66-83.802-205.932-245.071-41.336-193.357a19.968 19.968 0 018.688 5.553c77.182 84.71 220.845 206.839 204.633 44.928C466.631 14.799 476.923-137.78 564.53-28.122c87.607 109.659 215.49 247.835 233.132 67.326" stroke="url(#paint11_linear_223_1149)"/><path d="M73.83 476.666c151.613-.119 409.598-23.888 228.647-118.014-179.096-93.161-193.022-255.363-31.312-195.232a19.972 19.972 0 018.39 5.994c72.712 88.578 209.887 217.952 202.045 55.42-9.954-206.285 8.191-358.131 90.028-244.101 81.836 114.03 202.424 258.615 229.35 79.257" stroke="url(#paint12_linear_223_1149)"/><path d="M55.838 461.155c151.445 7.113 410.27-4.325 234.014-106.974-174.448-101.597-180.623-264.279-21.965-196.503a19.963 19.963 0 018.094 6.387c68.405 91.945 199.254 227.713 199.172 64.993-.103-206.525 25.263-357.333 101.568-239.53 76.304 117.803 189.86 267.976 225.309 90.106" stroke="url(#paint13_linear_223_1149)"/><path d="M39.078 446.409c150.988 13.742 410.066 13.659 238.478-96.616-169.829-109.144-168.868-271.94-13.332-197.277a19.975 19.975 0 017.806 6.736c64.309 94.854 189.083 236.226 196.132 73.659 8.947-206.332 40.898-355.883 111.967-234.85 71.069 121.035 177.934 276.04 221.144 99.894" stroke="url(#paint14_linear_223_1149)"/><path d="M23.628 432.546c150.318 19.764 409.193 30.031 242.147-87.012-165.332-115.841-157.868-278.47-5.439-197.651a19.97 19.97 0 017.531 7.042c60.468 97.348 179.493 243.592 193.032 81.436C478.083 30.551 515.984-117.604 582.16 6.173c66.176 123.777 166.763 282.928 216.976 108.649" stroke="url(#paint15_linear_223_1149)"/><path d="M9.549 419.676c149.507 25.175 407.842 44.776 245.128-78.218C93.633 219.727 106.96 57.473 256.373 143.739a19.97 19.97 0 017.272 7.31c56.917 99.466 170.588 249.91 189.969 88.348 24.598-205.055 67.82-351.747 129.487-225.663s156.446 288.761 212.915 116.407" stroke="url(#paint16_linear_223_1149)"/><path d="M-3.11 407.903c148.619 29.978 406.189 57.89 247.521-70.281-157.04-126.856-138.493-288.595 8.064-197.562a19.965 19.965 0 017.033 7.54c53.683 101.248 162.449 255.276 187.024 94.422 31.191-204.157 79.116-349.38 136.689-221.375 57.574 128.005 147.064 293.65 209.055 123.205" stroke="url(#paint17_linear_223_1149)"/><path d="M-14.31 397.322c147.709 34.177 404.385 69.378 249.413-63.238C81.721 202.828 104.844 41.679 248.762 136.83a19.97 19.97 0 016.817 7.736c50.792 102.729 155.149 259.777 184.273 99.684C476.816 41.06 528.837-102.747 582.76 26.838c53.923 129.585 138.682 297.699 205.479 129.08" stroke="url(#paint18_linear_223_1149)"/><path d="M-24.022 388.017c146.829 37.781 402.566 79.252 250.886-57.116C76.739 195.931 103.798 35.396 245.345 134.04a19.968 19.968 0 016.625 7.9c48.264 103.941 148.747 263.495 181.779 104.163 41.925-202.226 97.449-344.716 148.185-213.85C632.67 163.118 713.291 333.256 784.193 166.32" stroke="url(#paint19_linear_223_1149)"/><path d="M-32.227 380.063c146.019 40.797 400.849 87.525 252.009-51.938C72.469 190.093 102.828 30.149 242.314 131.687a19.978 19.978 0 016.461 8.035c46.112 104.912 143.288 266.503 179.595 107.884C474.45 46.287 532.897-95.03 580.927 36.853c48.031 131.883 125.13 303.645 199.455 138.206" stroke="url(#paint20_linear_223_1149)"/><path d="M-38.905 373.521c145.317 43.233 399.329 94.216 252.842-47.716-144.984-140.476-111.954-299.89 25.814-196.034a19.961 19.961 0 016.325 8.142c44.352 105.669 138.813 268.861 177.766 110.872 49.441-200.52 110.242-340.84 156.061-208.172 45.818 132.667 120.035 305.695 197.116 141.521" stroke="url(#paint21_linear_223_1149)"/></g><defs><linearGradient id="paint0_linear_223_1149" x1="182.692" y1="183.773" x2="528.166" y2="295.902" gradientUnits="userSpaceOnUse"><stop stop-color="#fff"/><stop offset="1" stop-color="#005FD2"/></linearGradient><linearGradient id="paint1_linear_223_1149" x1="321.422" y1="28.976" x2="384.187" y2="386.727" gradientUnits="userSpaceOnUse"><stop stop-color="#fff"/><stop offset="1" stop-color="#005FD2"/></linearGradient><linearGradient id="paint2_linear_223_1149" x1="206.044" y1="156.979" x2="539.996" y2="299.812" gradientUnits="userSpaceOnUse"><stop stop-color="#fff"/><stop offset="1" stop-color="#005FD2"/></linearGradient><linearGradient id="paint3_linear_223_1149" x1="227.142" y1="134.274" x2="547.514" y2="305.407" gradientUnits="userSpaceOnUse"><stop stop-color="#fff"/><stop offset="1" stop-color="#005FD2"/></linearGradient><linearGradient id="paint4_linear_223_1149" x1="245.92" y1="115.164" x2="551.086" y2="312.138" gradientUnits="userSpaceOnUse"><stop stop-color="#fff"/><stop offset="1" stop-color="#005FD2"/></linearGradient><linearGradient id="paint5_linear_223_1149" x1="262.381" y1="99.183" x2="551.117" y2="319.539" gradientUnits="userSpaceOnUse"><stop stop-color="#fff"/><stop offset="1" stop-color="#005FD2"/></linearGradient><linearGradient id="paint6_linear_223_1149" x1="276.578" y1="85.901" x2="548.032" y2="327.226" gradientUnits="userSpaceOnUse"><stop stop-color="#fff"/><stop offset="1" stop-color="#005FD2"/></linearGradient><linearGradient id="paint7_linear_223_1149" x1="288.601" y1="74.926" x2="542.265" y2="334.887" gradientUnits="userSpaceOnUse"><stop stop-color="#fff"/><stop offset="1" stop-color="#005FD2"/></linearGradient><linearGradient id="paint8_linear_223_1149" x1="298.585" y1="65.905" x2="534.253" y2="342.284" gradientUnits="userSpaceOnUse"><stop stop-color="#fff"/><stop offset="1" stop-color="#005FD2"/></linearGradient><linearGradient id="paint9_linear_223_1149" x1="306.684" y1="58.524" x2="524.424" y2="349.238" gradientUnits="userSpaceOnUse"><stop stop-color="#fff"/><stop offset="1" stop-color="#005FD2"/></linearGradient><linearGradient id="paint10_linear_223_1149" x1="313.067" y1="52.509" x2="513.186" y2="355.623" gradientUnits="userSpaceOnUse"><stop stop-color="#fff"/><stop offset="1" stop-color="#005FD2"/></linearGradient><linearGradient id="paint11_linear_223_1149" x1="317.924" y1="47.623" x2="500.934" y2="361.363" gradientUnits="userSpaceOnUse"><stop stop-color="#fff"/><stop offset="1" stop-color="#005FD2"/></linearGradient><linearGradient id="paint12_linear_223_1149" x1="321.444" y1="43.661" x2="488.033" y2="366.42" gradientUnits="userSpaceOnUse"><stop stop-color="#fff"/><stop offset="1" stop-color="#005FD2"/></linearGradient><linearGradient id="paint13_linear_223_1149" x1="323.821" y1="40.453" x2="474.827" y2="370.789" gradientUnits="userSpaceOnUse"><stop stop-color="#fff"/><stop offset="1" stop-color="#005FD2"/></linearGradient><linearGradient id="paint14_linear_223_1149" x1="325.241" y1="37.855" x2="461.625" y2="374.492" gradientUnits="userSpaceOnUse"><stop stop-color="#fff"/><stop offset="1" stop-color="#005FD2"/></linearGradient><linearGradient id="paint15_linear_223_1149" x1="325.885" y1="35.751" x2="448.711" y2="377.568" gradientUnits="userSpaceOnUse"><stop stop-color="#fff"/><stop offset="1" stop-color="#005FD2"/></linearGradient><linearGradient id="paint16_linear_223_1149" x1="325.926" y1="34.045" x2="436.338" y2="380.072" gradientUnits="userSpaceOnUse"><stop stop-color="#fff"/><stop offset="1" stop-color="#005FD2"/></linearGradient><linearGradient id="paint17_linear_223_1149" x1="325.525" y1="32.663" x2="424.734" y2="382.067" gradientUnits="userSpaceOnUse"><stop stop-color="#fff"/><stop offset="1" stop-color="#005FD2"/></linearGradient><linearGradient id="paint18_linear_223_1149" x1="324.827" y1="31.546" x2="414.094" y2="383.621" gradientUnits="userSpaceOnUse"><stop stop-color="#fff"/><stop offset="1" stop-color="#005FD2"/></linearGradient><linearGradient id="paint19_linear_223_1149" x1="323.963" y1="30.649" x2="404.589" y2="384.802" gradientUnits="userSpaceOnUse"><stop stop-color="#fff"/><stop offset="1" stop-color="#005FD2"/></linearGradient><linearGradient id="paint20_linear_223_1149" x1="323.044" y1="29.937" x2="396.359" y2="385.676" gradientUnits="userSpaceOnUse"><stop stop-color="#fff"/><stop offset="1" stop-color="#005FD2"/></linearGradient><linearGradient id="paint21_linear_223_1149" x1="322.171" y1="29.385" x2="389.528" y2="386.3" gradientUnits="userSpaceOnUse"><stop stop-color="#fff"/><stop offset="1" stop-color="#005FD2"/></linearGradient></defs></svg>