<svg width="621" height="652" fill="none" xmlns="http://www.w3.org/2000/svg"><path d="M346.583 895.496c100.967-100.135 257.221-286.233 74.503-229.547-182.718 56.686-299.575-44.876-145.041-111.514 106.294 11.677 290.326 8.848 176.109-95.884C309.382 327.636 221.265 214.46 351.06 236.45c129.796 21.99 305.584 38.771 205.162-98.536" stroke="url(#paint0_linear_331_7175)" stroke-opacity=".2"/><path d="M13.185 616.709c135.766 42.297 373.378 93.173 237.705-41.704-135.673-134.877-100.683-285.695 30.581-180.38 39.474 99.38 128.18 260.647 167.208 110.676 48.784-187.463 107.498-318.33 148.871-193.355 41.372 124.975 108.891 288.144 183.161 135.102" stroke="url(#paint1_linear_331_7175)" stroke-opacity=".2"/><path d="M327.224 879.412c109.587-90.619 281.99-261.865 94.904-221.891-187.086 39.974-294.306-71.713-134.391-124.142 104.807 21.217 288.344 34.999 184.039-79.608-130.381-143.259-207.931-263.922-80.648-230.314 127.283 33.608 300.841 66.175 213.213-79.63" stroke="url(#paint2_linear_331_7175)" stroke-opacity=".2"/><path d="M306.909 863.258c117.002-80.82 303.546-236.541 113.708-212.869-189.839 23.672-287.016-96.856-123.171-135.282 102.583 30.187 284.245 59.764 190.225-63.421-117.526-153.981-184.368-280.889-60.462-236.417 123.906 44.472 294.004 91.903 219.292-60.924" stroke="url(#paint3_linear_331_7175)" stroke-opacity=".2"/><path d="M285.937 846.991c123.27-70.894 322.022-210.698 130.878-202.765-191.144 7.934-278.049-120.198-111.593-144.98 99.744 38.545 278.347 83.005 194.808-47.515-104.425-163.15-160.572-295.138-40.757-240.598 119.816 54.54 285.423 115.839 223.57-42.629" stroke="url(#paint4_linear_331_7175)" stroke-opacity=".2"/><path d="M264.593 830.617c128.462-60.984 337.591-184.73 146.414-191.848-191.176-7.119-267.738-141.687-99.849-153.305 96.405 46.267 270.96 104.631 197.94-32.053-91.275-170.854-136.872-306.849-21.715-243.058 115.158 63.791 275.432 137.92 226.229-24.92" stroke="url(#paint5_linear_331_7175)" stroke-opacity=".2"/><path d="M243.138 814.161c132.661-51.209 350.455-158.975 160.346-180.366-190.109-21.39-256.397-161.305-88.11-160.34 92.677 53.345 262.38 124.595 199.783-17.165-78.247-177.2-113.55-316.223-3.484-244.001 110.066 72.221 264.351 158.124 227.459-7.939" stroke="url(#paint6_linear_331_7175)" stroke-opacity=".2"/><path d="M221.809 797.687c135.958-41.676 360.844-133.731 172.73-168.544-188.115-34.814-244.317-179.077-76.522-166.183 88.662 59.78 252.888 142.881 200.497-2.96-65.487-182.301-90.846-323.476 13.824-243.634 104.669 79.843 252.475 176.468 227.449 8.207" stroke="url(#paint7_linear_331_7175)" stroke-opacity=".2"/><path d="M200.822 781.27c138.445-32.469 368.996-109.243 183.638-156.587-185.358-47.345-231.764-195.05-65.21-170.939 84.455 65.589 242.741 159.511 200.244 10.487-53.121-186.281-68.959-328.838 30.123-242.16 99.082 86.679 240.079 192.994 226.387 23.434" stroke="url(#paint8_linear_331_7175)" stroke-opacity=".2"/><path d="M180.366 765.008c140.219-23.66 375.159-85.718 193.162-144.676-181.998-58.958-218.981-209.299-54.283-174.716 80.144 70.793 232.181 174.525 199.182 23.113-41.249-189.264-48.051-332.537 45.358-239.773 93.41 92.764 227.41 207.772 224.456 37.687" stroke="url(#paint9_linear_331_7175)" stroke-opacity=".2"/><path d="M160.608 748.999c141.376-15.303 379.582-63.321 201.401-132.967-178.181-69.646-206.185-221.916-43.827-177.627 75.805 75.42 221.424 187.985 197.461 34.884-29.953-191.377-28.248-334.802 59.496-236.662 87.745 98.139 214.69 220.891 221.826 50.93" stroke="url(#paint10_linear_331_7175)" stroke-opacity=".2"/><path d="M141.694 733.363c142.007-7.443 382.509-42.184 208.462-121.599-174.047-79.416-193.567-233.004-33.914-179.784 71.508 79.506 210.664 199.97 195.224 45.776-19.299-192.743-9.647-335.853 72.523-233 82.169 102.852 202.115 232.452 218.662 63.147" stroke="url(#paint11_linear_331_7175)" stroke-opacity=".2"/><path d="M123.747 718.212c142.201-.111 384.174-22.405 214.454-110.689-169.72-88.284-181.296-242.674-24.599-181.293 67.313 83.088 200.073 210.566 192.604 55.781-9.335-193.482 7.684-335.903 84.441-228.951 76.756 106.953 189.86 242.564 215.114 74.338" stroke="url(#paint12_linear_331_7175)" stroke-opacity=".2"/><path d="M106.869 703.663c142.045 6.671 384.806-4.057 219.49-100.335-165.317-96.278-169.516-251.044-15.925-182.26 63.274 86.204 189.803 219.869 189.725 64.903-.097-193.706 23.695-335.154 95.263-224.663 71.569 110.492 178.076 251.344 211.325 84.513" stroke="url(#paint13_linear_331_7175)" stroke-opacity=".2"/><path d="M91.15 689.833c141.616 12.89 384.614 12.811 223.675-90.619-160.938-103.431-158.351-258.233-7.922-182.783 59.436 88.893 179.985 227.975 186.698 73.155 8.392-193.525 38.36-333.794 105.018-220.272 66.658 113.521 166.89 258.905 207.418 93.692" stroke="url(#paint14_linear_331_7175)" stroke-opacity=".2"/><path d="M76.659 676.83c140.988 18.538 383.795 28.168 227.117-81.61-156.678-109.778-147.907-264.353-.613-182.954C359 503.464 473.896 647.251 486.789 492.822c16.118-193.035 51.666-331.995 113.735-215.9 62.069 116.094 156.412 265.367 203.509 101.905" stroke="url(#paint15_linear_331_7175)" stroke-opacity=".2"/><path d="M63.453 664.759c140.228 23.612 382.529 41.997 229.915-73.363-152.615-115.36-138.272-269.517 5.989-182.856 52.509 93.152 162.142 240.992 180.6 87.129 23.072-192.328 63.611-329.914 121.45-211.656 57.84 118.258 146.736 270.838 199.7 109.182" stroke="url(#paint16_linear_331_7175)" stroke-opacity=".2"/><path d="M51.58 653.718c139.395 28.117 380.978 54.297 232.159-65.919-148.82-120.215-129.519-273.831 11.876-182.568 49.481 94.795 154.295 246.089 177.699 92.901 29.255-191.485 74.205-327.694 128.206-207.634 54 120.06 137.935 275.424 196.079 115.558" stroke="url(#paint17_linear_331_7175)" stroke-opacity=".2"/><path d="M41.075 643.793c138.541 32.056 379.286 65.072 233.933-59.313s-121.707-277.392 17.045-182.158c46.775 96.159 147.26 250.363 174.996 97.9 34.669-190.579 83.461-325.46 134.038-203.918 50.576 121.542 130.074 279.222 192.725 121.068" stroke="url(#paint18_linear_331_7175)" stroke-opacity=".2"/><path d="M31.965 635.067c137.716 35.436 377.58 74.333 235.314-53.571-142.266-127.905-114.883-280.287 21.497-181.687 44.409 97.275 141.09 253.891 172.548 102.152 39.323-189.674 91.4-323.32 138.987-200.577 47.588 122.743 123.204 282.321 189.706 125.747" stroke="url(#paint19_linear_331_7175)" stroke-opacity=".2"/><path d="M24.27 627.604c136.957 38.265 375.97 82.093 236.368-48.714-139.602-130.806-109.087-282.593 25.234-181.205 42.396 98.169 135.831 256.743 170.408 105.684C499.5 314.545 554.319 182 599.368 305.697c45.049 123.697 117.364 284.798 187.076 129.627" stroke="url(#paint20_linear_331_7175)" stroke-opacity=".2"/><path d="M18.007 621.47c136.298 40.55 374.544 88.369 237.149-44.754-137.395-133.123-104.346-284.378 28.261-180.759 40.748 98.865 131.519 258.979 168.616 108.519 46.372-188.074 103.4-319.685 146.374-195.252 42.975 124.433 112.585 286.722 184.882 132.738" stroke="url(#paint21_linear_331_7175)" stroke-opacity=".2"/><defs><linearGradient id="paint0_linear_331_7175" x1="225.85" y1="443.498" x2="549.881" y2="548.668" gradientUnits="userSpaceOnUse"><stop stop-color="#fff"/><stop offset="1" stop-color="#005FD2"/></linearGradient><linearGradient id="paint1_linear_331_7175" x1="355.97" y1="298.31" x2="414.839" y2="633.857" gradientUnits="userSpaceOnUse"><stop stop-color="#fff"/><stop offset="1" stop-color="#005FD2"/></linearGradient><linearGradient id="paint2_linear_331_7175" x1="247.752" y1="418.367" x2="560.976" y2="552.335" gradientUnits="userSpaceOnUse"><stop stop-color="#fff"/><stop offset="1" stop-color="#005FD2"/></linearGradient><linearGradient id="paint3_linear_331_7175" x1="267.54" y1="397.072" x2="568.028" y2="557.584" gradientUnits="userSpaceOnUse"><stop stop-color="#fff"/><stop offset="1" stop-color="#005FD2"/></linearGradient><linearGradient id="paint4_linear_331_7175" x1="285.153" y1="379.147" x2="571.379" y2="563.896" gradientUnits="userSpaceOnUse"><stop stop-color="#fff"/><stop offset="1" stop-color="#005FD2"/></linearGradient><linearGradient id="paint5_linear_331_7175" x1="300.593" y1="364.159" x2="571.408" y2="570.838" gradientUnits="userSpaceOnUse"><stop stop-color="#fff"/><stop offset="1" stop-color="#005FD2"/></linearGradient><linearGradient id="paint6_linear_331_7175" x1="313.908" y1="351.7" x2="568.514" y2="578.046" gradientUnits="userSpaceOnUse"><stop stop-color="#fff"/><stop offset="1" stop-color="#005FD2"/></linearGradient><linearGradient id="paint7_linear_331_7175" x1="325.186" y1="341.407" x2="563.106" y2="585.233" gradientUnits="userSpaceOnUse"><stop stop-color="#fff"/><stop offset="1" stop-color="#005FD2"/></linearGradient><linearGradient id="paint8_linear_331_7175" x1="334.55" y1="332.945" x2="555.591" y2="592.171" gradientUnits="userSpaceOnUse"><stop stop-color="#fff"/><stop offset="1" stop-color="#005FD2"/></linearGradient><linearGradient id="paint9_linear_331_7175" x1="342.145" y1="326.024" x2="546.371" y2="598.694" gradientUnits="userSpaceOnUse"><stop stop-color="#fff"/><stop offset="1" stop-color="#005FD2"/></linearGradient><linearGradient id="paint10_linear_331_7175" x1="348.133" y1="320.382" x2="535.831" y2="604.682" gradientUnits="userSpaceOnUse"><stop stop-color="#fff"/><stop offset="1" stop-color="#005FD2"/></linearGradient><linearGradient id="paint11_linear_331_7175" x1="352.689" y1="315.799" x2="524.34" y2="610.066" gradientUnits="userSpaceOnUse"><stop stop-color="#fff"/><stop offset="1" stop-color="#005FD2"/></linearGradient><linearGradient id="paint12_linear_331_7175" x1="355.991" y1="312.083" x2="512.241" y2="614.809" gradientUnits="userSpaceOnUse"><stop stop-color="#fff"/><stop offset="1" stop-color="#005FD2"/></linearGradient><linearGradient id="paint13_linear_331_7175" x1="358.219" y1="309.072" x2="499.853" y2="618.906" gradientUnits="userSpaceOnUse"><stop stop-color="#fff"/><stop offset="1" stop-color="#005FD2"/></linearGradient><linearGradient id="paint14_linear_331_7175" x1="359.551" y1="306.637" x2="487.47" y2="622.379" gradientUnits="userSpaceOnUse"><stop stop-color="#fff"/><stop offset="1" stop-color="#005FD2"/></linearGradient><linearGradient id="paint15_linear_331_7175" x1="360.155" y1="304.663" x2="475.358" y2="625.265" gradientUnits="userSpaceOnUse"><stop stop-color="#fff"/><stop offset="1" stop-color="#005FD2"/></linearGradient><linearGradient id="paint16_linear_331_7175" x1="360.194" y1="303.063" x2="463.754" y2="627.613" gradientUnits="userSpaceOnUse"><stop stop-color="#fff"/><stop offset="1" stop-color="#005FD2"/></linearGradient><linearGradient id="paint17_linear_331_7175" x1="359.818" y1="301.768" x2="452.869" y2="629.485" gradientUnits="userSpaceOnUse"><stop stop-color="#fff"/><stop offset="1" stop-color="#005FD2"/></linearGradient><linearGradient id="paint18_linear_331_7175" x1="359.163" y1="300.72" x2="442.889" y2="630.943" gradientUnits="userSpaceOnUse"><stop stop-color="#fff"/><stop offset="1" stop-color="#005FD2"/></linearGradient><linearGradient id="paint19_linear_331_7175" x1="358.352" y1="299.88" x2="433.974" y2="632.052" gradientUnits="userSpaceOnUse"><stop stop-color="#fff"/><stop offset="1" stop-color="#005FD2"/></linearGradient><linearGradient id="paint20_linear_331_7175" x1="357.491" y1="299.21" x2="426.256" y2="632.869" gradientUnits="userSpaceOnUse"><stop stop-color="#fff"/><stop offset="1" stop-color="#005FD2"/></linearGradient><linearGradient id="paint21_linear_331_7175" x1="356.672" y1="298.694" x2="419.848" y2="633.456" gradientUnits="userSpaceOnUse"><stop stop-color="#fff"/><stop offset="1" stop-color="#005FD2"/></linearGradient></defs></svg>