<svg width="187" height="151" fill="none" xmlns="http://www.w3.org/2000/svg"><rect x="80.543" y="105.306" width="106.207" height="44.524" rx="9.75" fill="#fff" fill-opacity=".2" stroke="#AFA9F7" stroke-width=".5"/><path fill-rule="evenodd" clip-rule="evenodd" d="M106.563 134.122c3.606.897 7.253-1.308 8.147-4.926.893-3.611-1.295-7.265-4.891-8.17a.083.083 0 00-.015-.004l-.003-.001c-3.606-.897-7.253 1.308-8.148 4.926-.894 3.618 1.304 7.278 4.91 8.175zm1.367-7.191c.505.136 1.586.427 1.778-.342h-.006c.195-.787-.875-1.022-1.388-1.135a4.84 4.84 0 01-.147-.033l-.368 1.476.131.034zm-.577 2.378c.602.16 1.918.509 2.126-.334.213-.862-1.055-1.149-1.679-1.29a7.183 7.183 0 01-.186-.044l-.405 1.631.144.037zm2.336-4.409c.923.32 1.604.803 1.471 1.702-.103.667-.46.977-.944 1.088.663.346 1.001.876.679 1.795-.399 1.143-1.343 1.239-2.604 1l-.305 1.227-.738-.183.299-1.221a20.46 20.46 0 01-.587-.152l-.302 1.217-.738-.186.305-1.229-.526-.137-.96-.239.366-.843s.538.143.538.132a.268.268 0 00.338-.175l.482-1.942.077.021a.389.389 0 00-.075-.025l.344-1.386a.394.394 0 00-.344-.422 9.985 9.985 0 00-.536-.135l.195-.791 1.02.255.47.106.303-1.217.738.185-.294 1.198c.197.045.397.091.59.14l.295-1.186.746.186-.303 1.217z" fill="#fff"/><path d="M118.968 132.203c.392.001.779-.099 1.122-.291.353-.189.664-.449.912-.764.259-.332.463-.705.604-1.103.148-.411.223-.845.222-1.282a2.504 2.504 0 00-.273-1.28c-.181-.306-.517-.462-1.005-.462a3.054 3.054 0 00-.63.087 1.517 1.517 0 00-.69.358l-1.114 4.674.179.033a.882.882 0 00.162.026c.069.008.14.012.21.01l.3-.006h.001zm2.213-7.306c.486-.011.97.089 1.412.291.385.184.723.453.988.787.272.346.473.742.589 1.166.127.468.19.952.187 1.437a5.854 5.854 0 01-1.627 4.047 5.574 5.574 0 01-1.772 1.227 5.378 5.378 0 01-2.211.46h-.538a8.007 8.007 0 01-.875-.076 9.629 9.629 0 01-1.051-.211 5.102 5.102 0 01-1.051-.375l2.954-12.414 2.638-.422-1.051 4.406a4.08 4.08 0 01.679-.238c.24-.059.486-.088.733-.086l-.004.002v-.001zm7.127-.904a1.565 1.565 0 01-.954-.314 1.122 1.122 0 01-.42-.966 1.577 1.577 0 01.145-.673 1.784 1.784 0 011.61-1.053c.341-.001.673.11.946.317.291.232.448.594.42.966.002.232-.047.463-.143.674-.093.205-.222.39-.382.547a1.899 1.899 0 01-.553.367 1.676 1.676 0 01-.673.135h.004zm-1.225 10.079h-2.522l2.131-8.985h2.537l-2.146 8.985zm4.353-11.222l2.637-.41-.655 2.647h2.825l-.509 2.084h-2.802l-.748 3.134a3.65 3.65 0 00-.12.734c-.016.201.014.403.086.59a.73.73 0 00.366.382c.237.106.497.154.756.139.267.001.532-.025.793-.078.262-.051.521-.122.773-.21l.19 1.948a9.167 9.167 0 01-1.108.323 6.266 6.266 0 01-1.413.137c-.784 0-1.389-.118-1.822-.35a2.033 2.033 0 01-.921-.958 3.06 3.06 0 01-.237-1.392 9.179 9.179 0 01.237-1.657l1.671-7.072v.009h.001zm4.714 7.634a6.319 6.319 0 01.374-2.187 5.397 5.397 0 011.072-1.794 5.016 5.016 0 011.694-1.211 5.389 5.389 0 012.222-.445c.461-.006.921.043 1.37.145.378.09.746.219 1.098.384l-.877 1.976a8.25 8.25 0 00-.706-.246 3.032 3.032 0 00-.893-.112 2.493 2.493 0 00-1.991.877c-.492.581-.739 1.361-.74 2.341-.023.497.108.989.374 1.409.249.359.709.538 1.379.538a4.675 4.675 0 001.772-.359l.187 2.034c-.344.13-.694.241-1.051.333-.452.102-.915.15-1.379.143a4.665 4.665 0 01-1.803-.306 3.401 3.401 0 01-1.207-.828 3.136 3.136 0 01-.691-1.224 5.017 5.017 0 01-.21-1.476l.006.008zm12.446-3.482a1.608 1.608 0 00-.988.323 2.803 2.803 0 00-.713.82c-.199.338-.35.704-.445 1.085-.093.365-.141.74-.143 1.117a2.75 2.75 0 00.271 1.333c.183.319.511.479.988.479a1.58 1.58 0 00.988-.325c.289-.224.532-.503.715-.82a4.03 4.03 0 00.435-1.084c.091-.366.14-.742.143-1.12a2.74 2.74 0 00-.271-1.333c-.183-.316-.513-.477-.988-.477l.008.002zm-1.261 7.31a4.078 4.078 0 01-1.568-.274 2.879 2.879 0 01-1.097-.768 3.317 3.317 0 01-.656-1.17 4.755 4.755 0 01-.21-1.493 6.575 6.575 0 01.33-2.05c.211-.666.54-1.288.971-1.837a5.234 5.234 0 011.582-1.342 4.36 4.36 0 012.144-.521 4.154 4.154 0 011.56.275 2.93 2.93 0 011.104.757c.294.342.516.74.653 1.17.15.484.221.989.211 1.496a6.817 6.817 0 01-.322 2.049 5.929 5.929 0 01-.954 1.846 5.023 5.023 0 01-1.575 1.339 4.436 4.436 0 01-2.173.523zm9.007-10.319a1.557 1.557 0 01-.952-.314 1.122 1.122 0 01-.42-.966 1.595 1.595 0 01.145-.673c.09-.205.216-.39.374-.548.162-.154.35-.278.555-.368a1.68 1.68 0 01.67-.137c.344-.003.68.109.955.317.291.232.448.594.42.966.001.233-.05.463-.147.674a1.778 1.778 0 01-.933.914c-.211.09-.438.136-.667.135zm-1.223 10.079h-2.522l2.127-8.985h2.539l-2.144 8.985zm3.96-8.575c.191-.055.403-.123.63-.196.227-.074.492-.142.784-.211.321-.069.644-.12.969-.154.405-.043.811-.064 1.218-.062 1.328 0 2.244.388 2.749 1.163.302.464.455 1.03.458 1.698v.048a6.19 6.19 0 01-.193 1.432l-1.158 4.85h-2.531l1.124-4.749c.067-.295.122-.582.162-.863a2.057 2.057 0 000-.734.88.88 0 00-.315-.512 1.206 1.206 0 00-.759-.196c-.337 0-.673.035-1.002.103l-1.653 6.96h-2.545l2.062-8.577z" fill="#fff"/><rect x="56.53" y=".25" width="106.207" height="44.524" rx="9.75" fill="#fff" fill-opacity=".2" stroke="#AFA9F7" stroke-width=".5"/><path fill-rule="evenodd" clip-rule="evenodd" d="M89.818 25.646c.398.176.834.202 1.145.202.92 0 1.615-.58 1.615-2.622 0-1.6-.572-2.117-1.404-2.117-.498 0-.858.139-1.356.415v4.122zm.014-5.054c.372-.201 1.006-.467 1.677-.467 1.542 0 2.375 1.084 2.375 3.101 0 2.358-1.12 3.505-2.92 3.505-.66 0-1.68-.215-2.426-.62v-8.796L89.832 17v3.592zm-13.834-.33h.087l1.69 6.29h1.343l2.015-8.936h-1.455l-1.268 6.668h-.087l-1.729-6.668h-1.106l-1.616 6.668h-.087l-1.393-6.668H71l2.014 8.936h1.342l1.642-6.29zm9.748 2.486h-2.847c.136-1.26.72-1.852 1.48-1.852.67 0 1.305.53 1.367 1.852zm.994 3.329v-.958c-.683.415-1.305.655-1.976.655-1.281 0-1.89-.669-1.89-2.18h4.053v-.467c0-2.054-.958-3.076-2.512-3.076-1.864 0-2.822 1.387-2.822 3.304 0 1.99.858 3.302 2.946 3.302a4.34 4.34 0 002.2-.58zm12.802-1.42h-.063l-2.784-7.047H95.19v8.938h1.12V20.22h.11l2.538 6.328h.795l2.536-6.48h.112v6.48h1.343V17.61h-1.542l-2.66 7.046zm9.688-1.303c0-1.701-.683-2.42-1.529-2.42-.82 0-1.529.718-1.529 2.42 0 1.727.647 2.42 1.529 2.42.882 0 1.529-.693 1.529-2.42zm-4.363 0c0-2.206 1.194-3.303 2.834-3.303 1.642 0 2.835 1.097 2.835 3.303 0 2.155-1.131 3.303-2.835 3.303-1.703 0-2.834-1.148-2.834-3.303zm6.652-2.37c.559-.34 1.741-.933 3.17-.933 1.492 0 2.051.593 2.051 1.89v4.564h-1.292v-4.273c0-.996-.485-1.172-1.119-1.172-.497 0-1.132.227-1.517.454v4.991h-1.293v-5.52zm10.804 1.764h-2.847c.138-1.26.721-1.852 1.48-1.852.671 0 1.306.53 1.367 1.852zm.994 3.329v-.958c-.682.415-1.305.655-1.975.655-1.281 0-1.89-.669-1.89-2.18h4.053v-.467c0-2.054-.957-3.076-2.512-3.076-1.865 0-2.822 1.387-2.822 3.304 0 1.99.859 3.302 2.946 3.302.895 0 1.641-.253 2.2-.58zM130 20.05h-1.331l-1.416 4.639h-.075l-1.591-4.639h-1.368l2.387 6.302c-.299.933-.82 1.614-1.666 1.614V29c1.43 0 2.187-.908 2.81-2.647L130 20.05z" fill="#fff"/><path d="M140.962 15c1.248 0 2.436.29 3.502.81a7.5 7.5 0 01.502.26l-.731.657-1.096-1.146-1.887 1.68-1.112-1.207-3.471 3.133 2.222 2.46-.867.765 2.192 2.46-.867.764 3.136 3.5 1.856-1.712 1.615 1.834c-.32.245-.67.49-1.051.704A7.931 7.931 0 01140.977 31c-4.4 0-7.977-3.59-7.977-8.007-.015-4.386 3.562-7.993 7.962-7.993zm-1.462 7.504l1.903-1.712 1.706 1.91-1.904 1.712-1.705-1.91zm1.356 3.3l1.887-1.726 1.721 1.91-1.904 1.712-1.704-1.895zm-2.71-6.555l1.903-1.712 1.705 1.91-1.904 1.712-1.704-1.91zm3.486-.918l1.416-1.283 1.279 1.421-1.416 1.299-1.279-1.437zm2.527 5.884l1.416-1.284 1.279 1.437-1.416 1.284-1.279-1.437zm1.248 2.889l1.416-1.284 1.278 1.421-1.415 1.299-1.279-1.436zm.579-6.602l.944-.856.852.948-.944.855-.852-.947zm-1.218-2.828l.944-.87.853.962-.945.856-.852-.948zm2.42 5.655l.944-.856.868.948-.959.855-.853-.947zm-4.247-2.124l1.416-1.284 1.279 1.421-1.416 1.284-1.279-1.421z" fill="#fff"/><rect x=".25" y="52.778" width="106.207" height="44.524" rx="9.75" fill="#fff" fill-opacity=".2" stroke="#AFA9F7" stroke-width=".5"/><path fill-rule="evenodd" clip-rule="evenodd" d="M43.146 81.688h-3.558L36.92 71.21c-.127-.482-.396-.908-.791-1.109a11.352 11.352 0 00-3.262-1.109v-.403H38.6c.791 0 1.384.606 1.483 1.31l1.385 7.558 3.556-8.868h3.46l-5.337 13.1zm7.313 0H47.1l2.767-13.1h3.36l-2.767 13.1zm7.115-9.47c.1-.706.693-1.11 1.385-1.11 1.088-.1 2.272.102 3.261.605l.594-2.82a8.294 8.294 0 00-3.064-.607c-3.261 0-5.635 1.815-5.635 4.333 0 1.916 1.681 2.922 2.868 3.528 1.284.604 1.778 1.008 1.68 1.612 0 .906-.99 1.31-1.977 1.31-1.186 0-2.373-.302-3.459-.807l-.593 2.822c1.186.503 2.47.706 3.657.706 3.657.1 5.93-1.714 5.93-4.434 0-3.427-4.646-3.628-4.646-5.138zm16.406 9.47l-2.668-13.1h-2.866a1.49 1.49 0 00-1.384 1.008L62.12 81.688h3.46l.69-1.914h4.25l.395 1.914h3.064zm-5.04-9.572l.988 4.938h-2.767l1.78-4.938z" fill="#fff"/></svg>